<svg width="125" height="140" viewBox="0 0 125 140" fill="none" xmlns="http://www.w3.org/2000/svg">
<mask id="mask0_1_1551" style="mask-type:luminance" maskUnits="userSpaceOnUse" x="0" y="0" width="125" height="140">
<rect x="0.926605" width="124.073" height="140" rx="10" fill="white"/>
</mask>
<g mask="url(#mask0_1_1551)">
<rect x="0.926605" width="124.073" height="140" rx="10" fill="#E5E5E5"/>
<path d="M-7.69472 11.3052C1.36401 4.16003 21.5806 4.07071 29.9771 60.8745C38.3736 117.678 60.7768 108.881 70.4603 103.41C94.6377 93.6974 107.795 125.851 105.696 164.702" stroke="#5C2D87" stroke-opacity="0.1" stroke-width="2"/>
<path d="M-7.69472 11.3052C1.36401 4.16003 21.5806 4.07071 29.9771 60.8745C38.3736 117.678 60.7768 108.881 70.4603 103.41C94.6377 93.6974 107.795 125.851 105.696 164.702" stroke="#5C2D87" stroke-opacity="0.1" stroke-width="2"/>
<path d="M0.92659 -0.752086C9.98532 -7.89722 30.2019 -7.98654 38.5984 48.8173C46.9949 105.621 69.3981 96.8236 79.0816 91.3531C103.259 81.6402 116.416 113.793 114.317 152.645" stroke="#5C2D87" stroke-opacity="0.1" stroke-width="2"/>
<path d="M9.54788 -12.8096C18.6066 -19.9547 38.8232 -20.044 47.2197 36.7598C55.6162 93.5636 78.0194 84.7661 87.7029 79.2956C111.88 69.5827 125.037 101.736 122.938 140.587" stroke="#5C2D87" stroke-opacity="0.1" stroke-width="2"/>
<path d="M18.1698 -24.8671C27.2285 -32.0123 47.4451 -32.1016 55.8416 24.7022C64.2381 81.5061 86.6413 72.7086 96.3248 67.238C120.502 57.5251 133.659 89.6782 131.56 128.53" stroke="#5C2D87" stroke-opacity="0.1" stroke-width="2"/>
<path d="M26.7911 -36.9244C35.8498 -44.0695 56.0664 -44.1588 64.4629 12.645C72.8594 69.4488 95.2626 60.6513 104.946 55.1808C129.124 45.4679 142.281 77.621 140.181 116.473" stroke="#5C2D87" stroke-opacity="0.1" stroke-width="2"/>
<path d="M35.4124 -48.9819C44.4711 -56.1271 64.6877 -56.2164 73.0842 0.587429C81.4807 57.3913 103.884 48.5938 113.567 43.1232C137.745 33.4103 150.902 65.5634 148.803 104.415" stroke="#5C2D87" stroke-opacity="0.1" stroke-width="2"/>
<path d="M44.0337 -61.0394C53.0924 -68.1846 73.309 -68.2739 81.7055 -11.4701C90.102 45.3338 112.505 36.5363 122.189 31.0657C146.366 21.3528 159.523 53.5059 157.424 92.3576" stroke="#5C2D87" stroke-opacity="0.1" stroke-width="2"/>
<path d="M52.6549 -73.0967C61.7137 -80.2418 81.9303 -80.3311 90.3268 -23.5273C98.7233 33.2765 121.126 24.479 130.81 19.0085C154.987 9.29557 168.144 41.4487 166.045 80.3004" stroke="#5C2D87" stroke-opacity="0.1" stroke-width="2"/>
<path d="M61.2766 -85.1543C70.3354 -92.2994 90.5519 -92.3888 98.9485 -35.5849C107.345 21.2189 129.748 12.4214 139.432 6.95087C163.609 -2.76205 176.766 29.3911 174.667 68.2427" stroke="#5C2D87" stroke-opacity="0.1" stroke-width="2"/>
<path fill-rule="evenodd" clip-rule="evenodd" d="M70.2053 52.6467C72.5782 53.509 73.3042 56.5119 74.2745 57.4771C75.2448 58.4423 76.6333 58.7705 77.4016 58.7705C81.4849 58.7705 84.7953 61.7927 84.7953 65.5185V77.9484C84.7953 82.9461 80.3548 87 74.8806 87H51.2453C45.7688 87 41.3307 82.9461 41.3307 77.9484V65.5185C41.3307 61.7927 44.641 58.7705 48.7244 58.7705C49.4903 58.7705 50.8788 58.4423 51.8515 57.4771C52.8218 56.5119 53.5454 53.509 55.9183 52.6467C58.2936 51.7844 67.8323 51.7844 70.2053 52.6467Z" stroke="black" stroke-width="1.5" stroke-linecap="round" stroke-linejoin="round"/>
<path d="M76.0926 64H76.1121" stroke="black" stroke-width="2" stroke-linecap="round" stroke-linejoin="round"/>
<path fill-rule="evenodd" clip-rule="evenodd" d="M70.6693 72C70.6693 68.1334 67.2645 65 63.063 65C58.8614 65 55.4567 68.1334 55.4567 72C55.4567 75.8666 58.8614 79 63.063 79C67.2645 79 70.6693 75.8666 70.6693 72Z" stroke="black" stroke-width="1.5" stroke-linecap="round" stroke-linejoin="round"/>
</g>
</svg>
