<svg width="390" height="333" viewBox="0 0 390 333" fill="none" xmlns="http://www.w3.org/2000/svg">
    <g opacity="0.3">
    <path d="M-146.66 124.763C-132.085 118.865 -64.9186 64.3979 140.268 136.014C345.455 207.63 408.128 190.113 443.55 134.271" stroke="white" stroke-width="0.272584" stroke-miterlimit="10"/>
    <path d="M-146.171 122.547C-132.289 116.926 -64.1709 65.9005 139.118 138.063C342.406 210.225 407.929 185.18 441.686 131.989" stroke="white" stroke-width="0.272584" stroke-miterlimit="10"/>
    <path d="M-145.671 120.336C-132.485 114.995 -63.4335 67.4288 137.974 140.211C339.381 212.993 407.749 180.435 439.818 129.902" stroke="white" stroke-width="0.272584" stroke-miterlimit="10"/>
    <path d="M-145.171 118.122C-132.677 113.063 -62.698 68.9576 136.831 142.357C336.36 215.756 407.569 175.687 437.95 127.816" stroke="white" stroke-width="0.272584" stroke-miterlimit="10"/>
    <path d="M-144.67 115.907C-132.871 111.128 -61.9594 70.4821 135.689 144.498C333.337 218.515 407.39 170.935 436.082 125.722" stroke="white" stroke-width="0.272584" stroke-miterlimit="10"/>
    <path d="M-144.172 113.695C-133.066 109.198 -61.2241 72.0133 134.54 146.647C330.304 221.28 407.205 166.19 434.209 123.638" stroke="white" stroke-width="0.272584" stroke-miterlimit="10"/>
    <path d="M-143.671 111.481C-133.26 107.265 -60.4858 73.5417 133.397 148.792C327.281 224.042 407.026 161.442 432.341 121.548" stroke="white" stroke-width="0.272584" stroke-miterlimit="10"/>
    <path d="M-143.171 109.267C-133.453 105.332 -59.748 75.0675 132.254 150.935C324.256 226.802 406.846 156.691 430.473 119.458" stroke="white" stroke-width="0.272584" stroke-miterlimit="10"/>
    <path d="M-142.67 107.051C-133.648 103.397 -59.0125 76.5943 131.111 153.079C321.235 229.564 406.664 151.942 428.608 117.367" stroke="white" stroke-width="0.272584" stroke-miterlimit="10"/>
    <path d="M-142.17 104.841C-133.84 101.468 -58.2747 78.1236 129.965 155.228C318.205 232.332 406.481 147.197 426.737 115.284" stroke="white" stroke-width="0.272584" stroke-miterlimit="10"/>
    <path d="M-141.67 102.626C-134.035 99.5341 -57.5364 79.6515 128.823 157.37C315.182 235.089 406.302 142.446 424.869 113.191" stroke="white" stroke-width="0.272584" stroke-miterlimit="10"/>
    <path d="M-141.172 100.412C-134.232 97.6008 -56.8039 81.1769 127.677 159.516C312.158 237.854 406.119 137.698 422.998 111.104" stroke="white" stroke-width="0.272584" stroke-miterlimit="10"/>
    <path d="M-140.671 98.2C-134.424 95.6703 -56.0656 82.7078 126.534 161.664C309.134 240.619 405.94 132.952 421.13 109.016" stroke="white" stroke-width="0.272584" stroke-miterlimit="10"/>
    <path d="M-140.171 95.9844C-134.619 93.7357 -55.3272 84.2321 125.389 163.805C306.104 243.377 405.758 128.202 419.259 106.925" stroke="white" stroke-width="0.272584" stroke-miterlimit="10"/>
    <path d="M-139.67 93.7712C-134.811 91.8037 -54.5895 85.7615 124.245 165.951C303.08 246.141 405.575 123.455 417.391 104.836" stroke="white" stroke-width="0.272584" stroke-miterlimit="10"/>
    <path d="M-139.17 91.5584C-135.007 89.8718 -53.8544 87.2884 123.102 168.098C300.059 248.908 405.395 118.709 415.523 102.751" stroke="white" stroke-width="0.272584" stroke-miterlimit="10"/>
    <path d="M-138.67 89.3447C-135.198 87.9393 -53.1161 88.8174 121.959 170.244C297.035 251.671 405.213 113.958 413.652 100.661" stroke="white" stroke-width="0.272584" stroke-miterlimit="10"/>
    <path d="M-138.171 87.1306C-135.396 86.0062 -52.3803 90.3458 120.811 172.387C294.003 254.428 405.034 109.21 411.785 98.5717" stroke="white" stroke-width="0.272584" stroke-miterlimit="10"/>
    <path d="M-137.671 84.9158C-135.588 84.0726 -51.6453 91.8707 119.668 174.532C290.982 257.193 404.851 104.462 409.914 96.4839" stroke="white" stroke-width="0.272584" stroke-miterlimit="10"/>
    <path d="M-137.171 82.7038C-135.783 82.1416 -50.9077 93.4013 118.525 176.679C287.957 259.957 404.671 99.7131 408.045 94.3937" stroke="white" stroke-width="0.272584" stroke-miterlimit="10"/>
    <path d="M-136.67 80.4904C-135.974 80.2094 -50.1685 94.9279 117.383 178.823C284.934 262.718 404.49 94.9658 406.178 92.3074" stroke="white" stroke-width="0.272584" stroke-miterlimit="10"/>
    <path d="M-136.17 78.2753C-136.17 78.2753 -49.4315 96.4553 116.236 180.967C281.903 265.48 404.306 90.2167 404.306 90.2167" stroke="white" stroke-width="0.272584" stroke-miterlimit="10"/>
    <path d="M-135.485 82.5323C-135.138 82.2087 -46.0699 93.8405 116.672 177.486C279.414 261.13 399.07 99.5232 403.673 98.5717" stroke="white" stroke-width="0.272584" stroke-miterlimit="10"/>
    <path d="M-134.801 86.7913C-134.105 86.1442 -42.7059 91.2306 117.107 174.008C276.921 256.786 393.836 108.829 403.04 106.926" stroke="white" stroke-width="0.272584" stroke-miterlimit="10"/>
    <path d="M-134.116 91.0488C-133.073 90.0781 -39.3423 88.6191 117.54 170.527C274.422 252.434 388.599 118.131 402.406 115.282" stroke="white" stroke-width="0.272584" stroke-miterlimit="10"/>
    <path d="M-133.432 95.3048C-132.044 94.0104 -35.9791 86.0035 117.974 167.046C271.928 248.089 383.359 127.437 401.768 123.636" stroke="white" stroke-width="0.272584" stroke-miterlimit="10"/>
    <path d="M-132.747 99.5617C-131.012 97.9437 -32.6149 83.3914 118.41 163.564C269.435 243.737 378.122 136.741 401.135 131.988" stroke="white" stroke-width="0.272584" stroke-miterlimit="10"/>
    <path d="M-132.06 103.819C-129.976 101.878 -29.2506 80.7771 118.846 160.085C266.943 239.394 372.889 146.048 400.502 140.343" stroke="white" stroke-width="0.272584" stroke-miterlimit="10"/>
    <path d="M-131.376 108.075C-128.945 105.81 -25.8876 78.1641 119.28 156.605C264.449 235.046 367.651 155.351 399.867 148.698" stroke="white" stroke-width="0.272584" stroke-miterlimit="10"/>
    <path d="M-130.691 112.332C-127.912 109.743 -22.523 75.5494 119.717 153.123C261.956 230.697 362.415 164.655 399.231 157.05" stroke="white" stroke-width="0.272584" stroke-miterlimit="10"/>
    <path d="M-130.007 116.591C-126.88 113.679 -19.1598 72.9396 120.151 149.644C259.463 226.347 357.177 173.961 398.597 165.404" stroke="white" stroke-width="0.272584" stroke-miterlimit="10"/>
    <path d="M-129.322 120.847C-125.847 117.611 -15.7953 70.3264 120.585 146.163C256.965 221.999 351.941 183.266 397.961 173.758" stroke="white" stroke-width="0.272584" stroke-miterlimit="10"/>
    <path d="M-128.637 125.104C-124.815 121.545 -12.4315 67.7122 121.02 142.681C254.471 217.65 346.704 192.568 397.328 182.111" stroke="white" stroke-width="0.272584" stroke-miterlimit="10"/>
    <path d="M-127.95 129.361C-123.783 125.478 -9.06809 65.0995 121.458 139.201C251.983 213.304 341.469 201.874 396.696 190.468" stroke="white" stroke-width="0.272584" stroke-miterlimit="10"/>
    <path d="M-127.265 133.618C-122.75 129.411 -5.70391 62.4851 121.891 135.72C249.485 208.954 336.23 211.178 396.06 198.821" stroke="white" stroke-width="0.272584" stroke-miterlimit="10"/>
    <path d="M-126.582 137.875C-121.719 133.345 -2.34109 59.8733 122.325 132.241C246.991 204.608 330.995 220.485 395.425 207.176" stroke="white" stroke-width="0.272584" stroke-miterlimit="10"/>
    <path d="M-125.896 142.131C-120.686 137.277 1.02358 57.2603 122.761 128.758C244.499 200.255 325.759 229.785 394.792 215.527" stroke="white" stroke-width="0.272584" stroke-miterlimit="10"/>
    <path d="M-125.212 146.388C-119.654 141.211 4.38759 54.6455 123.194 125.278C242 195.911 320.519 239.092 394.156 223.882" stroke="white" stroke-width="0.272584" stroke-miterlimit="10"/>
    <path d="M-124.527 150.648C-118.621 145.147 7.74867 52.0361 123.629 121.799C239.51 191.562 315.283 248.398 393.522 232.237" stroke="white" stroke-width="0.272584" stroke-miterlimit="10"/>
    <path d="M-123.84 154.904C-117.587 149.08 11.1147 49.4209 124.067 118.319C237.019 187.217 310.051 257.705 392.888 240.592" stroke="white" stroke-width="0.272584" stroke-miterlimit="10"/>
    <path d="M-123.156 159.161C-116.558 153.013 14.4784 46.8091 124.499 114.837C234.52 182.865 304.811 267.006 392.251 248.944" stroke="white" stroke-width="0.272584" stroke-miterlimit="10"/>
    <path d="M-122.472 163.418C-115.525 156.947 17.842 44.197 124.934 111.358C232.027 178.519 299.574 276.313 391.617 257.299" stroke="white" stroke-width="0.272584" stroke-miterlimit="10"/>
    <path d="M-121.787 167.675C-114.493 160.88 21.2064 41.5821 125.37 107.876C229.534 174.169 294.337 285.616 390.984 265.654" stroke="white" stroke-width="0.272584" stroke-miterlimit="10"/>
    </g>
    </svg>
    