<svg width="72" height="24" viewBox="0 0 72 24" fill="none" xmlns="http://www.w3.org/2000/svg">
    <g clip-path="url(#clip0_1_993)">
    <path d="M0.5 1H32.5V22H0.5V1Z" fill="#006C35"/>
    <path fill-rule="evenodd" clip-rule="evenodd" d="M14.2932 5.95974C14.2767 5.95925 14.2519 5.96834 14.2172 5.98861C14.1392 6.04009 13.9846 6.19864 13.9799 6.38105C13.9752 6.48396 13.9554 6.48356 14.0239 6.54905C14.0733 6.61924 14.1227 6.61234 14.2226 6.56086C14.2799 6.51929 14.2992 6.49277 14.3186 6.42305C14.3423 6.30613 14.1936 6.47837 14.1746 6.34824C14.1413 6.22742 14.2363 6.17773 14.3266 6.0608C14.3286 6.00574 14.3296 5.96079 14.2932 5.95974ZM15.7465 5.96761C15.7187 5.97131 15.6845 6.00647 15.6372 6.09099C15.6033 6.1795 15.4569 6.31347 15.5625 6.58974C15.6489 6.76491 15.6844 7.04959 15.6452 7.36674C15.5853 7.45686 15.5717 7.48792 15.4932 7.57805C15.3829 7.69476 15.2635 7.66492 15.1719 7.62136C15.0862 7.56455 15.019 7.53539 14.9799 7.35492C14.9869 7.06726 15.0039 6.59644 14.9505 6.49652C14.8718 6.34179 14.742 6.39728 14.6865 6.44402C14.42 6.68392 14.2883 7.08901 14.2079 7.41132C14.1339 7.64623 14.0552 7.57829 13.9999 7.48351C13.8652 7.35931 13.8558 6.38803 13.6932 6.54771C13.4328 7.28019 13.8426 8.0826 14.1265 8.00461C14.3313 8.08809 14.4613 7.70428 14.5452 7.28405C14.6026 7.16611 14.6464 7.15256 14.6758 7.21318C14.6683 7.77203 14.7166 7.89669 14.8625 8.06628C15.1881 8.31355 15.4574 8.09761 15.4785 8.07678C15.4997 8.056 15.7319 7.82741 15.7319 7.82741C15.7883 7.76899 15.8628 7.76543 15.9425 7.81691C16.02 7.88621 16.01 8.00558 16.1759 8.0886C16.3154 8.14355 16.6134 8.10196 16.6825 7.9836C16.7756 7.82667 16.7981 7.77275 16.8412 7.71322C16.9076 7.62623 17.0212 7.66475 17.0212 7.69222C17.0106 7.74074 16.9439 7.7886 16.9892 7.87597C17.0682 7.93426 17.0865 7.8968 17.1332 7.88385C17.2984 7.80612 17.4225 7.45335 17.4225 7.45335C17.4299 7.32177 17.3538 7.33175 17.3052 7.35885C17.2418 7.39699 17.2379 7.40995 17.1745 7.4481C17.0938 7.45991 16.9373 7.51235 16.8599 7.39429C16.7808 7.25234 16.7803 7.05446 16.7199 6.91129C16.7199 6.90087 16.6142 6.68617 16.7119 6.67241C16.7612 6.68143 16.8671 6.70839 16.8839 6.62122C16.9356 6.53626 16.7723 6.29524 16.6612 6.17367C16.5647 6.06945 16.4316 6.05674 16.3025 6.16317C16.2122 6.245 16.2256 6.33639 16.2079 6.42305C16.1849 6.52257 16.1893 6.64585 16.2919 6.77742C16.3821 6.95247 16.5459 7.17705 16.4919 7.49402C16.4919 7.49402 16.3967 7.64488 16.2292 7.62527C16.1594 7.61029 16.0457 7.58055 15.9852 7.14097C15.9395 6.80823 15.9967 6.34205 15.8532 6.12377C15.8208 6.04141 15.793 5.96145 15.7465 5.96761ZM15.2866 6.00289C15.2432 6.00662 15.1951 6.05638 15.1559 6.15252C15.1223 6.22562 15.0812 6.60796 15.0879 6.60796C15.0611 6.72175 15.2087 6.76997 15.2759 6.62371C15.3767 6.35557 15.3772 6.24134 15.3839 6.12761C15.3682 6.04098 15.33 5.99916 15.2866 6.00289ZM16.9852 6.03308C16.9407 6.03706 16.9052 6.06274 16.8919 6.12758C16.8741 6.28002 16.8832 6.36291 16.9092 6.48983C16.9292 6.57445 17.0543 6.71614 17.1159 6.79827C17.4101 7.18758 17.6932 7.57875 17.9666 7.98347C18.0096 8.28398 18.0411 8.57793 18.0613 8.87072C18.1056 9.51264 18.119 10.3117 18.0786 10.9878C18.2008 10.9925 18.3965 10.7936 18.4653 10.5022C18.5099 10.0991 18.4493 9.2766 18.4453 9.03872C18.4424 8.93996 18.4362 8.82212 18.4293 8.69878C18.7472 9.21029 19.0557 9.75222 19.3586 10.3473C19.469 10.2956 19.4445 9.68376 19.3799 9.59783C19.1375 9.08429 18.8027 8.5774 18.6959 8.38243C18.6574 8.31203 18.5261 8.11553 18.3706 7.88893C18.342 7.56559 18.3108 7.29173 18.2906 7.20904C18.2406 6.86724 18.4333 7.24758 18.4066 7.04891C18.3441 6.70758 18.1527 6.47561 17.9266 6.16296C17.8537 6.06128 17.8551 6.04054 17.7426 6.1879C17.6753 6.33813 17.6762 6.46311 17.6959 6.58034C17.6663 6.53799 17.6297 6.48778 17.5773 6.42546C17.382 6.26058 17.37 6.25156 17.2079 6.11703C17.1568 6.08133 17.0596 6.02639 16.9853 6.03303L16.9852 6.03308ZM22.0199 6.08427C21.9982 6.08095 21.9745 6.09145 21.9479 6.13021C21.897 6.17415 21.8422 6.25372 21.8439 6.35596C21.8563 6.53609 21.8888 6.72052 21.9012 6.90065C21.9056 6.92476 21.9102 6.94874 21.9146 6.97284C21.8949 6.94815 21.8777 6.92887 21.8679 6.91903C21.5112 6.55018 22.0318 6.85875 21.7999 6.57384C21.6038 6.36188 21.5464 6.29444 21.3786 6.16697C21.2944 6.11342 21.2435 6.0111 21.2159 6.18534C21.2049 6.33842 21.1934 6.51569 21.2039 6.64474C21.2033 6.71645 21.2787 6.85145 21.3439 6.93087C21.5818 7.21864 21.8249 7.52483 22.0692 7.84437C22.1206 8.49604 22.1344 9.0934 22.1866 9.74617C22.1792 10.0254 22.0919 10.3962 22.0092 10.4313C22.0092 10.4313 21.8829 10.5027 21.7986 10.4234C21.7372 10.3991 21.4919 10.0205 21.4919 10.0205C21.3663 9.90713 21.2826 9.93951 21.1932 10.0205C20.9468 10.2547 20.8354 10.6934 20.6679 10.9957C20.6247 11.0631 20.5031 11.1205 20.3679 10.9904C20.0245 10.5286 20.2253 9.87119 20.1826 10.0402C19.8767 10.3795 20.0122 10.9417 20.0813 11.0626C20.1821 11.2612 20.2637 11.3883 20.4599 11.4866C20.6386 11.616 20.7778 11.5352 20.8546 11.4446C21.0344 11.2611 21.0368 10.7919 21.1213 10.6991C21.1805 10.5285 21.3289 10.5579 21.4013 10.6334C21.4714 10.7327 21.5542 10.7973 21.6573 10.8513C21.825 10.997 22.0252 11.0234 22.2226 10.8907C22.3574 10.8162 22.445 10.7194 22.5239 10.5284C22.6086 10.3054 22.5667 9.13646 22.5479 8.48618C22.6746 8.66187 22.7997 8.84136 22.9239 9.02298C22.9785 9.5938 23.0032 10.156 22.9853 10.6951C22.9724 10.8023 23.3652 10.3751 23.3626 10.1727C23.3608 9.99562 23.3629 9.83515 23.3626 9.68574C23.5531 9.98522 23.7376 10.2897 23.9119 10.5979C24.02 10.5416 23.9829 9.93946 23.9146 9.85638C23.7321 9.55488 23.4983 9.22907 23.3173 8.97699C23.2815 8.65884 23.2328 8.28348 23.2106 8.16849C23.1761 7.98916 23.1415 7.7198 23.0893 7.50699C23.0749 7.42389 23.0317 7.15845 23.0453 7.13293C23.0665 7.07354 23.147 7.13483 23.1866 7.06599C23.2459 7.00236 22.981 6.32687 22.8466 6.13409C22.7982 6.04769 22.7108 6.07759 22.6026 6.21809C22.5022 6.31055 22.5389 6.52147 22.5772 6.72209C22.6768 7.2334 22.7656 7.75412 22.8359 8.27349C22.7058 8.08305 22.547 7.85261 22.3906 7.63038C22.3864 7.60895 22.3706 7.53041 22.3706 7.52932C22.3706 7.52014 22.349 7.11105 22.3306 7.01352C22.3273 6.97394 22.3177 6.96255 22.3599 6.96758C22.4046 7.00458 22.4107 7.00658 22.4386 7.01877C22.4837 7.0269 22.5231 6.95182 22.4959 6.88227C22.3563 6.62891 22.2168 6.37441 22.0772 6.12102C22.0604 6.10474 22.0416 6.08759 22.0199 6.08427ZM9.02662 6.09739C8.94929 6.09522 8.86398 6.1424 8.89729 6.23389C8.87789 6.28376 9.04865 6.45233 9.07862 6.54495C9.1055 6.61091 9.05196 6.82329 9.10795 6.84289C9.15943 6.86486 9.23032 6.69587 9.25729 6.5397C9.27221 6.45415 9.26092 6.16136 9.05862 6.10131C9.04826 6.099 9.03766 6.0977 9.02662 6.09739ZM23.8281 6.09907C23.8105 6.10079 23.789 6.12883 23.7561 6.19751C23.677 6.3251 23.6498 6.55356 23.6814 6.75531C23.872 8.02384 24.0135 9.25217 24.0428 10.3765C24.0264 10.4832 24.0216 10.54 23.9708 10.6745C23.8583 10.8164 23.7343 10.9942 23.6174 11.08C23.5006 11.1657 23.2521 11.2475 23.1708 11.311C22.9129 11.4577 22.9116 11.6265 23.1201 11.6326C23.4794 11.5915 23.9046 11.5625 24.1974 11.1273C24.2758 11.0053 24.3681 10.6747 24.3721 10.4723C24.3995 9.28595 24.3567 8.12595 24.1761 7.26852C24.1645 7.185 24.1271 6.99302 24.1414 6.96796C24.1647 6.90924 24.2823 6.97384 24.3241 6.90627C24.3855 6.84455 24.0201 6.38396 23.8921 6.18702C23.8665 6.13756 23.8508 6.09686 23.8281 6.09907ZM20.0601 6.11876C20.0453 6.12128 20.0234 6.14351 19.9828 6.1962C19.8824 6.51925 19.8471 6.78307 19.8855 6.9837C20.1433 8.30813 20.4075 9.51475 20.3655 10.7755C20.4877 10.7763 20.6291 10.5002 20.6895 10.2269C20.7225 9.85043 20.6674 9.6213 20.6575 9.4C20.6476 9.17872 20.403 7.38341 20.3535 7.216C20.2937 6.89943 20.5913 7.17436 20.5588 6.99025C20.4559 6.75814 20.1992 6.42014 20.1188 6.2185C20.0886 6.1645 20.0849 6.11456 20.0601 6.11876ZM10.8855 6.1437C10.8538 6.1491 10.8233 6.1748 10.8122 6.2172C10.8052 6.24497 10.8244 6.29116 10.7989 6.30514C10.7842 6.3197 10.7285 6.30991 10.7308 6.23295C10.7308 6.20844 10.7126 6.18286 10.7015 6.16732C10.6904 6.16017 10.6829 6.15813 10.6628 6.15813C10.6384 6.15911 10.6389 6.16546 10.6255 6.1857C10.6195 6.20628 10.6119 6.22644 10.6119 6.24996C10.6088 6.27735 10.5977 6.28662 10.5772 6.29064C10.5543 6.29064 10.5597 6.2931 10.5412 6.28146C10.5302 6.2696 10.5172 6.26494 10.5172 6.24471C10.5172 6.22375 10.5116 6.1903 10.5052 6.17646C10.4955 6.16384 10.4801 6.15728 10.4625 6.15283C10.3667 6.15317 10.3597 6.2616 10.3652 6.30246C10.358 6.31016 10.3545 6.50234 10.4852 6.55577C10.6607 6.63815 10.9898 6.60332 10.9759 6.32477C10.9759 6.30013 10.9704 6.21739 10.9679 6.19483C10.95 6.15376 10.9169 6.13824 10.8852 6.14364L10.8855 6.1437ZM13.2402 6.14632C13.1796 6.14937 13.126 6.16648 13.0802 6.18963C12.9639 6.29928 12.9366 6.47505 13.0282 6.58469C13.1174 6.62614 13.2063 6.71447 13.1469 6.76319C12.8948 7.02826 12.2386 7.47119 12.2056 7.55199C12.2053 7.55265 12.2044 7.55402 12.2042 7.55462C12.2041 7.5552 12.2042 7.55672 12.2042 7.55724C12.2042 7.5575 12.2042 7.55832 12.2042 7.55856C12.2044 7.55922 12.2051 7.56064 12.2056 7.56118C12.2057 7.56135 12.2067 7.56234 12.2069 7.56249C12.2071 7.56262 12.208 7.56237 12.2082 7.56249C12.2085 7.56262 12.2093 7.56371 12.2096 7.5638C12.2099 7.56388 12.2105 7.56372 12.2109 7.5638C12.211 7.56388 12.2121 7.56502 12.2122 7.56511C12.2456 7.58713 12.6561 7.58661 12.7016 7.56642C12.7019 7.56625 12.7026 7.56528 12.7029 7.56511C12.703 7.56503 12.7041 7.5652 12.7042 7.56511C12.7043 7.56503 12.7041 7.56389 12.7042 7.5638C12.8453 7.51262 13.5149 6.75925 13.5149 6.75925C13.4802 6.73 13.4482 6.70844 13.4136 6.67919C13.3764 6.64752 13.3801 6.61639 13.4136 6.58469C13.5794 6.48969 13.5268 6.28068 13.4402 6.18569C13.3684 6.154 13.3009 6.14328 13.2402 6.14632ZM19.3949 6.14895C19.3772 6.15067 19.3558 6.1774 19.3229 6.24607C19.2437 6.37366 19.19 6.59586 19.1962 6.80387C19.3676 7.97206 19.4202 8.99434 19.5322 10.1626C19.5413 10.2756 19.5245 10.4397 19.4482 10.5051C19.166 10.7952 18.7591 11.1529 18.3162 11.3176C18.2686 11.3702 18.4347 11.5947 18.6495 11.5945C19.0089 11.5535 19.3247 11.3549 19.6176 10.832C19.6959 10.71 19.8335 10.4489 19.8376 10.2466C19.865 9.0602 19.7768 8.13779 19.5962 7.28032C19.5847 7.1968 19.5925 7.09801 19.6069 7.07295C19.6302 7.0456 19.7091 7.07357 19.7509 7.00601C19.8123 6.94428 19.5869 6.4325 19.4589 6.23556C19.4333 6.1861 19.4175 6.14673 19.3949 6.14895ZM9.86015 6.18465C9.81056 6.19036 9.76391 6.2301 9.74149 6.28309C9.73319 6.47045 9.73207 6.65772 9.75349 6.83039C9.84006 7.13324 9.86747 7.39961 9.90949 7.70978C9.92114 8.1252 9.66579 7.88949 9.67749 7.68353C9.73645 7.41603 9.72053 6.9949 9.66815 6.88814C9.62661 6.78142 9.57851 6.75507 9.47749 6.77264C9.39728 6.76781 9.19008 6.99005 9.13215 7.35803C9.13215 7.35803 9.08389 7.54689 9.06282 7.71503C9.03448 7.90507 8.90659 8.03964 8.81748 7.68878C8.74046 7.43377 8.69312 6.80544 8.56415 6.95248C8.52721 7.44308 8.48334 8.30635 8.90681 8.39493C9.41903 8.4434 9.13608 7.54258 9.32148 7.37903C9.35653 7.29822 9.42149 7.29678 9.42682 7.39872V8.16392C9.42213 8.41267 9.58843 8.48659 9.71749 8.53798C9.85179 8.52778 9.94085 8.53139 9.99349 8.66004C10.0145 9.10113 10.0365 9.5433 10.0575 9.98434C10.0575 9.98434 10.368 10.0722 10.3828 9.24015C10.3977 8.7516 10.284 8.34164 10.3508 8.24659C10.3532 8.15321 10.4748 8.14859 10.5588 8.19409C10.6927 8.28706 10.7521 8.40146 10.9602 8.35553C11.2768 8.26968 11.4675 8.11841 11.4722 7.87908C11.4537 7.65167 11.4269 7.42401 11.3268 7.19658C11.3408 7.15523 11.2662 7.04763 11.2802 7.00627C11.337 7.09399 11.4231 7.08671 11.4428 7.00627C11.3889 6.83148 11.305 6.664 11.1695 6.59152C11.0575 6.49437 10.8935 6.51492 10.8335 6.71752C10.8057 6.95099 10.9194 7.2277 11.0922 7.45383C11.1288 7.54218 11.1801 7.68912 11.1575 7.82133C11.0656 7.87293 10.9745 7.85146 10.8975 7.77145C10.8975 7.77145 10.6455 7.58575 10.6455 7.54439C10.7124 7.12292 10.6599 7.07466 10.6228 6.95769C10.5969 6.79623 10.5192 6.7451 10.4562 6.63482C10.3931 6.56903 10.3076 6.56903 10.2668 6.63482C10.1554 6.82489 10.2077 7.23298 10.2882 7.41577C10.3463 7.58387 10.4355 7.68877 10.3935 7.68877C10.3589 7.78376 10.2868 7.76166 10.2348 7.65202C10.1606 7.42541 10.1455 7.08766 10.1455 6.93541C10.1232 6.74665 10.0984 6.34342 9.97215 6.24111C9.93847 6.19596 9.89873 6.18021 9.86015 6.18465ZM11.6588 6.18727C11.6334 6.19044 11.6053 6.20468 11.5721 6.21221C11.4633 6.24633 11.3613 6.339 11.3935 6.51933C11.5222 7.28928 11.6061 7.8769 11.7348 8.64689C11.7546 8.73706 11.6778 8.85591 11.5788 8.84376C11.4105 8.73166 11.3687 8.50463 11.0815 8.51432C10.8736 8.51678 10.6364 8.73951 10.6068 8.95402C10.5722 9.1245 10.5598 9.30934 10.6068 9.45802C10.753 9.63099 10.928 9.61255 11.0815 9.57352C11.2077 9.52238 11.3116 9.39993 11.3562 9.42915C11.3563 9.42927 11.3574 9.42898 11.3575 9.42915C11.3576 9.42931 11.3574 9.43028 11.3575 9.43046C11.385 9.47781 11.3549 9.8783 10.7628 10.1878C10.3989 10.3486 10.1093 10.387 9.95346 10.0946C9.85691 9.91181 9.96048 9.21576 9.72279 9.37662C9.01986 11.1602 11.3696 11.4092 11.6321 9.45012C11.6491 9.39485 11.7009 9.3394 11.7375 9.35299C11.7535 9.35972 11.7682 9.38116 11.7735 9.42124C11.719 11.1951 9.95561 11.3167 9.65613 10.7587C9.5819 10.6272 9.55957 10.3344 9.55213 10.1589C9.53855 10.0527 9.51149 9.9915 9.48013 9.96727C9.40868 9.91442 9.31268 10.0522 9.29213 10.2915C9.26242 10.4839 9.2708 10.5368 9.2708 10.722C9.36485 12.123 11.634 11.521 12.0028 10.3636C12.1853 9.76531 11.9991 9.31394 12.0601 9.25854C12.0607 9.2581 12.0622 9.25761 12.0628 9.25723C12.0634 9.2569 12.0648 9.25621 12.0655 9.25592C12.0661 9.25567 12.0674 9.25482 12.0681 9.25461C12.0702 9.25406 12.0737 9.25333 12.0761 9.2533C12.3014 9.49214 12.6175 9.28365 12.6868 9.2008C12.7165 9.15935 12.7908 9.13277 12.8428 9.18636C13.0185 9.31069 13.3265 9.25209 13.3908 9.0328C13.4279 8.81838 13.4593 8.59764 13.4668 8.3687C13.3523 8.40368 13.2599 8.42987 13.2228 8.46845C13.2139 8.47796 13.2074 8.48852 13.2054 8.49995C13.1955 8.56332 13.186 8.62689 13.1761 8.69026C13.175 8.6955 13.1733 8.70034 13.1708 8.7047C13.1659 8.71247 13.1578 8.71965 13.1494 8.72438C13.109 8.74613 13.0384 8.73369 13.0348 8.67582C12.9803 8.43215 12.7563 8.40046 12.6201 8.7782C12.5285 8.85126 12.3615 8.86553 12.3441 8.75588C12.3664 8.50248 12.2627 8.46846 12.0548 8.58788C11.9879 8.08594 11.9216 7.60672 11.8548 7.10478C11.9414 7.10232 12.0209 7.16417 12.1001 7.06672C12.0144 6.80427 11.833 6.27027 11.7308 6.22017C11.73 6.21979 11.7289 6.21916 11.7281 6.21886C11.7235 6.21338 11.718 6.20833 11.7134 6.20442C11.7116 6.20284 11.7086 6.2005 11.7068 6.19917C11.7049 6.19789 11.702 6.19628 11.7001 6.19523C11.696 6.19302 11.6909 6.19121 11.6868 6.18998C11.6775 6.18738 11.6684 6.18616 11.6588 6.18736L11.6588 6.18727ZM18.6707 6.19121C18.5807 6.18858 18.4812 6.24437 18.52 6.35527C18.4974 6.41576 18.7132 6.62096 18.748 6.73327C18.8106 6.90582 18.7002 7.07042 18.7653 7.09421C18.8253 7.12084 18.9087 6.91607 18.94 6.72671C18.9762 6.57363 18.8652 6.25992 18.708 6.19516C18.6959 6.19236 18.6835 6.19158 18.6707 6.19121ZM13.208 6.38021C13.249 6.3761 13.2985 6.41314 13.3227 6.46552C13.3486 6.52139 13.3356 6.57478 13.2934 6.58496C13.2512 6.59514 13.1966 6.55814 13.1707 6.50227C13.1449 6.4464 13.1578 6.3917 13.2 6.38152C13.2027 6.38088 13.2053 6.38048 13.208 6.38021ZM23.3414 6.63877C23.2594 6.63594 23.17 6.69722 23.2054 6.81727C23.1848 6.88276 23.3803 7.10519 23.412 7.22677C23.4406 7.3133 23.3686 7.59216 23.428 7.61789C23.4827 7.64672 23.5595 7.42523 23.588 7.2202C23.6039 7.10798 23.5194 6.71415 23.376 6.64401C23.365 6.64099 23.3531 6.63917 23.3414 6.63877ZM17.7388 6.77527C17.7463 6.80818 17.7538 6.84131 17.7588 6.87502C17.7756 6.94775 17.7901 7.01999 17.8055 7.09158C17.7408 7.00385 17.6872 6.93297 17.6641 6.90783C17.5177 6.73651 17.6674 6.79533 17.7388 6.77527ZM19.0295 7.40002C18.9978 7.40542 18.9672 7.43243 18.9561 7.47483C18.9492 7.5026 18.9697 7.54748 18.9441 7.56145C18.9295 7.57602 18.8725 7.56754 18.8748 7.49058C18.8748 7.46607 18.8565 7.43918 18.8455 7.42364C18.8344 7.41648 18.8269 7.41445 18.8068 7.41445C18.7823 7.41543 18.7829 7.42178 18.7695 7.44201C18.7638 7.46263 18.7561 7.48296 18.7561 7.50632C18.7531 7.53371 18.7433 7.54299 18.7228 7.54701C18.6999 7.54701 18.704 7.54946 18.6855 7.53782C18.6745 7.52597 18.6615 7.52131 18.6615 7.50107C18.6615 7.48012 18.6559 7.44667 18.6495 7.43282C18.6398 7.42021 18.6244 7.41496 18.6068 7.41051C18.5109 7.41085 18.5053 7.51797 18.5108 7.55882C18.5036 7.56653 18.4987 7.76002 18.6295 7.81345C18.805 7.89583 19.1354 7.85969 19.1215 7.58114C19.1215 7.5565 19.1146 7.47376 19.1121 7.4512C19.0942 7.41013 19.0612 7.39462 19.0295 7.40002ZM13.1364 7.45777C13.1147 7.4556 13.0863 7.46342 13.0537 7.48271C12.8985 7.56534 12.8384 7.81047 12.935 7.9539C13.0253 8.08023 13.168 8.03396 13.187 8.03396C13.3391 8.05267 13.4297 7.75309 13.4297 7.75309C13.4297 7.75309 13.4343 7.66885 13.2537 7.8279C13.1777 7.84191 13.1674 7.8149 13.1484 7.77277C13.1325 7.69484 13.1359 7.61582 13.1724 7.53783C13.1892 7.49108 13.1724 7.46138 13.1364 7.45777ZM21.467 7.49583C21.3809 7.49171 21.2892 7.54663 21.2657 7.66252C21.266 7.73089 21.297 7.76846 21.291 7.83052C21.282 7.866 21.2449 7.88932 21.1564 7.84758C21.1702 7.83505 21.099 7.73602 21.099 7.73602C21.03 7.69462 20.9377 7.73827 20.8777 7.77671C20.8447 7.83581 20.8202 7.9371 20.8577 8.04052C20.9568 8.22082 21.2969 8.52848 21.459 8.53142C21.462 8.36885 21.4781 8.15268 21.487 8.01822C21.4909 7.96746 21.503 7.91152 21.5524 7.89878C21.6017 7.88608 21.6874 7.94768 21.6884 7.89484C21.6794 7.79142 21.6584 7.63881 21.599 7.56672C21.5686 7.52238 21.5187 7.4983 21.467 7.49583ZM14.5712 8.06153C14.5689 8.06236 14.5667 8.06428 14.5646 8.06546C14.5635 8.06608 14.5616 8.06735 14.5606 8.06809C14.5434 8.08077 14.5232 8.11004 14.4779 8.14159C14.4016 8.22706 14.3879 8.28658 14.3926 8.4579C14.3969 8.47602 14.5375 8.86076 14.6566 9.1312C14.7369 9.41229 14.8111 9.73415 14.7566 10.0381C14.5686 10.44 14.1907 10.8004 13.8259 10.9963C13.6401 11.0548 13.4796 11.0349 13.4366 10.9949C13.4363 10.9946 13.4356 10.994 13.4353 10.9936C13.3285 10.923 13.3261 10.7973 13.3326 10.7758C13.3326 10.7756 13.3326 10.7746 13.3326 10.7744C13.3329 10.7742 13.3337 10.7734 13.3339 10.7731C13.6417 10.5621 13.9933 10.3913 14.2686 9.82158C14.3499 9.60387 14.3747 9.47314 14.2939 9.13648C14.2624 9.01104 14.2235 8.90781 14.1366 8.81886C14.1368 8.8186 14.1377 8.81778 14.1379 8.81755C14.1903 8.79287 14.3263 8.89145 14.3472 8.82936C14.3151 8.66862 14.2045 8.45283 14.0793 8.34241C13.9696 8.24436 13.8503 8.23302 13.7499 8.32272C13.6369 8.38466 13.6128 8.60709 13.6672 8.80177C13.7277 8.94833 13.891 8.97405 14.0073 9.26902C14.0073 9.26932 14.0072 9.27024 14.0073 9.27033C14.0097 9.28883 14.0472 9.49052 13.9886 9.57221C13.9411 9.71813 13.3305 10.1921 13.2872 10.2206C13.2868 10.2211 13.2837 10.2228 13.2832 10.2232C13.283 10.2235 13.2821 10.2243 13.2819 10.2245C13.2818 10.2246 13.2809 10.2256 13.2806 10.2259C13.2804 10.226 13.2794 10.227 13.2792 10.2272C13.2791 10.2272 13.2781 10.2272 13.2779 10.2272C13.2778 10.2272 13.2769 10.2272 13.2766 10.2272C13.2763 10.227 13.2755 10.2261 13.2752 10.2259C13.2753 10.2257 13.2752 10.2247 13.2752 10.2245C13.275 10.2241 13.2742 10.2224 13.2739 10.2219C13.2721 10.2101 13.2753 10.18 13.2739 10.1314C13.2699 10.0426 13.3072 9.84164 13.3046 9.80717C13.3046 9.80704 13.3046 9.80599 13.3046 9.80586C13.3043 9.8056 13.3035 9.80478 13.3032 9.80455C13.3033 9.80442 13.3032 9.80338 13.3032 9.80323C13.303 9.80324 13.302 9.80324 13.3019 9.80323C13.1001 9.93151 13.0334 10.3247 12.9966 10.4411C12.4857 10.7886 11.9054 11.0472 11.5713 11.3992C11.3972 11.6668 12.7704 11.092 12.9299 11.0225C12.9313 11.0236 12.9327 11.0252 12.9339 11.0265C12.9643 11.0593 12.9669 11.1739 13.0579 11.2772C13.2007 11.4675 13.5041 11.5847 13.7993 11.5121C14.2943 11.336 14.5796 11.0038 14.8699 10.6354C14.9114 10.5759 14.9765 10.5291 15.0366 10.575C15.2362 11.0147 15.8115 11.3276 16.5553 11.3599C16.7274 11.1538 16.6451 11.0525 16.5753 11.0094C16.5538 10.9954 16.2054 10.8617 16.1513 10.7286C16.1172 10.6047 16.2 10.4948 16.366 10.4123C16.8435 10.3554 17.313 10.2922 17.7673 10.1484C17.7719 9.9982 17.8618 9.77352 17.922 9.67595C17.9637 9.60824 17.9906 9.60154 18.0006 9.59195C18.001 9.59161 18.0017 9.59098 18.002 9.59063C18.0021 9.59047 18.0032 9.58951 18.0033 9.58932C18.0036 9.58911 18.0044 9.58825 18.0046 9.58801C18.0046 9.58756 18.0046 9.58586 18.0046 9.58539C18.0049 9.58242 18.0046 9.5773 18.0033 9.57226L17.926 9.52764L16.402 9.52108C16.3831 9.51394 16.3691 9.50678 16.3606 9.50008C16.36 9.49954 16.3585 9.49798 16.358 9.49745C16.3577 9.4972 16.3569 9.4964 16.3566 9.49614C16.3564 9.49589 16.3555 9.49509 16.3553 9.49483C16.3551 9.49437 16.3542 9.49266 16.354 9.49221C16.3538 9.49208 16.3528 9.49103 16.3526 9.4909C16.3526 9.49077 16.3526 9.48972 16.3526 9.48959C16.3525 9.48946 16.3515 9.48841 16.3513 9.48827C16.3513 9.48815 16.3513 9.4871 16.3513 9.48696C16.3513 9.48684 16.3513 9.48579 16.3513 9.48565C16.3513 9.48553 16.3513 9.48448 16.3513 9.48434C16.3513 9.48413 16.3513 9.48323 16.3513 9.48303C16.3513 9.48295 16.3513 9.482 16.3513 9.48172C16.3513 9.4816 16.3513 9.48055 16.3513 9.48041C16.3513 9.48029 16.3513 9.47924 16.3513 9.4791C16.3513 9.47898 16.3513 9.47793 16.3513 9.47779C16.3516 9.47754 16.3524 9.47672 16.3526 9.47648C16.353 9.47579 16.3535 9.47454 16.354 9.47386C16.3614 9.46399 16.3794 9.45468 16.402 9.44629C16.7659 9.39749 17.4124 9.29316 17.4553 8.6811C17.4486 8.36228 17.3167 8.15353 16.9193 8.0957C16.6273 8.11793 16.4191 8.39596 16.4526 8.7021C16.4387 8.78452 16.481 8.94627 16.3953 8.9646C15.8352 9.01497 15.2238 9.36045 15.2033 9.6077C15.2032 9.60768 15.2021 9.60771 15.202 9.6077C15.2017 9.60795 15.2009 9.60877 15.2006 9.60901C15.2002 9.60922 15.1987 9.60998 15.198 9.61032C15.1975 9.61031 15.1958 9.61034 15.1953 9.61032C15.1944 9.61061 15.1922 9.6114 15.1913 9.61163C15.191 9.61165 15.1903 9.61163 15.19 9.61163C15.1892 9.61162 15.1878 9.61163 15.1873 9.61163C15.187 9.61162 15.1863 9.61162 15.186 9.61163C15.1854 9.61164 15.1838 9.61165 15.1833 9.61163C15.1819 9.61134 15.1792 9.61063 15.178 9.61032C15.1415 9.60036 15.0946 9.54118 15.102 9.45807C15.0806 9.03064 14.9393 8.54696 14.718 8.17447C14.639 8.09673 14.6046 8.06523 14.582 8.06159C14.5812 8.06151 14.58 8.06163 14.5793 8.06159C14.5784 8.06159 14.5765 8.0616 14.5753 8.06159C14.5751 8.0616 14.5742 8.06157 14.574 8.06159C14.5738 8.06159 14.5728 8.0616 14.5726 8.06159C14.5725 8.06163 14.5715 8.06155 14.5713 8.06159L14.5712 8.06153ZM16.0299 8.28728C15.9982 8.29268 15.9677 8.31838 15.9566 8.36078C15.9496 8.38855 15.9701 8.43474 15.9446 8.44872C15.9299 8.46328 15.8729 8.45481 15.8753 8.37784C15.8753 8.35333 15.857 8.32644 15.8459 8.3109C15.8348 8.30375 15.8287 8.30172 15.8086 8.30172C15.7841 8.30269 15.7833 8.30904 15.7699 8.32928C15.7642 8.34989 15.7566 8.37022 15.7566 8.39359C15.7535 8.42098 15.7437 8.43025 15.7233 8.43428C15.7004 8.43428 15.7058 8.43673 15.6873 8.42509C15.6762 8.41324 15.6619 8.40857 15.6619 8.38834C15.6619 8.36738 15.6577 8.33393 15.6513 8.32009C15.6415 8.30747 15.6248 8.30222 15.6073 8.29778C15.5114 8.29811 15.5058 8.40524 15.5113 8.44609C15.5041 8.45379 15.4992 8.64729 15.6299 8.70071C15.8054 8.78309 16.2237 8.73459 16.1219 8.4684C16.1219 8.44376 16.1151 8.36103 16.1126 8.33846C16.0947 8.2974 16.0616 8.28188 16.0299 8.28728ZM21.9166 8.52484C21.9122 8.52406 21.9072 8.52436 21.902 8.52615C21.902 8.52615 21.0888 9.09563 21.0687 9.11545C20.988 9.18602 21.0284 9.43417 21.0687 9.40551C21.1269 9.42757 21.9456 8.88144 21.93 8.81751C21.9657 8.81957 21.9828 8.53658 21.9166 8.52484ZM16.7984 8.60926C16.8315 8.60579 16.8751 8.61688 16.917 8.64076C16.9777 8.67532 17.0151 8.72752 17.0104 8.76545C17.0102 8.76648 17.0106 8.76838 17.0104 8.76938C17.0101 8.77038 17.008 8.77234 17.0077 8.77332C17.0073 8.77429 17.0067 8.77631 17.0064 8.77725C17.0061 8.77788 17.0053 8.77927 17.005 8.77988C17.0047 8.78048 17.004 8.78191 17.0037 8.7825C17.0017 8.78571 16.9984 8.78907 16.9957 8.79169C16.9665 8.81852 16.8992 8.8147 16.8357 8.77857C16.7755 8.74432 16.7384 8.69171 16.7424 8.65388C16.7425 8.65284 16.7435 8.65095 16.7437 8.64994C16.7447 8.64525 16.7466 8.64096 16.749 8.63682C16.7499 8.63533 16.7507 8.63293 16.7517 8.63157C16.7519 8.63132 16.7528 8.63052 16.753 8.63026C16.7548 8.6282 16.7575 8.62544 16.7597 8.62369C16.7694 8.61621 16.7831 8.61086 16.7984 8.60926ZM9.67686 8.75363C9.25549 8.76121 8.63844 9.29732 8.62218 9.59494C9.06681 9.38475 9.50355 9.18245 9.95551 8.96494C9.88258 8.85775 9.9511 8.76117 9.67686 8.75363ZM11.0422 8.94001C11.0835 8.94047 11.1271 8.96054 11.1502 9.01745C11.171 9.06965 11.1512 9.12423 11.1262 9.15132C11.1261 9.15153 11.1263 9.15243 11.1262 9.15263C11.1258 9.15324 11.1253 9.15469 11.1249 9.15526C11.1072 9.17769 11.0451 9.16838 11.0009 9.16838C10.9474 9.16606 10.921 9.15741 10.8889 9.11457C10.8735 9.06695 10.9203 9.02015 10.9409 8.98463C10.9411 8.9843 10.942 8.98365 10.9422 8.98332C10.9444 8.98001 10.9481 8.97605 10.9515 8.97282C10.9675 8.9584 10.9952 8.94491 11.0249 8.94132C11.0306 8.94063 11.0363 8.93994 11.0422 8.94001ZM21.7584 9.10507C21.6834 9.11416 21.6122 9.1839 21.645 9.29538C21.6245 9.36087 21.7467 9.58986 21.7784 9.71144C21.8069 9.79797 21.7416 10.0427 21.801 10.0684C21.8557 10.0973 21.9994 9.92315 21.9944 9.70488C22.0102 9.59266 21.9537 9.17917 21.8104 9.10898C21.7939 9.10445 21.7756 9.10297 21.7584 9.10507ZM12.6571 9.50932C12.5909 9.51388 12.5318 9.54872 12.5585 9.64057C12.5545 9.7072 12.7456 9.78822 12.7571 9.94244C12.7844 10.006 12.7163 10.2096 12.7731 10.2286C12.8253 10.2497 12.8978 10.0878 12.9251 9.93719C12.9403 9.85468 12.8596 9.56609 12.7225 9.51459C12.7014 9.51013 12.6792 9.5078 12.6571 9.50932ZM15.3811 9.87551C15.3862 9.87517 15.3906 9.87554 15.3958 9.87551C15.3967 9.8755 15.3976 9.8755 15.3985 9.87551C15.5683 9.92093 15.8185 9.92564 16.0358 9.9477C16.2128 9.95875 16.3002 10.0951 16.1345 10.1524C15.971 10.2076 15.8139 10.2506 15.8132 10.4832C15.8347 10.5984 15.8301 10.6589 15.8118 10.6866C15.8104 10.6887 15.8081 10.6915 15.8065 10.6932C15.8063 10.6935 15.8054 10.6943 15.8052 10.6945C15.8049 10.6947 15.8041 10.6956 15.8038 10.6958C15.8036 10.696 15.8027 10.6969 15.8025 10.6971L15.8012 10.6984C15.8007 10.6987 15.799 10.6995 15.7985 10.6998C15.7961 10.7012 15.7931 10.7028 15.7905 10.7037C15.7882 10.7045 15.7849 10.7046 15.7825 10.705C15.7436 10.7106 15.6872 10.6741 15.6452 10.6525C15.5444 10.5812 15.2615 10.4087 15.2212 10.0382C15.2154 9.95466 15.279 9.88259 15.3811 9.87551ZM8.7277 10.1603C8.71709 10.1607 8.69586 10.1918 8.6677 10.2273C8.41702 10.6204 8.39473 11.2072 8.53303 11.3823C8.60653 11.465 8.72771 11.5014 8.81703 11.4754C8.97452 11.4082 9.04374 11.0942 9.00636 10.9793C8.95381 10.8984 8.91216 10.8855 8.8597 10.9544C8.74888 11.1759 8.70275 11.0244 8.69303 10.9006C8.67605 10.6659 8.69914 10.4497 8.72503 10.2785C8.73882 10.1908 8.73831 10.16 8.7277 10.1604L8.7277 10.1603ZM17.2679 10.6765C17.2492 10.6755 17.2293 10.6784 17.2092 10.6883C17.2052 10.6883 17.0297 10.8051 16.9732 10.8865C16.9387 10.9123 16.9426 10.9348 16.9532 10.9797C16.9801 11.0405 17.0274 11.0214 17.0812 10.9928C17.1525 10.9832 17.187 11.0292 17.1812 11.1136C17.1483 11.2187 17.1959 11.2579 17.1959 11.2645C17.1959 11.2711 17.2646 11.3292 17.3452 11.2829C17.5154 11.2189 17.6215 11.1567 17.8598 11.1057C17.9224 11.1045 17.9188 10.9396 17.8198 10.9338C17.6907 10.9401 17.5716 10.9466 17.4425 11.0466C17.3631 11.0647 17.3495 11.0171 17.3318 10.9744C17.3117 10.8686 17.3773 10.7939 17.3638 10.7146C17.3674 10.7181 17.3238 10.6794 17.2679 10.6765ZM22.736 10.8773C22.7043 10.8783 22.671 10.8826 22.6227 10.8865C22.5704 10.8974 22.5522 10.92 22.5427 10.9823C22.5464 11.0769 22.6052 11.0722 22.6653 11.1096C22.7002 11.1533 22.7228 11.1928 22.6627 11.2645C22.6057 11.3159 22.565 11.3443 22.508 11.3957C22.4811 11.441 22.4643 11.5104 22.5467 11.5322C22.6987 11.5743 23.0507 11.3493 23.0507 11.3446C23.1077 11.3025 23.0888 11.2225 23.084 11.2225C23.0508 11.1851 22.9757 11.2075 22.9253 11.2015C22.9013 11.2015 22.8225 11.19 22.86 11.1214C22.8913 11.0788 22.9028 11.0533 22.924 11.0007C22.9477 10.9492 22.9269 10.9146 22.8413 10.8865C22.7978 10.8787 22.7677 10.8763 22.736 10.8773ZM20.4516 15.4301C20.4513 15.4303 20.4506 15.4312 20.4503 15.4314C20.1974 15.4953 20.2053 15.7538 20.3676 15.8672C17.697 15.8672 13.5986 15.8225 12.7196 15.8225C12.2279 15.8225 10.6722 15.7648 10.6423 15.7648C10.9759 16.2451 11.4592 16.343 12.0916 16.3528C13.2779 16.3528 18.7741 16.3384 20.3382 16.3384C20.227 16.5327 20.3483 16.8455 20.4356 16.9028C20.4374 16.9039 20.4404 16.9058 20.4422 16.9067C20.4455 16.9083 20.4498 16.9098 20.4529 16.9106C20.4539 16.9109 20.4559 16.9105 20.4569 16.9106C20.5605 16.9347 20.606 16.8609 20.6409 16.8069C20.8089 16.8215 21.7544 16.835 21.8409 16.8056C21.8412 16.8055 21.842 16.8044 21.8422 16.8043C21.9008 16.8891 21.9589 16.9692 22.0702 16.9553C22.2652 16.9141 22.4187 16.8932 22.4236 16.5038C22.4236 16.5038 22.4036 15.8401 21.9609 15.8816C21.8561 15.8972 21.5622 15.9263 21.5622 15.9263C21.2221 15.8864 20.9726 15.8824 20.5902 15.8685C20.6255 15.8244 20.6879 15.6458 20.6116 15.5811C20.5917 15.5648 20.562 15.5557 20.5209 15.5588C20.5206 15.5588 20.5199 15.5588 20.5196 15.5588C20.519 15.5587 20.5175 15.5589 20.5169 15.5588C20.5166 15.5587 20.5158 15.5575 20.5156 15.5575C20.5145 15.5571 20.5126 15.5568 20.5116 15.5562C20.5095 15.5548 20.5068 15.5518 20.5049 15.5496C20.5044 15.549 20.5027 15.5476 20.5022 15.547C20.4829 15.5192 20.4723 15.4513 20.4596 15.4341C20.4594 15.4339 20.4584 15.433 20.4582 15.4328C20.4581 15.4327 20.4571 15.4316 20.4569 15.4315C20.4565 15.4312 20.4547 15.4303 20.4542 15.4302C20.4541 15.4301 20.4531 15.4302 20.4529 15.4302C20.4527 15.4302 20.4517 15.4301 20.4516 15.4302L20.4516 15.4301ZM20.633 16.3791C20.6334 16.3788 20.6338 16.3793 20.6343 16.3791C21.0239 16.3978 21.39 16.3827 21.7797 16.4014C21.8414 16.453 21.8105 16.5714 21.7703 16.593C21.7685 16.5939 21.7655 16.5951 21.7636 16.5956C21.7622 16.596 21.7598 16.5956 21.7583 16.5956C21.7568 16.5956 21.7545 16.596 21.753 16.5956C21.6263 16.5925 21.553 16.5896 21.4263 16.5864C21.4261 16.5802 21.4254 16.5735 21.4237 16.5681C21.3936 16.4805 21.1762 16.4863 21.125 16.5549C21.1243 16.5559 21.123 16.5579 21.1223 16.5589C21.1215 16.5602 21.1203 16.5627 21.1197 16.5641C21.1188 16.5659 21.1176 16.5688 21.117 16.5707C21.1162 16.5733 21.116 16.5771 21.1157 16.5799C21.1153 16.583 21.114 16.5871 21.1143 16.5904C20.9433 16.6106 20.7894 16.5848 20.6183 16.5786C20.5681 16.5171 20.574 16.4058 20.633 16.3791Z" fill="white"/>
    </g>
    <path d="M42.858 12.422H39.876V15.446H38.686V12.422H35.718V11.344H38.686V8.306H39.876V11.344H42.858V12.422ZM46.5626 14.284C46.656 14.816 46.8706 15.2267 47.2066 15.516C47.552 15.8053 48.014 15.95 48.5926 15.95C49.3673 15.95 49.9366 15.6467 50.3006 15.04C50.674 14.4333 50.8513 13.4113 50.8326 11.974C50.6366 12.394 50.31 12.7253 49.8526 12.968C49.3953 13.2013 48.8866 13.318 48.3266 13.318C47.7013 13.318 47.1413 13.192 46.6466 12.94C46.1613 12.6787 45.7786 12.3007 45.4986 11.806C45.2186 11.3113 45.0786 10.714 45.0786 10.014C45.0786 9.01533 45.368 8.21267 45.9466 7.606C46.5253 6.99 47.3466 6.682 48.4106 6.682C49.7173 6.682 50.632 7.10667 51.1546 7.956C51.6866 8.80533 51.9526 10.07 51.9526 11.75C51.9526 12.926 51.8453 13.8967 51.6306 14.662C51.4253 15.4273 51.0706 16.0107 50.5666 16.412C50.072 16.8133 49.3906 17.014 48.5226 17.014C47.5706 17.014 46.8286 16.7573 46.2966 16.244C45.7646 15.7307 45.4613 15.0773 45.3866 14.284H46.5626ZM48.5366 12.24C49.162 12.24 49.6753 12.0487 50.0766 11.666C50.478 11.274 50.6786 10.7467 50.6786 10.084C50.6786 9.384 50.4826 8.81933 50.0906 8.39C49.6986 7.96067 49.148 7.746 48.4386 7.746C47.7853 7.746 47.2626 7.95133 46.8706 8.362C46.488 8.77267 46.2966 9.314 46.2966 9.986C46.2966 10.6673 46.488 11.2133 46.8706 11.624C47.2533 12.0347 47.8086 12.24 48.5366 12.24ZM59.385 9.286C59.1797 8.25 58.5403 7.732 57.467 7.732C56.6363 7.732 56.0157 8.054 55.605 8.698C55.1943 9.33267 54.9937 10.3827 55.003 11.848C55.2177 11.3627 55.5723 10.9847 56.067 10.714C56.571 10.434 57.131 10.294 57.747 10.294C58.7083 10.294 59.4737 10.5927 60.043 11.19C60.6217 11.7873 60.911 12.6133 60.911 13.668C60.911 14.3027 60.785 14.872 60.533 15.376C60.2903 15.88 59.917 16.2813 59.413 16.58C58.9183 16.8787 58.3163 17.028 57.607 17.028C56.6457 17.028 55.8943 16.8133 55.353 16.384C54.8117 15.9547 54.4337 15.362 54.219 14.606C54.0043 13.85 53.897 12.9167 53.897 11.806C53.897 8.38067 55.0917 6.668 57.481 6.668C58.3957 6.668 59.1143 6.91533 59.637 7.41C60.1597 7.90467 60.4677 8.53 60.561 9.286H59.385ZM57.481 11.372C57.0797 11.372 56.7017 11.456 56.347 11.624C55.9923 11.7827 55.703 12.03 55.479 12.366C55.2643 12.6927 55.157 13.094 55.157 13.57C55.157 14.2793 55.3623 14.858 55.773 15.306C56.1837 15.7447 56.7717 15.964 57.537 15.964C58.1903 15.964 58.7083 15.7633 59.091 15.362C59.483 14.9513 59.679 14.4007 59.679 13.71C59.679 12.982 59.4923 12.4127 59.119 12.002C58.7457 11.582 58.1997 11.372 57.481 11.372ZM68.2717 9.286C68.0664 8.25 67.4271 7.732 66.3537 7.732C65.5231 7.732 64.9024 8.054 64.4917 8.698C64.0811 9.33267 63.8804 10.3827 63.8897 11.848C64.1044 11.3627 64.4591 10.9847 64.9537 10.714C65.4577 10.434 66.0177 10.294 66.6337 10.294C67.5951 10.294 68.3604 10.5927 68.9297 11.19C69.5084 11.7873 69.7977 12.6133 69.7977 13.668C69.7977 14.3027 69.6717 14.872 69.4197 15.376C69.1771 15.88 68.8037 16.2813 68.2997 16.58C67.8051 16.8787 67.2031 17.028 66.4937 17.028C65.5324 17.028 64.7811 16.8133 64.2397 16.384C63.6984 15.9547 63.3204 15.362 63.1057 14.606C62.8911 13.85 62.7837 12.9167 62.7837 11.806C62.7837 8.38067 63.9784 6.668 66.3677 6.668C67.2824 6.668 68.0011 6.91533 68.5237 7.41C69.0464 7.90467 69.3544 8.53 69.4477 9.286H68.2717ZM66.3677 11.372C65.9664 11.372 65.5884 11.456 65.2337 11.624C64.8791 11.7827 64.5897 12.03 64.3657 12.366C64.1511 12.6927 64.0437 13.094 64.0437 13.57C64.0437 14.2793 64.2491 14.858 64.6597 15.306C65.0704 15.7447 65.6584 15.964 66.4237 15.964C67.0771 15.964 67.5951 15.7633 67.9777 15.362C68.3697 14.9513 68.5657 14.4007 68.5657 13.71C68.5657 12.982 68.3791 12.4127 68.0057 12.002C67.6324 11.582 67.0864 11.372 66.3677 11.372Z" fill="white"/>
    <defs>
    <clipPath id="clip0_1_993">
    <rect x="0.5" y="1" width="32" height="21" rx="2" fill="white"/>
    </clipPath>
    </defs>
    </svg>
    