<svg width="11" height="12" viewBox="0 0 11 12" fill="none" xmlns="http://www.w3.org/2000/svg">
<path d="M9.8312 6.75163V7.20996C9.8312 7.33371 9.73495 7.43454 9.60661 7.43913H8.93745C8.69453 7.43913 8.47453 7.26038 8.4562 7.02204C8.44245 6.87996 8.49745 6.74704 8.58911 6.65538C8.67161 6.56829 8.7862 6.52246 8.90995 6.52246H9.60203C9.73495 6.52704 9.8312 6.62788 9.8312 6.75163Z" fill="#51A717"/>
<path d="M8.24543 6.31654C8.01626 6.54112 7.90626 6.8757 7.99793 7.22404C8.11709 7.65029 8.53417 7.9207 8.97417 7.9207H9.37293C9.62501 7.9207 9.83126 8.12695 9.83126 8.37904V8.46612C9.83126 9.41487 9.05668 10.1895 8.10793 10.1895H2.84626C1.89751 10.1895 1.12292 9.41487 1.12292 8.46612V5.38154C1.12292 4.81779 1.39334 4.3182 1.81042 4.00654C2.09917 3.78654 2.45667 3.6582 2.84626 3.6582H8.10793C9.05668 3.6582 9.83126 4.43279 9.83126 5.38154V5.5832C9.83126 5.83529 9.62501 6.04154 9.37293 6.04154H8.90543C8.64876 6.04154 8.41501 6.14237 8.24543 6.31654Z" fill="#51A717"/>
<path d="M7.42499 2.70949C7.54874 2.83324 7.44332 3.02574 7.26915 3.02574L3.74915 3.02116C3.54749 3.02116 3.44207 2.77366 3.58874 2.63158L4.33124 1.88449C4.95915 1.26116 5.97665 1.26116 6.60457 1.88449L7.40665 2.69574C7.41124 2.70033 7.4204 2.70491 7.42499 2.70949Z" fill="#51A717"/>
</svg>
