<svg width="24" height="24" viewBox="0 0 24 24" fill="none" xmlns="http://www.w3.org/2000/svg">
    <g clip-path="url(#clip0_9_1373)">
    <path fill-rule="evenodd" clip-rule="evenodd" d="M5.55279 5.65836C6.06096 4.64201 7.09975 4 8.23607 4H15.7639C16.9002 4 17.939 4.64201 18.4472 5.65836L19.8326 8.4292C20.0766 8.32868 20.3173 8.22126 20.5532 8.10535C21.0471 7.85867 21.6475 8.05891 21.8944 8.55276C22.1414 9.04674 21.9412 9.64741 21.4472 9.8944C21.2061 10.0018 20.9645 10.1063 20.7217 10.2073L21.6833 12.1305C21.8916 12.5471 22 13.0064 22 13.4721V16C22 16.8885 21.6137 17.6868 21 18.2361V19.5C21 20.3284 20.3284 21 19.5 21C18.6716 21 18 20.3284 18 19.5V19H6V19.5C6 20.3284 5.32843 21 4.5 21C3.67157 21 3 20.3284 3 19.5V18.2361C2.38625 17.6868 2 16.8885 2 16V13.4721C2 13.0064 2.10844 12.5471 2.31672 12.1305L3.27037 10.2232C3.02889 10.1209 2.79023 10.0122 2.55528 9.89564C2.06661 9.65198 1.86107 9.04179 2.10558 8.55276C2.3525 8.05891 2.95292 7.85866 3.44683 8.10535C3.68313 8.22152 3.92369 8.32893 4.1673 8.42934L5.55279 5.65836ZM9 14.5C9 15.3284 8.32843 16 7.5 16C6.67157 16 6 15.3284 6 14.5C6 13.6716 6.67157 13 7.5 13C8.32843 13 9 13.6716 9 14.5ZM16.5 16C17.3284 16 18 15.3284 18 14.5C18 13.6716 17.3284 13 16.5 13C15.6716 13 15 13.6716 15 14.5C15 15.3284 15.6716 16 16.5 16ZM7.34166 6.55279C7.51105 6.214 7.85731 6 8.23608 6H15.7639C16.1427 6 16.489 6.214 16.6584 6.55279L17.9274 9.09084C16.3801 9.55496 14.295 9.99998 12 9.99998C9.70508 9.99998 7.61997 9.55495 6.07263 9.09084L7.34166 6.55279Z" fill="#9A328A"/>
    </g>
    <defs>
    <clipPath id="clip0_9_1373">
    <rect width="24" height="24" fill="white"/>
    </clipPath>
    </defs>
    </svg>
    