<svg width="21" height="20" viewBox="0 0 21 20" fill="none" xmlns="http://www.w3.org/2000/svg">
<mask id="path-1-inside-1_705_1927" fill="white">
<path fill-rule="evenodd" clip-rule="evenodd" d="M11.093 19.2579L11.082 19.2599L11.011 19.2949L10.991 19.2989L10.977 19.2949L10.906 19.2599C10.8953 19.2566 10.8873 19.2583 10.882 19.2649L10.878 19.2749L10.861 19.7029L10.866 19.7229L10.876 19.7359L10.98 19.8099L10.995 19.8139L11.007 19.8099L11.111 19.7359L11.123 19.7199L11.127 19.7029L11.11 19.2759C11.1073 19.2653 11.1017 19.2593 11.093 19.2579ZM11.358 19.1449L11.345 19.1469L11.16 19.2399L11.15 19.2499L11.147 19.2609L11.165 19.6909L11.17 19.7029L11.178 19.7099L11.379 19.8029C11.3917 19.8063 11.4013 19.8036 11.408 19.7949L11.412 19.7809L11.378 19.1669C11.3747 19.1549 11.368 19.1476 11.358 19.1449ZM10.643 19.1469C10.6386 19.1443 10.6333 19.1434 10.6283 19.1445C10.6233 19.1456 10.6189 19.1487 10.616 19.1529L10.61 19.1669L10.576 19.7809C10.5767 19.7929 10.5823 19.8009 10.593 19.8049L10.608 19.8029L10.809 19.7099L10.819 19.7019L10.823 19.6909L10.84 19.2609L10.837 19.2489L10.827 19.2389L10.643 19.1469Z"/>
</mask>
<path fill-rule="evenodd" clip-rule="evenodd" d="M11.093 19.2579L11.082 19.2599L11.011 19.2949L10.991 19.2989L10.977 19.2949L10.906 19.2599C10.8953 19.2566 10.8873 19.2583 10.882 19.2649L10.878 19.2749L10.861 19.7029L10.866 19.7229L10.876 19.7359L10.98 19.8099L10.995 19.8139L11.007 19.8099L11.111 19.7359L11.123 19.7199L11.127 19.7029L11.11 19.2759C11.1073 19.2653 11.1017 19.2593 11.093 19.2579ZM11.358 19.1449L11.345 19.1469L11.16 19.2399L11.15 19.2499L11.147 19.2609L11.165 19.6909L11.17 19.7029L11.178 19.7099L11.379 19.8029C11.3917 19.8063 11.4013 19.8036 11.408 19.7949L11.412 19.7809L11.378 19.1669C11.3747 19.1549 11.368 19.1476 11.358 19.1449ZM10.643 19.1469C10.6386 19.1443 10.6333 19.1434 10.6283 19.1445C10.6233 19.1456 10.6189 19.1487 10.616 19.1529L10.61 19.1669L10.576 19.7809C10.5767 19.7929 10.5823 19.8009 10.593 19.8049L10.608 19.8029L10.809 19.7099L10.819 19.7019L10.823 19.6909L10.84 19.2609L10.837 19.2489L10.827 19.2389L10.643 19.1469Z" fill="#1F2A44"/>
<path d="M11.093 19.2579L11.2451 18.2696L11.0792 18.244L10.9141 18.2741L11.093 19.2579ZM11.082 19.2599L10.9031 18.2761L10.7654 18.3011L10.6398 18.363L11.082 19.2599ZM11.011 19.2949L11.2071 20.2755L11.3356 20.2498L11.4532 20.1919L11.011 19.2949ZM10.991 19.2989L10.7163 20.2605L10.9494 20.3271L11.1871 20.2795L10.991 19.2989ZM10.977 19.2949L10.5348 20.1919L10.6157 20.2317L10.7023 20.2565L10.977 19.2949ZM10.906 19.2599L11.3482 18.363L11.2784 18.3286L11.2043 18.3055L10.906 19.2599ZM10.882 19.2649L10.1011 18.6402L10.0085 18.756L9.95351 18.8936L10.882 19.2649ZM10.878 19.2749L9.94951 18.9036L9.88562 19.0633L9.87879 19.2352L10.878 19.2749ZM10.861 19.7029L9.86179 19.6632L9.8561 19.8064L9.89086 19.9455L10.861 19.7029ZM10.866 19.7229L9.89586 19.9655L9.94638 20.1675L10.0734 20.3326L10.866 19.7229ZM10.876 19.7359L10.0834 20.3456L10.1745 20.4641L10.2962 20.5507L10.876 19.7359ZM10.98 19.8099L10.4002 20.6247L10.5476 20.7296L10.7224 20.7762L10.98 19.8099ZM10.995 19.8139L10.7374 20.7802L11.0269 20.8574L11.3112 20.7626L10.995 19.8139ZM11.007 19.8099L11.3232 20.7586L11.465 20.7114L11.5868 20.6247L11.007 19.8099ZM11.111 19.7359L11.6908 20.5507L11.8176 20.4605L11.911 20.3359L11.111 19.7359ZM11.123 19.7199L11.923 20.3199L12.0485 20.1526L12.0964 19.949L11.123 19.7199ZM11.127 19.7029L12.1004 19.932L12.1316 19.7993L12.1262 19.6632L11.127 19.7029ZM11.11 19.2759L12.1092 19.2362L12.1051 19.1333L12.0801 19.0334L11.11 19.2759ZM11.358 19.1449L11.6157 18.1787L11.4132 18.1247L11.206 18.1566L11.358 19.1449ZM11.345 19.1469L11.193 18.1586L11.0369 18.1826L10.8959 18.2535L11.345 19.1469ZM11.16 19.2399L10.7109 18.3465L10.5669 18.4189L10.4529 18.5328L11.16 19.2399ZM11.15 19.2499L10.4429 18.5428L10.2551 18.7306L10.1852 18.9869L11.15 19.2499ZM11.147 19.2609L10.1822 18.9979L10.1414 19.1476L10.1479 19.3028L11.147 19.2609ZM11.165 19.6909L10.1659 19.7328L10.1733 19.911L10.2419 20.0756L11.165 19.6909ZM11.17 19.7029L10.2469 20.0876L10.3364 20.3023L10.5115 20.4555L11.17 19.7029ZM11.178 19.7099L10.5195 20.4625L10.6277 20.5572L10.7581 20.6175L11.178 19.7099ZM11.379 19.8029L10.9591 20.7105L11.0392 20.7476L11.1245 20.77L11.379 19.8029ZM11.408 19.7949L12.2006 20.4046L12.3171 20.2533L12.3695 20.0696L11.408 19.7949ZM11.412 19.7809L12.3735 20.0556L12.4198 19.8938L12.4105 19.7256L11.412 19.7809ZM11.378 19.1669L12.3765 19.1116L12.3705 19.0036L12.3415 18.8993L11.378 19.1669ZM10.643 19.1469L10.1247 20.0021L10.1595 20.0232L10.1958 20.0414L10.643 19.1469ZM10.616 19.1529L9.78429 18.5977L9.73315 18.6743L9.69687 18.759L10.616 19.1529ZM10.61 19.1669L9.69087 18.773L9.62129 18.9353L9.61153 19.1116L10.61 19.1669ZM10.576 19.7809L9.57753 19.7256L9.57446 19.781L9.57754 19.8364L10.576 19.7809ZM10.593 19.8049L10.2419 20.7413L10.4767 20.8293L10.7252 20.7962L10.593 19.8049ZM10.608 19.8029L10.7402 20.7942L10.8904 20.7741L11.0279 20.7105L10.608 19.8029ZM10.809 19.7099L11.2289 20.6175L11.339 20.5666L11.4337 20.4908L10.809 19.7099ZM10.819 19.7019L11.4437 20.4828L11.6629 20.3075L11.7588 20.0437L10.819 19.7019ZM10.823 19.6909L11.7628 20.0327L11.8161 19.8862L11.8222 19.7304L10.823 19.6909ZM10.84 19.2609L11.8392 19.3004L11.8449 19.1573L11.8101 19.0184L10.84 19.2609ZM10.837 19.2489L11.8071 19.0064L11.7399 18.7377L11.5441 18.5418L10.837 19.2489ZM10.827 19.2389L11.5341 18.5318L11.4194 18.4171L11.2742 18.3445L10.827 19.2389ZM11.093 19.2579L10.9141 18.2741L10.9031 18.2761L11.082 19.2599L11.2609 20.2438L11.2719 20.2418L11.093 19.2579ZM11.082 19.2599L10.6398 18.363L10.5688 18.398L11.011 19.2949L11.4532 20.1919L11.5242 20.1569L11.082 19.2599ZM11.011 19.2949L10.8149 18.3144L10.7949 18.3184L10.991 19.2989L11.1871 20.2795L11.2071 20.2755L11.011 19.2949ZM10.991 19.2989L11.2657 18.3374L11.2517 18.3334L10.977 19.2949L10.7023 20.2565L10.7163 20.2605L10.991 19.2989ZM10.977 19.2949L11.4192 18.398L11.3482 18.363L10.906 19.2599L10.4638 20.1569L10.5348 20.1919L10.977 19.2949ZM10.906 19.2599L11.2043 18.3055C11.0935 18.2708 10.909 18.2337 10.6881 18.2797C10.4456 18.3302 10.242 18.4641 10.1011 18.6402L10.882 19.2649L11.6629 19.8896C11.5273 20.0591 11.3304 20.1888 11.0959 20.2377C10.883 20.282 10.7079 20.2457 10.6077 20.2144L10.906 19.2599ZM10.882 19.2649L9.95351 18.8936L9.94951 18.9036L10.878 19.2749L11.8065 19.6463L11.8105 19.6363L10.882 19.2649ZM10.878 19.2749L9.87879 19.2352L9.86179 19.6632L10.861 19.7029L11.8602 19.7426L11.8772 19.3146L10.878 19.2749ZM10.861 19.7029L9.89086 19.9455L9.89586 19.9655L10.866 19.7229L11.8361 19.4804L11.8311 19.4604L10.861 19.7029ZM10.866 19.7229L10.0734 20.3326L10.0834 20.3456L10.876 19.7359L11.6686 19.1262L11.6586 19.1132L10.866 19.7229ZM10.876 19.7359L10.2962 20.5507L10.4002 20.6247L10.98 19.8099L11.5598 18.9951L11.4558 18.9211L10.876 19.7359ZM10.98 19.8099L10.7224 20.7762L10.7374 20.7802L10.995 19.8139L11.2526 18.8477L11.2376 18.8437L10.98 19.8099ZM10.995 19.8139L11.3112 20.7626L11.3232 20.7586L11.007 19.8099L10.6908 18.8612L10.6788 18.8652L10.995 19.8139ZM11.007 19.8099L11.5868 20.6247L11.6908 20.5507L11.111 19.7359L10.5312 18.9211L10.4272 18.9951L11.007 19.8099ZM11.111 19.7359L11.911 20.3359L11.923 20.3199L11.123 19.7199L10.323 19.12L10.311 19.136L11.111 19.7359ZM11.123 19.7199L12.0964 19.949L12.1004 19.932L11.127 19.7029L10.1536 19.4739L10.1496 19.4909L11.123 19.7199ZM11.127 19.7029L12.1262 19.6632L12.1092 19.2362L11.11 19.2759L10.1108 19.3157L10.1278 19.7427L11.127 19.7029ZM11.11 19.2759L12.0801 19.0334C12.0505 18.915 11.9841 18.7392 11.8308 18.5768C11.6653 18.4016 11.4546 18.3018 11.2451 18.2696L11.093 19.2579L10.9409 20.2463C10.7401 20.2154 10.5366 20.1193 10.3767 19.95C10.229 19.7936 10.1668 19.6262 10.1399 19.5185L11.11 19.2759ZM11.358 19.1449L11.206 18.1566L11.193 18.1586L11.345 19.1469L11.497 20.1353L11.51 20.1333L11.358 19.1449ZM11.345 19.1469L10.8959 18.2535L10.7109 18.3465L11.16 19.2399L11.6091 20.1334L11.7941 20.0404L11.345 19.1469ZM11.16 19.2399L10.4529 18.5328L10.4429 18.5428L11.15 19.2499L11.8571 19.957L11.8671 19.947L11.16 19.2399ZM11.15 19.2499L10.1852 18.9869L10.1822 18.9979L11.147 19.2609L12.1118 19.524L12.1148 19.513L11.15 19.2499ZM11.147 19.2609L10.1479 19.3028L10.1659 19.7328L11.165 19.6909L12.1641 19.6491L12.1461 19.2191L11.147 19.2609ZM11.165 19.6909L10.2419 20.0756L10.2469 20.0876L11.17 19.7029L12.0931 19.3183L12.0881 19.3063L11.165 19.6909ZM11.17 19.7029L10.5115 20.4555L10.5195 20.4625L11.178 19.7099L11.8365 18.9573L11.8285 18.9503L11.17 19.7029ZM11.178 19.7099L10.7581 20.6175L10.9591 20.7105L11.379 19.8029L11.7989 18.8954L11.5979 18.8024L11.178 19.7099ZM11.379 19.8029L11.1245 20.77C11.2506 20.8032 11.4422 20.828 11.6616 20.7674C11.8951 20.7031 12.0775 20.5647 12.2006 20.4046L11.408 19.7949L10.6154 19.1852C10.7318 19.0339 10.9061 18.9012 11.1299 18.8394C11.3396 18.7816 11.5201 18.806 11.6335 18.8359L11.379 19.8029ZM11.408 19.7949L12.3695 20.0696L12.3735 20.0556L11.412 19.7809L10.4505 19.5062L10.4465 19.5202L11.408 19.7949ZM11.412 19.7809L12.4105 19.7256L12.3765 19.1116L11.378 19.1669L10.3795 19.2222L10.4135 19.8362L11.412 19.7809ZM11.378 19.1669L12.3415 18.8993C12.266 18.6274 12.0427 18.2926 11.6157 18.1787L11.358 19.1449L11.1003 20.1112C10.9284 20.0653 10.7624 19.9701 10.6306 19.8251C10.5052 19.6873 10.4442 19.5415 10.4145 19.4346L11.378 19.1669ZM10.643 19.1469L11.1613 18.2917C10.9364 18.1555 10.6678 18.1114 10.4114 18.1683L10.6283 19.1445L10.8452 20.1207C10.5989 20.1754 10.3408 20.1331 10.1247 20.0021L10.643 19.1469ZM10.6283 19.1445L10.4114 18.1683C10.1549 18.2253 9.93023 18.3791 9.78429 18.5977L10.616 19.1529L11.4477 19.7081C11.3075 19.9182 11.0916 20.0659 10.8452 20.1207L10.6283 19.1445ZM10.616 19.1529L9.69687 18.759L9.69087 18.773L10.61 19.1669L11.5291 19.5609L11.5351 19.5469L10.616 19.1529ZM10.61 19.1669L9.61153 19.1116L9.57753 19.7256L10.576 19.7809L11.5745 19.8362L11.6085 19.2222L10.61 19.1669ZM10.576 19.7809L9.57754 19.8364C9.58595 19.9878 9.63089 20.185 9.76473 20.374C9.90104 20.5664 10.0804 20.6807 10.2419 20.7413L10.593 19.8049L10.9441 18.8686C11.095 18.9252 11.2661 19.0335 11.3968 19.2179C11.5249 19.3989 11.5667 19.5861 11.5745 19.7255L10.576 19.7809ZM10.593 19.8049L10.7252 20.7962L10.7402 20.7942L10.608 19.8029L10.4758 18.8117L10.4608 18.8137L10.593 19.8049ZM10.608 19.8029L11.0279 20.7105L11.2289 20.6175L10.809 19.7099L10.3891 18.8024L10.1881 18.8954L10.608 19.8029ZM10.809 19.7099L11.4337 20.4908L11.4437 20.4828L10.819 19.7019L10.1943 18.921L10.1843 18.929L10.809 19.7099ZM10.819 19.7019L11.7588 20.0437L11.7628 20.0327L10.823 19.6909L9.8832 19.3492L9.8792 19.3602L10.819 19.7019ZM10.823 19.6909L11.8222 19.7304L11.8392 19.3004L10.84 19.2609L9.84078 19.2214L9.82378 19.6514L10.823 19.6909ZM10.84 19.2609L11.8101 19.0184L11.8071 19.0064L10.837 19.2489L9.86687 19.4915L9.86987 19.5035L10.84 19.2609ZM10.837 19.2489L11.5441 18.5418L11.5341 18.5318L10.827 19.2389L10.1199 19.946L10.1299 19.956L10.837 19.2489ZM10.827 19.2389L11.2742 18.3445L11.0902 18.2525L10.643 19.1469L10.1958 20.0414L10.3798 20.1334L10.827 19.2389Z" fill="#1F2A44" mask="url(#path-1-inside-1_705_1927)"/>
<path d="M6.66016 0.5H14.3398C14.7805 0.500143 15.2136 0.61662 15.5947 0.837891C15.928 1.03147 16.2118 1.29902 16.4238 1.61914L16.5098 1.75977L18.5029 5.24805L18.6465 5.5H20V5.87598C20 5.94279 19.9776 6.00786 19.9365 6.06055C19.8953 6.11328 19.8374 6.15077 19.7725 6.16699L19.749 6.17285L19.1533 6.32227L19.4199 6.875C19.7487 7.55748 19.8988 8.31041 19.8594 9.06348L19.8311 9.38574L19.1055 15.1855C19.0601 15.5484 18.8845 15.883 18.6104 16.125C18.3362 16.3669 17.9828 16.5001 17.6172 16.5H17.5C17.1022 16.5 16.7208 16.3419 16.4395 16.0605C16.1581 15.7792 16 15.3978 16 15V14.5H5V15C5 15.3978 4.84185 15.7792 4.56055 16.0605C4.27924 16.3419 3.89782 16.5 3.5 16.5H3.38281L3.24609 16.4941C2.92993 16.4653 2.62944 16.3366 2.38965 16.125C2.14968 15.9132 1.98482 15.6307 1.91699 15.3203L1.89453 15.1855L1.16895 9.38477C1.0617 8.52577 1.20436 7.65391 1.58008 6.87402L1.8584 6.29785L1.23242 6.16797L1.22559 6.16602C1.17757 6.1537 1.13384 6.12984 1.09766 6.09668L1.06348 6.06055C1.03249 6.02082 1.01204 5.974 1.00391 5.9248L1 5.87598V5.5H2.35352L2.49707 5.24805L4.49023 1.75977C4.70876 1.37729 5.02436 1.05912 5.40527 0.837891C5.73864 0.644325 6.11196 0.531336 6.49512 0.505859L6.66016 0.5ZM3.97949 9.33887C3.80644 9.34246 3.63699 9.39093 3.48828 9.47949C3.33948 9.56821 3.21541 9.69408 3.12988 9.84473C3.04442 9.99528 2.99997 10.1658 3 10.3389V11.041C3.00057 11.428 3.15067 11.8002 3.41895 12.0791C3.6873 12.358 4.05371 12.5226 4.44043 12.5381V12.5371L6.75391 12.6309C7.65042 12.6668 8.00884 11.5464 7.36133 11.0332L7.21777 10.9395L4.47559 9.45898C4.32341 9.37672 4.15246 9.33532 3.97949 9.33887ZM17.0205 9.33887C16.8907 9.3362 16.7621 9.35902 16.6416 9.40527L16.5244 9.45898L13.7822 10.9395C12.9944 11.3653 13.2539 12.5125 14.0742 12.623L14.2461 12.6309L16.5596 12.5391C16.9469 12.5236 17.3136 12.3578 17.582 12.0781C17.8502 11.7986 18.0002 11.4264 18 11.0391V10.3389L17.9922 10.21C17.9756 10.082 17.9342 9.95769 17.8701 9.84473C17.7846 9.69407 17.6605 9.5682 17.5117 9.47949C17.363 9.39093 17.1936 9.34246 17.0205 9.33887ZM6.46387 1.5127C6.26862 1.53849 6.07971 1.60276 5.9082 1.70215C5.73657 1.80169 5.58624 1.93402 5.4668 2.09082L5.35742 2.25586L3.64355 5.25586C3.5133 5.48389 3.44543 5.74228 3.44629 6.00488C3.44718 6.26752 3.51665 6.52575 3.64844 6.75293C3.78024 6.98008 3.96973 7.16868 4.19727 7.2998C4.36795 7.39814 4.55596 7.46169 4.75 7.4873L4.94629 7.5H16.0537C16.2508 7.49994 16.446 7.46154 16.627 7.38672L16.8027 7.2998C17.0303 7.16868 17.2198 6.98008 17.3516 6.75293C17.4834 6.52575 17.5528 6.26752 17.5537 6.00488C17.5544 5.80807 17.5163 5.61365 17.4424 5.43262L17.3564 5.25586L15.6426 2.25586C15.5113 2.02606 15.3207 1.83492 15.0918 1.70215C14.863 1.56958 14.6033 1.49986 14.3389 1.5H6.66113L6.46387 1.5127Z" fill="#1F2A44" stroke="#1F2A44"/>
</svg>
