<svg width="25" height="24" viewBox="0 0 25 24" fill="none" xmlns="http://www.w3.org/2000/svg">
<path d="M9.19434 17.5762C8.86244 17.5762 8.54537 17.7131 8.3125 17.9551C8.07988 18.1968 7.9502 18.5238 7.9502 18.8633C7.9503 19.2026 8.08002 19.5288 8.3125 19.7705C8.54537 20.0125 8.86244 20.1503 9.19434 20.1504H22.4053C22.7372 20.1504 23.0542 20.0125 23.2871 19.7705C23.5197 19.5288 23.6503 19.2027 23.6504 18.8633C23.6504 18.5237 23.5198 18.1969 23.2871 17.9551C23.0542 17.7131 22.7372 17.5762 22.4053 17.5762H9.19434ZM2.59473 10.7129C2.26289 10.7129 1.94578 10.85 1.71289 11.0918C1.48017 11.3336 1.34961 11.6604 1.34961 12C1.34961 12.3396 1.48017 12.6664 1.71289 12.9082C1.94578 13.15 2.26289 13.2871 2.59473 13.2871H22.4053C22.7371 13.2871 23.0542 13.15 23.2871 12.9082C23.5198 12.6664 23.6504 12.3396 23.6504 12C23.6504 11.2939 23.0973 10.7129 22.4053 10.7129H2.59473ZM13.5947 3.84961L13.4707 3.85645C13.1845 3.88602 12.9166 4.01779 12.7129 4.22949L12.6299 4.32324C12.4492 4.55231 12.3497 4.83972 12.3496 5.13672C12.3496 5.47628 12.4802 5.80313 12.7129 6.04492C12.9458 6.28689 13.2628 6.42383 13.5947 6.42383H22.4053C22.7372 6.42383 23.0542 6.28689 23.2871 6.04492C23.5198 5.80313 23.6504 5.47628 23.6504 5.13672L23.6436 5.00586C23.5801 4.36047 23.0539 3.84961 22.4053 3.84961H13.5947Z" fill="#1F2A44" stroke="#1F2A44" stroke-width="0.3"/>
</svg>
