<svg width="28" height="28" viewBox="0 0 28 28" fill="none" xmlns="http://www.w3.org/2000/svg">
<path d="M11.7484 3.29014L3.66335 9.76513C2.75335 10.4885 2.17001 12.0168 2.36835 13.1602L3.92002 22.4468C4.20002 24.1035 5.78667 25.4451 7.46667 25.4451H20.5334C22.2017 25.4451 23.8 24.0918 24.08 22.4468L25.6317 13.1602C25.8183 12.0168 25.235 10.4885 24.3367 9.76513L16.2517 3.30182C15.0033 2.29849 12.985 2.29848 11.7484 3.29014Z" fill="white"/>
<path d="M14 18.0833C15.6108 18.0833 16.9167 16.7775 16.9167 15.1667C16.9167 13.5558 15.6108 12.25 14 12.25C12.3892 12.25 11.0833 13.5558 11.0833 15.1667C11.0833 16.7775 12.3892 18.0833 14 18.0833Z" fill="#5771AE"/>
</svg>
