<svg width="25" height="24" viewBox="0 0 25 24" fill="none" xmlns="http://www.w3.org/2000/svg">
<path d="M9.5 2.5C11.8439 2.5 13.75 4.40614 13.75 6.75C13.74 9.05196 11.9419 10.9097 9.65234 10.9902H9.62402C9.54482 10.9818 9.46348 10.9833 9.38672 10.9893C7.03765 10.9032 5.25 9.04362 5.25 6.75C5.25 4.40614 7.15614 2.5 9.5 2.5Z" fill="#1F2A44" stroke="#1F2A44"/>
<path d="M9.51273 13.2549C11.164 13.2549 12.7901 13.6481 14.0547 14.4092L14.3028 14.5654C15.3867 15.2881 15.9583 16.2127 16.0323 17.1719L16.0401 17.3643C16.0385 18.3306 15.5294 19.2687 14.5108 20.0264L14.3008 20.1748C13 21.0481 11.2628 21.5 9.50004 21.5C7.84724 21.5 6.21655 21.1033 4.9473 20.334L4.69828 20.1748L4.6973 20.1738L4.48637 20.0264C3.46809 19.2762 2.96 18.3377 2.96 17.3799C2.96 16.3575 3.53909 15.3478 4.70805 14.5654L4.70707 14.5645C6.01354 13.7003 7.75239 13.2549 9.51273 13.2549Z" fill="#1F2A44" stroke="#1F2A44"/>
<path d="M20.49 7.3401C20.65 9.2801 19.27 10.9801 17.36 11.2101C17.35 11.2101 17.35 11.2101 17.34 11.2101H17.31C17.25 11.2101 17.19 11.2101 17.14 11.2301C16.17 11.2801 15.28 10.9701 14.61 10.4001C15.64 9.4801 16.23 8.1001 16.11 6.6001C16.04 5.7901 15.76 5.0501 15.34 4.4201C15.72 4.2301 16.16 4.1101 16.61 4.0701C18.57 3.9001 20.32 5.3601 20.49 7.3401Z" fill="#1F2A44"/>
<path d="M22.49 16.5899C22.41 17.5599 21.79 18.3999 20.75 18.9699C19.75 19.5199 18.49 19.7799 17.24 19.7499C17.96 19.0999 18.38 18.2899 18.46 17.4299C18.56 16.1899 17.97 14.9999 16.79 14.0499C16.12 13.5199 15.34 13.0999 14.49 12.7899C16.7 12.1499 19.48 12.5799 21.19 13.9599C22.11 14.6999 22.58 15.6299 22.49 16.5899Z" fill="#1F2A44"/>
</svg>
