<svg width="21" height="17" viewBox="0 0 21 17" fill="none" xmlns="http://www.w3.org/2000/svg">
<path d="M6.66016 0.5H14.3398C14.7805 0.500143 15.2136 0.61662 15.5947 0.837891C15.928 1.03147 16.2118 1.29902 16.4238 1.61914L16.5098 1.75977L18.5029 5.24805L18.6465 5.5H20V5.87598C20 5.94279 19.9776 6.00786 19.9365 6.06055C19.8953 6.11328 19.8374 6.15077 19.7725 6.16699L19.749 6.17285L19.1533 6.32227L19.4199 6.875C19.7487 7.55748 19.8988 8.31041 19.8594 9.06348L19.8311 9.38574L19.1055 15.1855C19.0601 15.5484 18.8845 15.883 18.6104 16.125C18.3362 16.3669 17.9828 16.5001 17.6172 16.5H17.5C17.1022 16.5 16.7208 16.3419 16.4395 16.0605C16.1581 15.7792 16 15.3978 16 15V14.5H5V15C5 15.3978 4.84185 15.7792 4.56055 16.0605C4.27924 16.3419 3.89782 16.5 3.5 16.5H3.38281L3.24609 16.4941C2.92993 16.4653 2.62944 16.3366 2.38965 16.125C2.14968 15.9132 1.98482 15.6307 1.91699 15.3203L1.89453 15.1855L1.16895 9.38477C1.0617 8.52577 1.20436 7.65391 1.58008 6.87402L1.8584 6.29785L1.23242 6.16797L1.22559 6.16602C1.17757 6.1537 1.13384 6.12984 1.09766 6.09668L1.06348 6.06055C1.03249 6.02082 1.01204 5.974 1.00391 5.9248L1 5.87598V5.5H2.35352L2.49707 5.24805L4.49023 1.75977C4.70876 1.37729 5.02436 1.05912 5.40527 0.837891C5.73864 0.644325 6.11196 0.531336 6.49512 0.505859L6.66016 0.5ZM3.97949 9.33887C3.80644 9.34246 3.63699 9.39093 3.48828 9.47949C3.33948 9.56821 3.21541 9.69408 3.12988 9.84473C3.04442 9.99528 2.99997 10.1658 3 10.3389V11.041C3.00057 11.428 3.15067 11.8002 3.41895 12.0791C3.6873 12.358 4.05371 12.5226 4.44043 12.5381V12.5371L6.75391 12.6309C7.65042 12.6668 8.00884 11.5464 7.36133 11.0332L7.21777 10.9395L4.47559 9.45898C4.32341 9.37672 4.15246 9.33532 3.97949 9.33887ZM17.0205 9.33887C16.8907 9.3362 16.7621 9.35902 16.6416 9.40527L16.5244 9.45898L13.7822 10.9395C12.9944 11.3653 13.2539 12.5125 14.0742 12.623L14.2461 12.6309L16.5596 12.5391C16.9469 12.5236 17.3136 12.3578 17.582 12.0781C17.8502 11.7986 18.0002 11.4264 18 11.0391V10.3389L17.9922 10.21C17.9756 10.082 17.9342 9.95769 17.8701 9.84473C17.7846 9.69407 17.6605 9.5682 17.5117 9.47949C17.363 9.39093 17.1936 9.34246 17.0205 9.33887ZM6.46387 1.5127C6.26862 1.53849 6.07971 1.60276 5.9082 1.70215C5.73657 1.80169 5.58624 1.93402 5.4668 2.09082L5.35742 2.25586L3.64355 5.25586C3.5133 5.48389 3.44543 5.74228 3.44629 6.00488C3.44718 6.26752 3.51665 6.52575 3.64844 6.75293C3.78024 6.98008 3.96973 7.16868 4.19727 7.2998C4.36795 7.39814 4.55596 7.46169 4.75 7.4873L4.94629 7.5H16.0537C16.2508 7.49994 16.446 7.46154 16.627 7.38672L16.8027 7.2998C17.0303 7.16868 17.2198 6.98008 17.3516 6.75293C17.4834 6.52575 17.5528 6.26752 17.5537 6.00488C17.5544 5.80807 17.5163 5.61365 17.4424 5.43262L17.3564 5.25586L15.6426 2.25586C15.5113 2.02606 15.3207 1.83492 15.0918 1.70215C14.863 1.56958 14.6033 1.49986 14.3389 1.5H6.66113L6.46387 1.5127Z" fill="#9F9F9F" stroke="#9F9F9F"/>
</svg>
