<svg width="25" height="24" viewBox="0 0 25 24" fill="none" xmlns="http://www.w3.org/2000/svg">
<path d="M9.5 2.5C11.8439 2.5 13.75 4.40614 13.75 6.75C13.74 9.05196 11.9419 10.9097 9.65234 10.9902H9.62402C9.54482 10.9818 9.46348 10.9833 9.38672 10.9893C7.03765 10.9032 5.25 9.04362 5.25 6.75C5.25 4.40614 7.15614 2.5 9.5 2.5Z" fill="#CACACA" stroke="#CACACA"/>
<path d="M14.58 14.1499C11.79 12.2899 7.24 12.2899 4.43 14.1499C3.16 14.9999 2.46 16.1499 2.46 17.3799C2.46 18.6099 3.16 19.7499 4.42 20.5899C5.82 21.5299 7.66 21.9999 9.5 21.9999C11.34 21.9999 13.18 21.5299 14.58 20.5899C15.84 19.7399 16.54 18.5999 16.54 17.3599C16.53 16.1299 15.84 14.9899 14.58 14.1499Z" fill="#B5B5B5"/>
<path d="M20.49 7.3401C20.65 9.2801 19.27 10.9801 17.36 11.2101C17.35 11.2101 17.35 11.2101 17.34 11.2101H17.31C17.25 11.2101 17.19 11.2101 17.14 11.2301C16.17 11.2801 15.28 10.9701 14.61 10.4001C15.64 9.4801 16.23 8.1001 16.11 6.6001C16.04 5.7901 15.76 5.0501 15.34 4.4201C15.72 4.2301 16.16 4.1101 16.61 4.0701C18.57 3.9001 20.32 5.3601 20.49 7.3401Z" fill="#B5B5B5"/>
<path d="M22.49 16.5899C22.41 17.5599 21.79 18.3999 20.75 18.9699C19.75 19.5199 18.49 19.7799 17.24 19.7499C17.96 19.0999 18.38 18.2899 18.46 17.4299C18.56 16.1899 17.97 14.9999 16.79 14.0499C16.12 13.5199 15.34 13.0999 14.49 12.7899C16.7 12.1499 19.48 12.5799 21.19 13.9599C22.11 14.6999 22.58 15.6299 22.49 16.5899Z" fill="#B5B5B5"/>
</svg>
