<svg width="25" height="24" viewBox="0 0 25 24" fill="none" xmlns="http://www.w3.org/2000/svg">
<path d="M15.7689 2.52832C15.8164 2.50963 15.8645 2.51123 15.9066 2.53418L15.9466 2.56445L21.4456 8.10254L21.4466 8.10449C21.4721 8.13013 21.4793 8.15095 21.4818 8.16602C21.4847 8.18407 21.4832 8.20795 21.472 8.2334C21.45 8.28307 21.4032 8.32018 21.3304 8.32031C20.765 8.32031 20.1527 8.32058 19.5638 8.31934L17.9349 8.31055H17.93C16.6829 8.31055 15.6801 7.31134 15.68 6.14062V2.65039C15.68 2.61587 15.6898 2.59415 15.7015 2.57812C15.715 2.55968 15.7375 2.54074 15.7689 2.52832Z" fill="#1F2A44" stroke="#1F2A44"/>
<path d="M8.57031 2.5H12.8096C13.0834 2.5 13.3096 2.72614 13.3096 3V5.88965C13.3096 8.53579 15.4642 10.6904 18.1104 10.6904H21C21.2739 10.6904 21.5 10.9166 21.5 11.1904V16.4297C21.5 18.092 20.9235 19.3478 20.0273 20.1895C19.1262 21.0356 17.8624 21.5 16.4297 21.5H8.57031C7.13757 21.5 5.87377 21.0356 4.97266 20.1895C4.07648 19.3478 3.5 18.092 3.5 16.4297V7.57031C3.5 5.90797 4.07648 4.65225 4.97266 3.81055C5.87377 2.96436 7.13757 2.5 8.57031 2.5ZM8 15.75C7.31386 15.75 6.75 16.3139 6.75 17C6.75 17.6861 7.31386 18.25 8 18.25H12C12.6861 18.25 13.25 17.6861 13.25 17C13.25 16.3139 12.6861 15.75 12 15.75H8ZM8 11.75C7.31386 11.75 6.75 12.3139 6.75 13C6.75 13.6861 7.31386 14.25 8 14.25H14C14.6861 14.25 15.25 13.6861 15.25 13C15.25 12.3139 14.6861 11.75 14 11.75H8Z" fill="#1F2A44" stroke="#1F2A44"/>
</svg>
