<svg width="18" height="19" viewBox="0 0 18 19" fill="none" xmlns="http://www.w3.org/2000/svg">
<path d="M8.06248 3.98002L4.73998 2.33752C2.94748 1.46002 1.47748 2.35252 1.47748 4.31752V15.4475C1.47748 16.3025 2.18998 17 3.05998 17H8.62498C9.03748 17 9.37498 16.6625 9.37498 16.25V6.05752C9.37498 5.27002 8.78248 4.33252 8.06248 3.98002ZM6.72748 10.8125H4.12498C3.81748 10.8125 3.56248 10.5575 3.56248 10.25C3.56248 9.94252 3.81748 9.68752 4.12498 9.68752H6.72748C7.03498 9.68752 7.28998 9.94252 7.28998 10.25C7.28998 10.5575 7.04248 10.8125 6.72748 10.8125ZM6.72748 7.81252H4.12498C3.81748 7.81252 3.56248 7.55752 3.56248 7.25002C3.56248 6.94252 3.81748 6.68752 4.12498 6.68752H6.72748C7.03498 6.68752 7.28998 6.94252 7.28998 7.25002C7.28998 7.55752 7.04248 7.81252 6.72748 7.81252Z" fill="#CACACA"/>
<path d="M16.5 14.03V15.125C16.5 16.16 15.66 17 14.625 17H11.2275C10.8225 17 10.5 16.6775 10.5 16.2725V14.6525C11.3025 14.75 12.15 14.5175 12.7575 14.03C13.2675 14.4425 13.92 14.69 14.6325 14.69C15.33 14.69 15.9825 14.4425 16.5 14.03Z" fill="#CACACA"/>
<path d="M16.5 11.7875V11.795C16.44 12.7775 15.6375 13.565 14.6325 13.565C13.59 13.565 12.7575 12.7175 12.7575 11.69C12.7575 12.8375 11.7 13.76 10.5 13.5275V9.50002C10.5 9.02002 10.9425 8.66002 11.415 8.76502L12.7575 9.06502L13.1175 9.14752L14.6475 9.49252C15.015 9.56752 15.3525 9.69502 15.645 9.88252C15.645 9.89002 15.6525 9.89002 15.6525 9.89002C15.7275 9.94252 15.8025 10.0025 15.87 10.07C16.215 10.415 16.44 10.9175 16.4925 11.6525C16.4925 11.6975 16.5 11.7425 16.5 11.7875Z" fill="#CACACA"/>
</svg>
