<svg width="42" height="37" viewBox="0 0 42 37" fill="none" xmlns="http://www.w3.org/2000/svg">
<path fill-rule="evenodd" clip-rule="evenodd" d="M27.573 1.6467C29.7568 2.50896 30.4249 5.51187 31.3178 6.4771C32.2108 7.44232 33.4886 7.77049 34.1957 7.77049C37.9535 7.77049 41 10.7927 41 14.5185V26.9484C41 31.9461 36.9135 36 31.8757 36H10.1243C5.08432 36 1 31.9461 1 26.9484V14.5185C1 10.7927 4.04649 7.77049 7.80432 7.77049C8.50919 7.77049 9.78703 7.44232 10.6822 6.4771C11.5751 5.51187 12.2411 2.50896 14.4249 1.6467C16.6108 0.784434 25.3892 0.784434 27.573 1.6467Z" stroke="white" stroke-width="1.5" stroke-linecap="round" stroke-linejoin="round"/>
<path d="M32.991 13H33.009" stroke="white" stroke-width="2" stroke-linecap="round" stroke-linejoin="round"/>
<path fill-rule="evenodd" clip-rule="evenodd" d="M28 21C28 17.1334 24.8666 14 21 14C17.1334 14 14 17.1334 14 21C14 24.8666 17.1334 28 21 28C24.8666 28 28 24.8666 28 21Z" stroke="white" stroke-width="1.5" stroke-linecap="round" stroke-linejoin="round"/>
</svg>
