<svg width="48" height="45" viewBox="0 0 48 45" fill="none" xmlns="http://www.w3.org/2000/svg">
<path d="M46.7221 30.8986V16.5764C46.7221 12.2835 43.2398 8.80118 38.9444 8.80118C38.1363 8.80118 36.6756 8.42305 35.6549 7.31089C34.6342 6.19873 33.8705 2.73868 31.3743 1.74515C28.8781 0.751618 18.844 0.751618 16.3453 1.74515C13.8492 2.73868 13.0879 6.19873 12.0672 7.31089C11.044 8.42305 9.5834 8.80118 8.7777 8.80118C4.4823 8.80118 1 12.2835 1 16.5764V30.8986C1 36.6571 5.6686 41.3281 11.4296 41.3281H32.0082" stroke="white" stroke-width="2" stroke-linecap="round" stroke-linejoin="round"/>
<path d="M37.4425 15.2113H37.4648" stroke="white" stroke-width="3" stroke-linecap="round" stroke-linejoin="round"/>
<path fill-rule="evenodd" clip-rule="evenodd" d="M31.7171 24.1778C31.7171 19.8379 28.2002 16.321 23.8603 16.321C19.5204 16.321 16.0035 19.8379 16.0035 24.1778C16.0035 28.5177 19.5204 32.0346 23.8603 32.0346C28.2002 32.0346 31.7171 28.5177 31.7171 24.1778Z" stroke="white" stroke-width="2" stroke-linecap="round" stroke-linejoin="round"/>
<path d="M40.02 45V39.41H34V37.59H40.02V32H41.98V37.59H48V39.41H41.98V45H40.02Z" fill="white"/>
</svg>
