<svg width="40" height="40" viewBox="0 0 40 40" fill="none" xmlns="http://www.w3.org/2000/svg">
    <rect x="5.46387" y="5.46362" width="29.25" height="29.25" rx="7" fill="#0866FF"/>
    <path d="M34.5366 20.0534C34.5366 11.9957 28.0284 5.46362 20.0002 5.46362C11.972 5.46362 5.46387 11.9957 5.46387 20.0534C5.46387 26.8957 10.1571 32.6369 16.4886 34.2135V24.5117H13.4911V20.0534H16.4886V18.1322C16.4886 13.1664 18.7277 10.8647 23.5852 10.8647C24.5061 10.8647 26.095 11.0459 26.7451 11.2272V15.2688C26.402 15.2325 25.8062 15.2144 25.0659 15.2144C22.6822 15.2144 21.7613 16.1206 21.7613 18.4767V20.0534H26.5093L25.6937 24.5117H21.7613V34.5364C28.9588 33.6637 34.5366 27.5127 34.5366 20.0534Z" fill="#0866FF"/>
    <path d="M26.3643 24.9658L27.2761 20H21.9684V18.2439C21.9684 15.6196 22.9978 14.6103 25.6623 14.6103C26.49 14.6103 27.1562 14.6305 27.5397 14.6708V10.1694C26.813 9.96751 25.0365 9.76562 24.0071 9.76562C18.5772 9.76562 16.074 12.3293 16.074 17.8604V20H12.7231V24.9658H16.074V35.7714C17.3313 36.0834 18.6459 36.25 19.9997 36.25C20.6661 36.25 21.3229 36.2089 21.9684 36.131V24.9658H26.3643Z" fill="white"/>
    </svg>
    