<svg width="24" height="25" viewBox="0 0 24 25" fill="none" xmlns="http://www.w3.org/2000/svg">
<path d="M13.749 13.499C13.749 12.8105 14.3085 12.251 15 12.251C15.1641 12.251 15.3266 12.2833 15.4782 12.3461C15.6298 12.4089 15.7675 12.5009 15.8835 12.617C15.9996 12.733 16.0916 12.8707 16.1544 13.0223C16.2172 13.1739 16.2495 13.3364 16.2495 13.5005C16.2495 13.6646 16.2172 13.8271 16.1544 13.9787C16.0916 14.1303 15.9996 14.268 15.8835 14.384C15.7675 14.5001 15.6298 14.5921 15.4782 14.6549C15.3266 14.7177 15.1641 14.75 15 14.75C14.8357 14.7501 14.673 14.7178 14.5212 14.655C14.3693 14.5921 14.2314 14.5 14.1152 14.3838C13.999 14.2676 13.9069 14.1297 13.844 13.9779C13.7812 13.826 13.7489 13.6633 13.749 13.499ZM21.999 12.5V22.499H2.00101V12.5C2.00101 7.00101 6.50101 2.50101 12 2.50101C17.499 2.50101 21.999 7.00101 21.999 12.5ZM3.99901 12.5C3.99901 16.9093 7.59151 20.501 12 20.501C16.4093 20.501 20.001 16.9085 20.001 12.5C20.001 11.7088 19.881 10.9505 19.6703 10.241C18.9495 10.4113 18.1995 10.499 17.4203 10.499C14.0505 10.499 11.0715 8.82876 9.26026 6.26901C8.27819 8.6626 6.41166 10.5858 4.04851 11.639C3.99901 11.9203 3.99901 12.2098 3.99901 12.5ZM9.00001 14.75C9.33159 14.7502 9.64968 14.6187 9.88429 14.3843C10.1189 14.15 10.2508 13.8321 10.251 13.5005C10.2512 13.1689 10.1197 12.8508 9.88535 12.6162C9.65102 12.3816 9.33309 12.2497 9.00151 12.2495C8.66992 12.2493 8.35183 12.3808 8.11723 12.6152C7.88262 12.8495 7.75071 13.1674 7.75051 13.499C7.75031 13.8306 7.88184 14.1487 8.11617 14.3833C8.35049 14.6179 8.66842 14.7498 9.00001 14.75Z" fill="white"/>
</svg>
