<svg width="20" height="18" viewBox="0 0 20 18" fill="none" xmlns="http://www.w3.org/2000/svg">
<path d="M16.5625 0.15332H3.4375C1.98719 0.15332 0.8125 1.32801 0.8125 2.77832V12.773C0.8125 14.2233 1.98719 15.398 3.4375 15.398H5.40625V17.6096C5.40625 17.7408 5.51781 17.8524 5.64906 17.8458C7.23719 17.7539 8.5825 16.7761 9.2125 15.398H16.5625C18.0128 15.398 19.1875 14.2233 19.1875 12.773V2.77832C19.1875 1.32801 18.0128 0.15332 16.5625 0.15332ZM10.42 11.6699C10.3609 11.7296 10.2953 11.7683 10.2231 11.8011C10.1509 11.8274 10.0787 11.847 10 11.847C9.8425 11.847 9.69156 11.7814 9.58 11.6692C9.475 11.5649 9.40938 11.4074 9.40938 11.2558C9.40938 11.0989 9.475 10.9473 9.58 10.8358C9.74406 10.6717 10.0066 10.6192 10.2231 10.7111C10.2953 10.7373 10.3609 10.7833 10.42 10.8358C10.525 10.9473 10.5906 11.0983 10.5906 11.2558C10.5906 11.408 10.525 11.5655 10.42 11.6699ZM11.1432 8.47129C10.8026 8.6452 10.5906 8.97135 10.5906 9.32245C10.5906 9.6486 10.3262 9.91307 10 9.91307C9.67384 9.91307 9.40938 9.6486 9.40938 9.32245C9.40938 8.52445 9.86809 7.79535 10.6064 7.41932C11.0697 7.18373 11.4641 6.62395 11.302 5.90535C11.1911 5.41448 10.8006 5.02795 10.3078 4.92098C9.59509 4.76545 9.03662 5.16116 8.80366 5.62316C8.70916 5.8102 8.66125 6.01298 8.66125 6.22495C8.66125 6.5511 8.39678 6.81557 8.07063 6.81557C7.74447 6.81557 7.48 6.5511 7.48 6.22495C7.48 5.83185 7.57319 5.44007 7.74906 5.09095C8.2675 4.06326 9.4225 3.51529 10.5585 3.76598C11.4982 3.97007 12.2417 4.7077 12.4537 5.64417C12.7116 6.78407 12.1728 7.94695 11.1432 8.47129Z" fill="#1976D2"/>
</svg>
