<svg width="22" height="22" viewBox="0 0 22 22" fill="none" xmlns="http://www.w3.org/2000/svg">
<path d="M14.8063 18.7966C14.8325 18.7966 14.8675 18.8141 14.8938 18.8141C16.5913 17.9741 17.9738 16.5829 18.8225 14.8854C18.8225 14.8591 18.805 14.8241 18.805 14.7979C17.7375 15.1129 16.635 15.3491 15.5413 15.5329C15.3488 16.6354 15.1213 17.7291 14.8063 18.7966Z" fill="#2E3E65"/>
<path d="M3.1775 14.8941C4.04375 16.6354 5.4875 18.0441 7.24625 18.8929C6.91375 17.7816 6.63375 16.6616 6.45 15.5329C5.3475 15.3491 4.2625 15.1129 3.195 14.7979C3.20375 14.8329 3.1775 14.8679 3.1775 14.8941Z" fill="#2E3E65"/>
<path d="M3.1075 7.24617C4.21 6.91367 5.32125 6.64242 6.45 6.44992C6.63375 5.32117 6.905 4.20117 7.24625 3.10742C5.435 3.97367 3.97375 5.43492 3.1075 7.24617Z" fill="#2E3E65"/>
<path d="M14.8063 3.20398C15.1213 4.27148 15.3488 5.35648 15.5325 6.45898C16.6613 6.63398 17.7813 6.91398 18.8925 7.24648C18.0438 5.48773 16.635 4.04398 14.8938 3.17773C14.8675 3.17773 14.8325 3.20398 14.8063 3.20398Z" fill="#2E3E65"/>
<path d="M7.94625 6.26625C9.97625 6.03875 12.0237 6.03875 14.0537 6.26625C13.835 5.0675 13.555 3.86875 13.1612 2.71375C13.1437 2.64375 13.1525 2.59125 13.1437 2.52125C12.4525 2.355 11.7437 2.25 11 2.25C10.265 2.25 9.5475 2.355 8.865 2.52125C8.85625 2.59125 8.85625 2.64375 8.83875 2.71375C8.445 3.8775 8.165 5.0675 7.94625 6.26625Z" fill="#2E3E65"/>
<path d="M15.7337 14.0538C16.9412 13.835 18.1313 13.555 19.2863 13.1613C19.3563 13.1438 19.4088 13.1525 19.4788 13.1438C19.645 12.4525 19.75 11.7438 19.75 11C19.75 10.265 19.645 9.54754 19.4788 8.86504C19.4088 8.85629 19.3563 8.85629 19.2863 8.83879C18.1225 8.45379 16.9412 8.16504 15.7337 7.94629C15.9525 9.97629 15.9525 12.0238 15.7337 14.0538Z" fill="#2E3E65"/>
<path d="M2.25 11C2.25 11.7438 2.355 12.4525 2.52125 13.1438C2.59125 13.1525 2.64375 13.1438 2.71375 13.1613C3.8775 13.5463 5.0675 13.835 6.26625 14.0538C6.03875 12.0238 6.03875 9.97629 6.26625 7.94629C5.0675 8.16504 3.86875 8.44504 2.71375 8.83879C2.64375 8.85629 2.59125 8.86504 2.52125 8.86504C2.355 9.55629 2.25 10.265 2.25 11Z" fill="#2E3E65"/>
<path d="M7.94625 15.7334C8.165 16.9409 8.445 18.1309 8.83875 19.2859C8.85625 19.3559 8.85625 19.4084 8.865 19.4784C9.5475 19.6446 10.265 19.7496 11 19.7496C11.7437 19.7496 12.4525 19.6446 13.1437 19.4784C13.1525 19.4084 13.1437 19.3559 13.1612 19.2859C13.5462 18.1221 13.835 16.9409 14.0537 15.7334C13.0387 15.8471 12.0237 15.9259 11 15.9259C9.97625 15.9259 8.9525 15.8471 7.94625 15.7334Z" fill="#2E3E65"/>
<path d="M7.70709 14.2929C9.89554 14.569 12.1045 14.569 14.2929 14.2929C14.569 12.1045 14.569 9.89554 14.2929 7.70709C12.1045 7.43097 9.89554 7.43097 7.70709 7.70709C7.43097 9.89554 7.43097 12.1045 7.70709 14.2929Z" fill="#2E3E65"/>
</svg>
