<svg width="16" height="17" viewBox="0 0 16 17" fill="none" xmlns="http://www.w3.org/2000/svg">
<g clip-path="url(#clip0_692_689)">
<mask id="mask0_692_689" style="mask-type:luminance" maskUnits="userSpaceOnUse" x="0" y="0" width="16" height="17">
<path d="M0 0.5H16V16.5H0V0.5Z" fill="white"/>
</mask>
<g mask="url(#mask0_692_689)">
<path d="M14.4442 8.2204C14.4442 8.2204 14.9208 7.52566 14.2257 7.04945C13.5314 6.57324 13.0552 7.26798 13.0552 7.26798L10.8442 10.4924C10.7684 10.3652 10.6846 10.2398 10.592 10.116L13.6606 5.64061C13.6606 5.64061 14.1368 4.94629 13.4421 4.47008C12.7478 3.99345 12.2716 4.68819 12.2716 4.68819L9.38484 8.89745C9.27747 8.80945 9.168 8.72187 9.05432 8.63556L12.4004 3.75556C12.4004 3.75556 12.8766 3.06124 12.1823 2.58503C11.488 2.1084 11.0118 2.80314 11.0118 2.80314L7.66526 7.68272C7.54232 7.60693 7.42063 7.54166 7.29895 7.47303L10.4261 2.91219C10.4261 2.91219 10.9023 2.21787 10.2076 1.74166C9.51326 1.26503 9.03705 1.95977 9.03705 1.95977L5.73011 6.78208L5.46526 7.16861L5.22737 7.51598C7.31074 8.94461 7.50905 11.6335 6.31874 13.3695C6.08042 13.7168 5.73347 13.4789 5.73347 13.4789C7.1621 11.3951 6.72547 9.05366 4.64168 7.62503L5.25726 4.5505C5.25726 4.5505 5.48674 3.73998 4.67663 3.5105C3.86653 3.28103 3.63705 4.09114 3.63705 4.09114L2.92758 6.19808C2.64632 7.03345 2.34695 7.86587 1.95074 8.65282C0.832 10.876 1.50021 13.6393 3.61011 15.0861C5.91116 16.6638 9.05642 16.0777 10.6345 13.7766C10.7179 13.6545 10.7878 13.5353 10.8543 13.4162L10.8728 13.4292L14.4442 8.2204Z" fill="url(#paint0_linear_692_689)"/>
<path d="M1.28084 3.86841H0.438736C0.439627 3.09168 0.748576 2.34702 1.29781 1.79779C1.84703 1.24856 2.59169 0.939616 3.36842 0.938725V1.78083C2.81496 1.7815 2.28437 2.00165 1.89302 2.39301C1.50166 2.78436 1.28151 3.31495 1.28084 3.86841Z" fill="url(#paint1_linear_692_689)"/>
<path d="M2.10526 5.97363H1.26315C1.26315 3.65195 3.152 1.76311 5.47368 1.76311V2.60521C3.61642 2.60521 2.10526 4.11637 2.10526 5.97363Z" fill="url(#paint2_linear_692_689)"/>
<path d="M12.6316 16.0789V15.2368C13.8947 15.2368 14.7368 14.3946 14.7368 13.1315H15.5789C15.5789 14.8157 14.3158 16.0789 12.6316 16.0789Z" fill="url(#paint3_linear_692_689)"/>
<path d="M10.5263 15.2544V14.4123C12.2105 14.4123 13.9124 12.7104 13.9124 11.0262H14.7545C14.7545 13.5525 13.0526 15.2544 10.5263 15.2544Z" fill="url(#paint4_linear_692_689)"/>
</g>
</g>
<defs>
<linearGradient id="paint0_linear_692_689" x1="8.00897" y1="15.9719" x2="8.00897" y2="1.5746" gradientUnits="userSpaceOnUse">
<stop stop-color="#FFD900"/>
</linearGradient>
<linearGradient id="paint1_linear_692_689" x1="1.90358" y1="3.86841" x2="1.90358" y2="0.938725" gradientUnits="userSpaceOnUse">
<stop stop-color="#FFD900"/>
</linearGradient>
<linearGradient id="paint2_linear_692_689" x1="3.36842" y1="5.97363" x2="3.36842" y2="1.76311" gradientUnits="userSpaceOnUse">
<stop stop-color="#FFD900"/>
</linearGradient>
<linearGradient id="paint3_linear_692_689" x1="14.1053" y1="16.0789" x2="14.1053" y2="13.1315" gradientUnits="userSpaceOnUse">
<stop stop-color="#FFD900"/>
</linearGradient>
<linearGradient id="paint4_linear_692_689" x1="12.6404" y1="15.2544" x2="12.6404" y2="11.0262" gradientUnits="userSpaceOnUse">
<stop stop-color="#FFD900"/>
</linearGradient>
<clipPath id="clip0_692_689">
<rect width="16" height="16" fill="white" transform="translate(0 0.5)"/>
</clipPath>
</defs>
</svg>
