<svg width="22" height="22" viewBox="0 0 22 22" fill="none" xmlns="http://www.w3.org/2000/svg">
<path d="M15.7617 19.8281V20.5H6.50977V19.8281H15.7617ZM3.72559 17.9902C3.91838 18.8833 4.61673 19.5806 5.50977 19.7734V20.4561C5.38361 20.435 5.25832 20.4091 5.13574 20.3721L4.85645 20.2725C4.58247 20.1593 4.32702 20.0066 4.09863 19.8193L3.87988 19.6201C3.67024 19.4105 3.49262 19.1717 3.35352 18.9111L3.22754 18.6436C3.14067 18.4333 3.0812 18.2136 3.04395 17.9902H3.72559ZM19.2275 17.9902C19.2065 18.1164 19.1805 18.2417 19.1436 18.3643L19.0439 18.6436C18.893 19.0089 18.6711 19.3406 18.3916 19.6201C18.1121 19.8996 17.7804 20.1215 17.415 20.2725C17.2048 20.3593 16.9851 20.4188 16.7617 20.4561V19.7734C17.6547 19.5805 18.3531 18.8833 18.5459 17.9902H19.2275ZM9.7998 13.8965V14.8457L6.79492 11.8408L7.26953 11.3662L9.7998 13.8965ZM15.4766 11.8408L12.4717 14.8457V13.8965L15.002 11.3662L15.4766 11.8408ZM11.4717 2.83594V13.4824L11.1357 13.8184L10.7998 13.4824V2.83594H11.4717Z" stroke="#9F9F9F"/>
</svg>
