<svg width="22" height="22" viewBox="0 0 22 22" fill="none" xmlns="http://www.w3.org/2000/svg">
<g clip-path="url(#clip0_193_2947)">
<mask id="path-1-inside-1_193_2947" fill="white">
<path fill-rule="evenodd" clip-rule="evenodd" d="M11.5189 20.8506L11.5092 20.8524L11.4471 20.883L11.4296 20.8865L11.4174 20.883L11.3552 20.8524C11.3459 20.8495 11.3389 20.8509 11.3342 20.8568L11.3307 20.8655L11.3159 21.24L11.3202 21.2575L11.329 21.2689L11.42 21.3336L11.4331 21.3371L11.4436 21.3336L11.5346 21.2689L11.5451 21.2549L11.5486 21.24L11.5337 20.8664C11.5314 20.8571 11.5265 20.8518 11.5189 20.8506ZM11.7507 20.7518L11.7394 20.7535L11.5775 20.8349L11.5687 20.8436L11.5661 20.8533L11.5819 21.2295L11.5862 21.24L11.5932 21.2461L11.7691 21.3275C11.7802 21.3304 11.7887 21.3281 11.7945 21.3205L11.798 21.3083L11.7682 20.771C11.7653 20.7605 11.7595 20.7541 11.7507 20.7518ZM11.1251 20.7535C11.1213 20.7512 11.1167 20.7504 11.1123 20.7514C11.1079 20.7524 11.104 20.755 11.1015 20.7588L11.0962 20.771L11.0665 21.3083C11.0671 21.3188 11.072 21.3258 11.0814 21.3293L11.0945 21.3275L11.2704 21.2461L11.2791 21.2391L11.2826 21.2295L11.2975 20.8533L11.2949 20.8428L11.2861 20.834L11.1251 20.7535Z"/>
</mask>
<path d="M11.5189 20.8506L11.6709 19.8623L11.5051 19.8367L11.3399 19.8668L11.5189 20.8506ZM11.5092 20.8524L11.3303 19.8685L11.1926 19.8936L11.0671 19.9554L11.5092 20.8524ZM11.4471 20.883L11.6432 21.8636L11.7717 21.8379L11.8893 21.78L11.4471 20.883ZM11.4296 20.8865L11.1549 21.848L11.388 21.9146L11.6257 21.8671L11.4296 20.8865ZM11.4174 20.883L10.9752 21.78L11.056 21.8198L11.1427 21.8445L11.4174 20.883ZM11.3552 20.8524L11.7974 19.9554L11.7277 19.9211L11.6535 19.8979L11.3552 20.8524ZM11.3342 20.8568L10.5534 20.2321L10.4608 20.3478L10.4058 20.4854L11.3342 20.8568ZM11.3307 20.8655L10.4023 20.4942L10.3384 20.6539L10.3315 20.8258L11.3307 20.8655ZM11.3159 21.24L10.3167 21.2003L10.311 21.3435L10.3457 21.4825L11.3159 21.24ZM11.3202 21.2575L10.3501 21.5L10.4006 21.7021L10.5276 21.8672L11.3202 21.2575ZM11.329 21.2689L10.5364 21.8786L10.6275 21.997L10.7492 22.0837L11.329 21.2689ZM11.42 21.3336L10.8402 22.1484L10.9876 22.2533L11.1624 22.2999L11.42 21.3336ZM11.4331 21.3371L11.1755 22.3034L11.465 22.3806L11.7493 22.2858L11.4331 21.3371ZM11.4436 21.3336L11.7598 22.2823L11.9016 22.2351L12.0234 22.1484L11.4436 21.3336ZM11.5346 21.2689L12.1144 22.0837L12.2412 21.9934L12.3346 21.8689L11.5346 21.2689ZM11.5451 21.2549L12.3451 21.8549L12.4706 21.6875L12.5185 21.4839L11.5451 21.2549ZM11.5486 21.24L12.522 21.469L12.5533 21.3364L12.5478 21.2002L11.5486 21.24ZM11.5337 20.8664L12.533 20.8266L12.5289 20.7237L12.5039 20.6238L11.5337 20.8664ZM11.7507 20.7518L12.0084 19.7855L11.8059 19.7315L11.5988 19.7634L11.7507 20.7518ZM11.7394 20.7535L11.5874 19.7651L11.4313 19.7891L11.2902 19.8601L11.7394 20.7535ZM11.5775 20.8349L11.1284 19.9414L10.9844 20.0138L10.8704 20.1278L11.5775 20.8349ZM11.5687 20.8436L10.8616 20.1365L10.6738 20.3243L10.604 20.5806L11.5687 20.8436ZM11.5661 20.8533L10.6013 20.5902L10.5605 20.74L10.567 20.8951L11.5661 20.8533ZM11.5819 21.2295L10.5827 21.2713L10.5902 21.4495L10.6588 21.6142L11.5819 21.2295ZM11.5862 21.24L10.6632 21.6247L10.7527 21.8394L10.9278 21.9926L11.5862 21.24ZM11.5932 21.2461L10.9348 21.9987L11.0429 22.0934L11.1733 22.1537L11.5932 21.2461ZM11.7691 21.3275L11.3492 22.2351L11.4293 22.2721L11.5146 22.2946L11.7691 21.3275ZM11.7945 21.3205L12.5871 21.9302L12.7036 21.7788L12.756 21.5952L11.7945 21.3205ZM11.798 21.3083L12.7595 21.583L12.8058 21.4211L12.7965 21.253L11.798 21.3083ZM11.7682 20.771L12.7667 20.7157L12.7607 20.6077L12.7318 20.5034L11.7682 20.771ZM11.1251 20.7535L10.6068 21.6087L10.6416 21.6298L10.6779 21.6479L11.1251 20.7535ZM11.1015 20.7588L10.2698 20.2036L10.2186 20.2802L10.1824 20.3648L11.1015 20.7588ZM11.0962 20.771L10.1771 20.3771L10.1075 20.5394L10.0978 20.7157L11.0962 20.771ZM11.0665 21.3083L10.068 21.253L10.065 21.3084L10.068 21.3637L11.0665 21.3083ZM11.0814 21.3293L10.7302 22.2656L10.965 22.3536L11.2136 22.3205L11.0814 21.3293ZM11.0945 21.3275L11.2267 22.3187L11.3769 22.2987L11.5144 22.2351L11.0945 21.3275ZM11.2704 21.2461L11.6903 22.1537L11.8003 22.1028L11.895 22.027L11.2704 21.2461ZM11.2791 21.2391L11.9038 22.02L12.123 21.8447L12.2189 21.5809L11.2791 21.2391ZM11.2826 21.2295L12.2224 21.5712L12.2757 21.4248L12.2818 21.269L11.2826 21.2295ZM11.2975 20.8533L12.2967 20.8928L12.3024 20.7496L12.2676 20.6107L11.2975 20.8533ZM11.2949 20.8428L12.265 20.6002L12.1978 20.3315L12.002 20.1357L11.2949 20.8428ZM11.2861 20.834L11.9932 20.1269L11.8785 20.0122L11.7333 19.9396L11.2861 20.834ZM11.3399 19.8668L11.3303 19.8685L11.6882 21.8362L11.6978 21.8345L11.3399 19.8668ZM11.0671 19.9554L11.005 19.9861L11.8893 21.78L11.9514 21.7493L11.0671 19.9554ZM11.251 19.9024L11.2335 19.9059L11.6257 21.8671L11.6432 21.8636L11.251 19.9024ZM11.7043 19.925L11.6921 19.9215L11.1427 21.8445L11.1549 21.848L11.7043 19.925ZM11.8595 19.9861L11.7974 19.9554L10.9131 21.7493L10.9752 21.78L11.8595 19.9861ZM11.6535 19.8979C11.5434 19.8635 11.3595 19.8264 11.1391 19.8723C10.8971 19.9227 10.694 20.0563 10.5534 20.2321L12.1151 21.4815C11.9792 21.6513 11.7819 21.7813 11.5469 21.8303C11.3335 21.8747 11.1578 21.8384 11.057 21.8069L11.6535 19.8979ZM10.4058 20.4854L10.4023 20.4942L12.2592 21.2369L12.2627 21.2281L10.4058 20.4854ZM10.3315 20.8258L10.3167 21.2003L12.3151 21.2797L12.33 20.9052L10.3315 20.8258ZM10.3457 21.4825L10.3501 21.5L12.2904 21.015L12.286 20.9975L10.3457 21.4825ZM10.5276 21.8672L10.5364 21.8786L12.1216 20.6592L12.1129 20.6478L10.5276 21.8672ZM10.7492 22.0837L10.8402 22.1484L11.9998 20.5188L11.9088 20.4541L10.7492 22.0837ZM11.1624 22.2999L11.1755 22.3034L11.6908 20.3709L11.6776 20.3674L11.1624 22.2999ZM11.7493 22.2858L11.7598 22.2823L11.1274 20.3849L11.1169 20.3884L11.7493 22.2858ZM12.0234 22.1484L12.1144 22.0837L10.9549 20.4541L10.8639 20.5188L12.0234 22.1484ZM12.3346 21.8689L12.3451 21.8549L10.7451 20.6549L10.7346 20.6689L12.3346 21.8689ZM12.5185 21.4839L12.522 21.469L10.5752 21.011L10.5717 21.0259L12.5185 21.4839ZM12.5478 21.2002L12.533 20.8266L10.5345 20.9062L10.5494 21.2798L12.5478 21.2002ZM12.5039 20.6238C12.4745 20.5061 12.4083 20.3309 12.2553 20.1688C12.0902 19.994 11.8799 19.8944 11.6709 19.8623L11.3668 21.839C11.1654 21.808 10.9614 21.7117 10.8013 21.5421C10.6532 21.3853 10.5907 21.2173 10.5636 21.1089L12.5039 20.6238ZM11.5988 19.7634L11.5874 19.7651L11.8914 21.7419L11.9027 21.7401L11.5988 19.7634ZM11.2902 19.8601L11.1284 19.9414L12.0266 21.7283L12.1885 21.647L11.2902 19.8601ZM10.8704 20.1278L10.8616 20.1365L12.2759 21.5507L12.2846 21.542L10.8704 20.1278ZM10.604 20.5806L10.6013 20.5902L12.5309 21.1163L12.5335 21.1067L10.604 20.5806ZM10.567 20.8951L10.5827 21.2713L12.581 21.1877L12.5652 20.8114L10.567 20.8951ZM10.6588 21.6142L10.6632 21.6247L12.5093 20.8554L12.5049 20.8449L10.6588 21.6142ZM10.9278 21.9926L10.9348 21.9987L12.2517 20.4935L12.2447 20.4874L10.9278 21.9926ZM11.1733 22.1537L11.3492 22.2351L12.189 20.4199L12.0132 20.3386L11.1733 22.1537ZM11.5146 22.2946C11.6399 22.3276 11.8309 22.3523 12.0497 22.2919C12.2825 22.2277 12.4644 22.0897 12.5871 21.9302L11.0019 20.7108C11.1187 20.5589 11.2935 20.4258 11.5179 20.3639C11.7282 20.3059 11.9094 20.3304 12.0236 20.3604L11.5146 22.2946ZM12.756 21.5952L12.7595 21.583L10.8365 21.0336L10.833 21.0458L12.756 21.5952ZM12.7965 21.253L12.7667 20.7157L10.7698 20.8263L10.7995 21.3636L12.7965 21.253ZM12.7318 20.5034C12.6567 20.233 12.4342 19.8991 12.0084 19.7855L11.4931 21.718C11.3205 21.672 11.154 21.5764 11.0218 21.431C10.896 21.2927 10.8346 21.1463 10.8047 21.0387L12.7318 20.5034ZM11.6434 19.8983C11.4191 19.7624 11.1511 19.7184 10.8953 19.7752L11.3292 21.7276C11.0822 21.7825 10.8234 21.74 10.6068 21.6087L11.6434 19.8983ZM10.8953 19.7752C10.6395 19.8321 10.4154 19.9855 10.2698 20.2036L11.9332 21.314C11.7926 21.5246 11.5762 21.6727 11.3292 21.7276L10.8953 19.7752ZM10.1824 20.3648L10.1771 20.3771L12.0154 21.165L12.0206 21.1527L10.1824 20.3648ZM10.0978 20.7157L10.068 21.253L12.065 21.3636L12.0947 20.8263L10.0978 20.7157ZM10.068 21.3637C10.0764 21.5143 10.1211 21.711 10.2546 21.8994C10.3906 22.0914 10.5694 22.2053 10.7302 22.2656L11.4325 20.3929C11.584 20.4497 11.7557 20.5584 11.8867 20.7434C12.0152 20.9248 12.0572 21.1127 12.065 21.2528L10.068 21.3637ZM11.2136 22.3205L11.2267 22.3187L10.9623 20.3363L10.9492 20.338L11.2136 22.3205ZM11.5144 22.2351L11.6903 22.1537L10.8505 20.3386L10.6746 20.4199L11.5144 22.2351ZM11.895 22.027L11.9038 22.02L10.6545 20.4582L10.6457 20.4652L11.895 22.027ZM12.2189 21.5809L12.2224 21.5712L10.3428 20.8878L10.3393 20.8974L12.2189 21.5809ZM12.2818 21.269L12.2967 20.8928L10.2983 20.8138L10.2834 21.19L12.2818 21.269ZM12.2676 20.6107L12.265 20.6002L10.3247 21.0853L10.3274 21.0958L12.2676 20.6107ZM12.002 20.1357L11.9932 20.1269L10.579 21.5411L10.5878 21.5499L12.002 20.1357ZM11.7333 19.9396L11.5723 19.8591L10.6779 21.6479L10.8389 21.7284L11.7333 19.9396Z" fill="#9F9F9F" mask="url(#path-1-inside-1_193_2947)"/>
<path fill-rule="evenodd" clip-rule="evenodd" d="M3.125 4.4375C3.125 4.0894 3.26328 3.75556 3.50942 3.50942C3.75556 3.26328 4.0894 3.125 4.4375 3.125H17.5625C17.9106 3.125 18.2444 3.26328 18.4906 3.50942C18.7367 3.75556 18.875 4.0894 18.875 4.4375V6.26275C18.8749 6.72684 18.6905 7.17189 18.3622 7.5L13.625 12.2372V18.7332C13.625 18.8973 13.5831 19.0587 13.5032 19.202C13.4233 19.3453 13.3081 19.4659 13.1685 19.5521C13.029 19.6384 12.8697 19.6875 12.7058 19.6949C12.5418 19.7023 12.3788 19.6676 12.232 19.5942L8.97962 17.9685C8.79795 17.8777 8.64515 17.738 8.53836 17.5653C8.43157 17.3925 8.37501 17.1934 8.375 16.9902V12.2372L3.63775 7.5C3.30954 7.17189 3.1251 6.72684 3.125 6.26275V4.4375Z" fill="#9F9F9F"/>
</g>
<defs>
<clipPath id="clip0_193_2947">
<rect width="21" height="21" fill="white" transform="translate(0.5 0.5)"/>
</clipPath>
</defs>
</svg>
