<svg width="20" height="15" viewBox="0 0 20 15" fill="none" xmlns="http://www.w3.org/2000/svg">
    <rect x="0.5" y="0.5" width="19" height="13.8387" rx="2.5" stroke="white"/>
    <g clip-path="url(#clip0_562_4183)">
    <path d="M13.2259 6.92253C12.7105 6.92234 12.2148 6.74324 11.8404 6.422C11.466 6.10077 11.2414 5.66175 11.2126 5.19505L11.1708 4.51161C11.1554 4.26323 11.1961 4.01462 11.2904 3.781C11.3847 3.54737 11.5305 3.33365 11.7189 3.1529C11.9074 2.97214 12.1345 2.82817 12.3864 2.72977C12.6384 2.63137 12.9098 2.58062 13.1841 2.58063L13.2678 2.58063C13.542 2.58062 13.8134 2.63137 14.0654 2.72977C14.3173 2.82817 14.5444 2.97214 14.7329 3.1529C14.9213 3.33365 15.0672 3.54737 15.1614 3.781C15.2557 4.01462 15.2964 4.26323 15.2811 4.51161L15.2392 5.19571C15.2102 5.66229 14.9855 6.10115 14.6112 6.42224C14.2368 6.74334 13.7412 6.92235 13.2259 6.92253ZM13.1841 3.07575C12.984 3.07569 12.7861 3.11265 12.6024 3.18436C12.4187 3.25608 12.253 3.36103 12.1155 3.49282C11.9781 3.6246 11.8717 3.78043 11.8029 3.95078C11.7342 4.12114 11.7044 4.30242 11.7156 4.48355L11.7574 5.16765C11.7779 5.50828 11.9415 5.82885 12.2146 6.06341C12.4878 6.29797 12.8496 6.42869 13.2257 6.42869C13.6019 6.42869 13.9637 6.29797 14.2368 6.06341C14.5099 5.82885 14.6735 5.50828 14.694 5.16765L14.7359 4.48355C14.747 4.30245 14.7173 4.12119 14.6486 3.95086C14.5798 3.78053 14.4735 3.62471 14.336 3.49294C14.1986 3.36116 14.033 3.25619 13.8493 3.18446C13.6656 3.11273 13.4677 3.07574 13.2678 3.07575H13.1841Z" fill="white"/>
    <path d="M15.7136 9.6774H10.7382C10.457 9.6771 10.1874 9.57564 9.98853 9.3953C9.78969 9.21495 9.67783 8.97043 9.67749 8.71538C9.67844 8.39617 9.74966 8.08034 9.88696 7.78642C10.0243 7.4925 10.2249 7.22641 10.4771 7.00374C10.9916 6.55212 11.6806 6.30107 12.3966 6.30429C12.469 6.30429 12.5385 6.33037 12.5897 6.3768C12.6408 6.42323 12.6696 6.4862 12.6696 6.55185C12.6696 6.61751 12.6408 6.68048 12.5897 6.72691C12.5385 6.77333 12.469 6.79941 12.3966 6.79941C11.8231 6.79933 11.2715 6.99984 10.8568 7.35923C10.6571 7.53568 10.4981 7.74652 10.3894 7.97939C10.2806 8.21226 10.2242 8.46248 10.2234 8.71538C10.2236 8.83916 10.2779 8.95781 10.3744 9.04533C10.4709 9.13286 10.6017 9.18211 10.7382 9.18228H15.7136C15.85 9.18211 15.9809 9.13286 16.0774 9.04533C16.1739 8.95781 16.2282 8.83916 16.2284 8.71538C16.2276 8.29871 16.0758 7.89384 15.7962 7.56323C15.7549 7.51107 15.7376 7.44641 15.7479 7.3829C15.7582 7.31939 15.7953 7.26198 15.8514 7.2228C15.9074 7.18362 15.9781 7.16572 16.0484 7.17289C16.1188 7.18005 16.1833 7.21172 16.2284 7.2612C16.5813 7.6785 16.7731 8.18947 16.7743 8.71538C16.7739 8.97043 16.6621 9.21495 16.4632 9.3953C16.2644 9.57564 15.9948 9.6771 15.7136 9.6774Z" fill="white"/>
    <path d="M15.2075 7.05158C15.1715 7.05191 15.1359 7.04563 15.1028 7.03312C15.0696 7.02061 15.0396 7.00213 15.0146 6.9788C14.9883 6.95622 14.9678 6.92866 14.9545 6.89809C14.9406 6.86837 14.9338 6.83631 14.9345 6.80402C14.9344 6.78794 14.9363 6.77189 14.94 6.75616C14.9429 6.7403 14.9477 6.7248 14.9545 6.70995C14.9612 6.69481 14.9697 6.68042 14.98 6.66704C14.99 6.65328 15.0015 6.64055 15.0146 6.62908C15.027 6.61771 15.0404 6.60723 15.0546 6.59772C15.0694 6.58894 15.0853 6.58174 15.1019 6.57626C15.1183 6.56983 15.1354 6.56485 15.1529 6.56141C15.1883 6.55481 15.2248 6.55481 15.2602 6.56141C15.2777 6.56485 15.2948 6.56983 15.3112 6.57626C15.3278 6.58174 15.3437 6.58894 15.3585 6.59772C15.3733 6.60721 15.3873 6.61769 15.4003 6.62908C15.4373 6.6646 15.4631 6.70849 15.4749 6.75616C15.4787 6.77189 15.4805 6.78794 15.4804 6.80402C15.4805 6.83642 15.4731 6.86849 15.4586 6.89809C15.446 6.92857 15.4261 6.95614 15.4003 6.9788C15.3746 7.00179 15.3444 7.02026 15.3112 7.03326C15.2782 7.04527 15.243 7.05149 15.2075 7.05158Z" fill="white"/>
    </g>
    <line x1="2.58057" y1="6.5968" x2="8.38702" y2="6.5968" stroke="white"/>
    <line x1="2.58057" y1="11.7581" x2="16.7741" y2="11.7581" stroke="white"/>
    <line x1="2.58057" y1="9.17743" x2="8.38702" y2="9.17743" stroke="white"/>
    <defs>
    <clipPath id="clip0_562_4183">
    <rect width="7.09677" height="7.09677" fill="white" transform="translate(9.67749 2.58063)"/>
    </clipPath>
    </defs>
    </svg>
    