<svg width="58" height="51" viewBox="0 0 58 51" fill="none" xmlns="http://www.w3.org/2000/svg">
<g id="Iconly/Light/Image 3">
<g id="Image 2">
<path id="Stroke 1" fill-rule="evenodd" clip-rule="evenodd" d="M39.3982 5.84332H18.4892C11.2102 5.84332 6.64511 10.3781 6.64511 16.7956V34.1058C6.64511 40.5233 11.1909 45.0581 18.4892 45.0581H39.3861C46.6965 45.0581 51.2399 40.5233 51.2399 34.1058V16.7956C51.2495 10.3781 46.7038 5.84332 39.3982 5.84332Z" stroke="#9A328A" stroke-width="1.5" stroke-linecap="round" stroke-linejoin="round"/>
<path id="Stroke 3" fill-rule="evenodd" clip-rule="evenodd" d="M25.8658 18.6681C25.8658 20.8356 23.8697 22.5909 21.4047 22.5909C18.9421 22.5909 16.9435 20.8356 16.9435 18.6681C16.9435 16.5006 18.9421 14.7454 21.4047 14.7454C23.8672 14.7475 25.8634 16.5027 25.8658 18.6681Z" stroke="#9A328A" stroke-width="1.5" stroke-linecap="round" stroke-linejoin="round"/>
<path id="Stroke 5" d="M51.2503 31.7709C49.0197 29.7521 44.7301 25.6743 40.0659 25.6743C35.3993 25.6743 32.7096 34.6694 28.2218 34.6694C23.7341 34.6694 19.6572 30.6021 16.0612 33.2095C12.4652 35.8148 9.0625 41.1421 9.0625 41.1421" stroke="#9A328A" stroke-width="1.5" stroke-linecap="round" stroke-linejoin="round"/>
</g>
</g>
</svg>
