<svg width="40" height="40" viewBox="0 0 40 40" fill="none" xmlns="http://www.w3.org/2000/svg">
    <path d="M20.0047 5.375C13.899 5.375 12.1133 5.38131 11.7661 5.4101C10.5131 5.51428 9.73345 5.71163 8.884 6.13465C8.22937 6.45982 7.71309 6.83672 7.20355 7.36507C6.27561 8.3286 5.71322 9.51399 5.50962 10.9231C5.41066 11.6071 5.38185 11.7466 5.376 15.2407C5.37375 16.4054 5.376 17.9382 5.376 19.9943C5.376 26.0968 5.38274 27.8813 5.41199 28.2277C5.51323 29.4473 5.70444 30.2146 6.10936 31.0539C6.88322 32.6605 8.36119 33.8666 10.1024 34.3167C10.7052 34.4719 11.3711 34.5576 12.226 34.598C12.5882 34.6138 16.2797 34.625 19.9735 34.625C23.6673 34.625 27.3611 34.6205 27.7144 34.6026C28.7042 34.5559 29.2789 34.4788 29.9145 34.3145C31.6669 33.8622 33.1178 32.674 33.9074 31.045C34.3044 30.2258 34.5057 29.4292 34.5969 28.2734C34.6167 28.0213 34.625 24.0032 34.625 19.9904C34.625 15.977 34.6161 11.9662 34.5962 11.7142C34.5039 10.5396 34.3026 9.74983 33.8928 8.915C33.5564 8.2316 33.183 7.72126 32.6409 7.19945C31.6734 6.27507 30.49 5.71253 29.08 5.50911C28.3969 5.41033 28.2607 5.38106 24.7648 5.375H20.0047Z" fill="url(#paint0_radial_1_1940)"/>
    <path d="M20.0047 5.375C13.899 5.375 12.1133 5.38131 11.7661 5.4101C10.5131 5.51428 9.73345 5.71163 8.884 6.13465C8.22937 6.45982 7.71309 6.83672 7.20355 7.36507C6.27561 8.3286 5.71322 9.51399 5.50962 10.9231C5.41066 11.6071 5.38185 11.7466 5.376 15.2407C5.37375 16.4054 5.376 17.9382 5.376 19.9943C5.376 26.0968 5.38274 27.8813 5.41199 28.2277C5.51323 29.4473 5.70444 30.2146 6.10936 31.0539C6.88322 32.6605 8.36119 33.8666 10.1024 34.3167C10.7052 34.4719 11.3711 34.5576 12.226 34.598C12.5882 34.6138 16.2797 34.625 19.9735 34.625C23.6673 34.625 27.3611 34.6205 27.7144 34.6026C28.7042 34.5559 29.2789 34.4788 29.9145 34.3145C31.6669 33.8622 33.1178 32.674 33.9074 31.045C34.3044 30.2258 34.5057 29.4292 34.5969 28.2734C34.6167 28.0213 34.625 24.0032 34.625 19.9904C34.625 15.977 34.6161 11.9662 34.5962 11.7142C34.5039 10.5396 34.3026 9.74983 33.8928 8.915C33.5564 8.2316 33.183 7.72126 32.6409 7.19945C31.6734 6.27507 30.49 5.71253 29.08 5.50911C28.3969 5.41033 28.2607 5.38106 24.7648 5.375H20.0047Z" fill="url(#paint1_radial_1_1940)"/>
    <path d="M20.0047 5.375C13.899 5.375 12.1133 5.38131 11.7661 5.4101C10.5131 5.51428 9.73345 5.71163 8.884 6.13465C8.22937 6.45982 7.71309 6.83672 7.20355 7.36507C6.27561 8.3286 5.71322 9.51399 5.50962 10.9231C5.41066 11.6071 5.38185 11.7466 5.376 15.2407C5.37375 16.4054 5.376 17.9382 5.376 19.9943C5.376 26.0968 5.38274 27.8813 5.41199 28.2277C5.51323 29.4473 5.70444 30.2146 6.10936 31.0539C6.88322 32.6605 8.36119 33.8666 10.1024 34.3167C10.7052 34.4719 11.3711 34.5576 12.226 34.598C12.5882 34.6138 16.2797 34.625 19.9735 34.625C23.6673 34.625 27.3611 34.6205 27.7144 34.6026C28.7042 34.5559 29.2789 34.4788 29.9145 34.3145C31.6669 33.8622 33.1178 32.674 33.9074 31.045C34.3044 30.2258 34.5057 29.4292 34.5969 28.2734C34.6167 28.0213 34.625 24.0032 34.625 19.9904C34.625 15.977 34.6161 11.9662 34.5962 11.7142C34.5039 10.5396 34.3026 9.74983 33.8928 8.915C33.5564 8.2316 33.183 7.72126 32.6409 7.19945C31.6734 6.27507 30.49 5.71253 29.08 5.50911C28.3969 5.41033 28.2607 5.38106 24.7648 5.375H20.0047Z" fill="url(#paint2_radial_1_1940)"/>
    <path d="M20.0047 5.375C13.899 5.375 12.1133 5.38131 11.7661 5.4101C10.5131 5.51428 9.73345 5.71163 8.884 6.13465C8.22937 6.45982 7.71309 6.83672 7.20355 7.36507C6.27561 8.3286 5.71322 9.51399 5.50962 10.9231C5.41066 11.6071 5.38185 11.7466 5.376 15.2407C5.37375 16.4054 5.376 17.9382 5.376 19.9943C5.376 26.0968 5.38274 27.8813 5.41199 28.2277C5.51323 29.4473 5.70444 30.2146 6.10936 31.0539C6.88322 32.6605 8.36119 33.8666 10.1024 34.3167C10.7052 34.4719 11.3711 34.5576 12.226 34.598C12.5882 34.6138 16.2797 34.625 19.9735 34.625C23.6673 34.625 27.3611 34.6204 27.7144 34.6026C28.7042 34.5559 29.2789 34.4788 29.9145 34.3145C31.6669 33.8622 33.1178 32.674 33.9074 31.045C34.3044 30.2258 34.5057 29.4292 34.5969 28.2734C34.6167 28.0213 34.625 24.0032 34.625 19.9904C34.625 15.977 34.6161 11.9662 34.5962 11.7142C34.5039 10.5396 34.3026 9.74983 33.8928 8.915C33.5564 8.2316 33.183 7.72126 32.6409 7.19945C31.6734 6.27507 30.49 5.71253 29.08 5.50911C28.3969 5.41033 28.2607 5.38106 24.7648 5.375H20.0047Z" fill="url(#paint3_radial_1_1940)"/>
    <path d="M20.0011 8.625C16.9118 8.625 16.5241 8.6385 15.3107 8.69372C14.0998 8.74918 13.2732 8.9409 12.5499 9.2222C11.8017 9.51272 11.1671 9.90137 10.5348 10.5339C9.9021 11.1661 9.51344 11.8008 9.22196 12.5487C8.93994 13.2722 8.74798 14.099 8.69349 15.3095C8.63922 16.5228 8.625 16.9107 8.625 20C8.625 23.0893 8.63875 23.4757 8.69372 24.6891C8.74943 25.9 8.94114 26.7267 9.22219 27.45C9.51296 28.1981 9.90162 28.8327 10.5341 29.465C11.1662 30.0977 11.8008 30.4873 12.5485 30.7778C13.2722 31.0591 14.099 31.2509 15.3098 31.3063C16.5231 31.3615 16.9105 31.375 19.9997 31.375C23.0891 31.375 23.4757 31.3615 24.6891 31.3063C25.9 31.2509 26.7275 31.0591 27.4513 30.7778C28.1993 30.4873 28.8328 30.0977 29.465 29.465C30.0976 28.8327 30.4863 28.1981 30.7778 27.4501C31.0575 26.7267 31.2494 25.8999 31.3063 24.6894C31.3607 23.476 31.375 23.0893 31.375 20C31.375 16.9107 31.3607 16.5231 31.3063 15.3097C31.2494 14.0987 31.0575 13.2722 30.7778 12.5489C30.4863 11.8008 30.0976 11.1661 29.465 10.5339C28.8322 9.90113 28.1994 9.51248 27.4506 9.22219C26.7254 8.9409 25.8984 8.74918 24.6873 8.69372C23.4741 8.6385 23.0878 8.625 19.9976 8.625H20.0011ZM18.9806 10.6749C19.2835 10.6744 19.6214 10.6749 20.0011 10.6749C23.0383 10.6749 23.3982 10.6858 24.5976 10.7403C25.7067 10.791 26.3086 10.9763 26.7095 11.132C27.2404 11.3382 27.6188 11.5846 28.0168 11.9828C28.4149 12.3809 28.6612 12.7601 28.8679 13.2909C29.0236 13.6914 29.2092 14.2933 29.2597 15.4024C29.3142 16.6015 29.326 16.9617 29.326 19.9974C29.326 23.0331 29.3142 23.3933 29.2597 24.5924C29.209 25.7015 29.0236 26.3034 28.8679 26.7039C28.6617 27.2347 28.4149 27.6128 28.0168 28.0106C27.6186 28.4087 27.2407 28.6552 26.7095 28.8613C26.3091 29.0178 25.7067 29.2025 24.5976 29.2534C23.3984 29.3078 23.0383 29.3197 20.0011 29.3197C16.9637 29.3197 16.6037 29.3078 15.4046 29.2534C14.2955 29.2022 13.6936 29.0168 13.2924 28.8611C12.7615 28.6549 12.3823 28.4086 11.9842 28.0104C11.5861 27.6123 11.3396 27.234 11.133 26.703C10.9773 26.3024 10.7917 25.7005 10.7413 24.5914C10.6867 23.3923 10.6758 23.0321 10.6758 19.9945C10.6758 16.957 10.6867 16.5986 10.7413 15.3995C10.792 14.2905 10.9773 13.6885 11.133 13.2876C11.3391 12.7567 11.5861 12.3776 11.9842 11.9794C12.3823 11.5813 12.7615 11.3349 13.2924 11.1282C13.6933 10.9718 14.2955 10.787 15.4046 10.736C16.4539 10.6886 16.8607 10.6744 18.9806 10.672V10.6749ZM26.073 12.5636C25.3194 12.5636 24.7079 13.1743 24.7079 13.9281C24.7079 14.6817 25.3194 15.2931 26.073 15.2931C26.8266 15.2931 27.4381 14.6817 27.4381 13.9281C27.4381 13.1745 26.8266 12.5636 26.073 12.5636ZM20.0011 14.1585C16.775 14.1585 14.1595 16.774 14.1595 20C14.1595 23.226 16.775 25.8404 20.0011 25.8404C23.2271 25.8404 25.8417 23.226 25.8417 20C25.8417 16.774 23.2273 14.1585 20.0011 14.1585ZM20.0011 16.2083C22.0951 16.2083 23.7927 17.9059 23.7927 20C23.7927 22.094 22.0951 23.7916 20.0011 23.7916C17.9068 23.7916 16.2094 22.094 16.2094 20C16.2094 17.9059 17.9068 16.2083 20.0011 16.2083Z" fill="white"/>
    <defs>
    <radialGradient id="paint0_radial_1_1940" cx="0" cy="0" r="1" gradientUnits="userSpaceOnUse" gradientTransform="translate(33.6806 19.0848) rotate(164.25) scale(18.6891 13.4646)">
    <stop stop-color="#FF005F"/>
    <stop offset="1" stop-color="#FC01D8"/>
    </radialGradient>
    <radialGradient id="paint1_radial_1_1940" cx="0" cy="0" r="1" gradientUnits="userSpaceOnUse" gradientTransform="translate(13.1443 36.8779) rotate(-90) scale(23.3478 24.7717)">
    <stop stop-color="#FFCC00"/>
    <stop offset="0.1242" stop-color="#FFCC00"/>
    <stop offset="0.5672" stop-color="#FE4A05"/>
    <stop offset="0.6942" stop-color="#FF0F3F"/>
    <stop offset="1" stop-color="#FE0657" stop-opacity="0"/>
    </radialGradient>
    <radialGradient id="paint2_radial_1_1940" cx="0" cy="0" r="1" gradientUnits="userSpaceOnUse" gradientTransform="translate(20.7391 34.2126) rotate(-59.8703) scale(9.65456 12.5691)">
    <stop stop-color="#FFCC00"/>
    <stop offset="1" stop-color="#FFCC00" stop-opacity="0"/>
    </radialGradient>
    <radialGradient id="paint3_radial_1_1940" cx="0" cy="0" r="1" gradientUnits="userSpaceOnUse" gradientTransform="translate(9.3436 6.56604) rotate(164.274) scale(18.4818 6.29673)">
    <stop stop-color="#780CFF"/>
    <stop offset="1" stop-color="#820BFF" stop-opacity="0"/>
    </radialGradient>
    </defs>
    </svg>
    