<svg width="22" height="22" viewBox="0 0 22 22" fill="none" xmlns="http://www.w3.org/2000/svg">
<path d="M15.2 2.25H12.925C10.125 2.25 8.375 4 8.375 6.8V10.3438H13.8437C14.2025 10.3438 14.5 10.6412 14.5 11C14.5 11.3588 14.2025 11.6562 13.8437 11.6562H8.375V15.2C8.375 18 10.125 19.75 12.925 19.75H15.1913C17.9913 19.75 19.7412 18 19.7412 15.2V6.8C19.75 4 18 2.25 15.2 2.25Z" fill="#FC2018"/>
<path d="M4.49 10.3441L6.30125 8.53285C6.4325 8.4016 6.49375 8.23535 6.49375 8.0691C6.49375 7.90285 6.4325 7.72785 6.30125 7.60535C6.0475 7.3516 5.6275 7.3516 5.37375 7.60535L2.4425 10.5366C2.18875 10.7904 2.18875 11.2104 2.4425 11.4641L5.37375 14.3954C5.6275 14.6491 6.0475 14.6491 6.30125 14.3954C6.555 14.1416 6.555 13.7216 6.30125 13.4679L4.49 11.6566H8.375V10.3441H4.49Z" fill="#FC2018"/>
</svg>
