<svg width="68" height="40" viewBox="0 0 68 40" fill="none" xmlns="http://www.w3.org/2000/svg">
<path d="M39.904 28.28C40.424 28.28 40.888 28.388 41.296 28.604C41.712 28.82 42.036 29.14 42.268 29.564C42.508 29.988 42.628 30.5 42.628 31.1V35H41.272V31.304C41.272 30.712 41.124 30.26 40.828 29.948C40.532 29.628 40.128 29.468 39.616 29.468C39.104 29.468 38.696 29.628 38.392 29.948C38.096 30.26 37.948 30.712 37.948 31.304V35H36.592V31.304C36.592 30.712 36.444 30.26 36.148 29.948C35.852 29.628 35.448 29.468 34.936 29.468C34.424 29.468 34.016 29.628 33.712 29.948C33.416 30.26 33.268 30.712 33.268 31.304V35H31.9V28.388H33.268V29.144C33.492 28.872 33.776 28.66 34.12 28.508C34.464 28.356 34.832 28.28 35.224 28.28C35.752 28.28 36.224 28.392 36.64 28.616C37.056 28.84 37.376 29.164 37.6 29.588C37.8 29.188 38.112 28.872 38.536 28.64C38.96 28.4 39.416 28.28 39.904 28.28ZM43.9128 31.664C43.9128 31 44.0488 30.412 44.3208 29.9C44.6008 29.388 44.9768 28.992 45.4488 28.712C45.9288 28.424 46.4568 28.28 47.0328 28.28C47.5528 28.28 48.0048 28.384 48.3888 28.592C48.7808 28.792 49.0928 29.044 49.3248 29.348V28.388H50.7048V35H49.3248V34.016C49.0928 34.328 48.7768 34.588 48.3768 34.796C47.9768 35.004 47.5208 35.108 47.0088 35.108C46.4408 35.108 45.9208 34.964 45.4488 34.676C44.9768 34.38 44.6008 33.972 44.3208 33.452C44.0488 32.924 43.9128 32.328 43.9128 31.664ZM49.3248 31.688C49.3248 31.232 49.2288 30.836 49.0368 30.5C48.8528 30.164 48.6088 29.908 48.3048 29.732C48.0008 29.556 47.6728 29.468 47.3208 29.468C46.9688 29.468 46.6408 29.556 46.3368 29.732C46.0328 29.9 45.7848 30.152 45.5928 30.488C45.4088 30.816 45.3168 31.208 45.3168 31.664C45.3168 32.12 45.4088 32.52 45.5928 32.864C45.7848 33.208 46.0328 33.472 46.3368 33.656C46.6488 33.832 46.9768 33.92 47.3208 33.92C47.6728 33.92 48.0008 33.832 48.3048 33.656C48.6088 33.48 48.8528 33.224 49.0368 32.888C49.2288 32.544 49.3248 32.144 49.3248 31.688ZM52.0456 31.664C52.0456 31 52.1816 30.412 52.4536 29.9C52.7336 29.388 53.1096 28.992 53.5816 28.712C54.0616 28.424 54.5936 28.28 55.1776 28.28C55.6096 28.28 56.0336 28.376 56.4496 28.568C56.8736 28.752 57.2096 29 57.4576 29.312V26.12H58.8376V35H57.4576V34.004C57.2336 34.324 56.9216 34.588 56.5216 34.796C56.1296 35.004 55.6776 35.108 55.1656 35.108C54.5896 35.108 54.0616 34.964 53.5816 34.676C53.1096 34.38 52.7336 33.972 52.4536 33.452C52.1816 32.924 52.0456 32.328 52.0456 31.664ZM57.4576 31.688C57.4576 31.232 57.3616 30.836 57.1696 30.5C56.9856 30.164 56.7416 29.908 56.4376 29.732C56.1336 29.556 55.8056 29.468 55.4536 29.468C55.1016 29.468 54.7736 29.556 54.4696 29.732C54.1656 29.9 53.9176 30.152 53.7256 30.488C53.5416 30.816 53.4496 31.208 53.4496 31.664C53.4496 32.12 53.5416 32.52 53.7256 32.864C53.9176 33.208 54.1656 33.472 54.4696 33.656C54.7816 33.832 55.1096 33.92 55.4536 33.92C55.8056 33.92 56.1336 33.832 56.4376 33.656C56.7416 33.48 56.9856 33.224 57.1696 32.888C57.3616 32.544 57.4576 32.144 57.4576 31.688ZM60.1784 31.664C60.1784 31 60.3144 30.412 60.5864 29.9C60.8664 29.388 61.2424 28.992 61.7144 28.712C62.1944 28.424 62.7224 28.28 63.2984 28.28C63.8184 28.28 64.2704 28.384 64.6544 28.592C65.0464 28.792 65.3584 29.044 65.5904 29.348V28.388H66.9704V35H65.5904V34.016C65.3584 34.328 65.0424 34.588 64.6424 34.796C64.2424 35.004 63.7864 35.108 63.2744 35.108C62.7064 35.108 62.1864 34.964 61.7144 34.676C61.2424 34.38 60.8664 33.972 60.5864 33.452C60.3144 32.924 60.1784 32.328 60.1784 31.664ZM65.5904 31.688C65.5904 31.232 65.4944 30.836 65.3024 30.5C65.1184 30.164 64.8744 29.908 64.5704 29.732C64.2664 29.556 63.9384 29.468 63.5864 29.468C63.2344 29.468 62.9064 29.556 62.6024 29.732C62.2984 29.9 62.0504 30.152 61.8584 30.488C61.6744 30.816 61.5824 31.208 61.5824 31.664C61.5824 32.12 61.6744 32.52 61.8584 32.864C62.0504 33.208 62.2984 33.472 62.6024 33.656C62.9144 33.832 63.2424 33.92 63.5864 33.92C63.9384 33.92 64.2664 33.832 64.5704 33.656C64.8744 33.48 65.1184 33.224 65.3024 32.888C65.4944 32.544 65.5904 32.144 65.5904 31.688Z" fill="white"/>
<path d="M33.54 20.018C33.54 19.73 33.564 19.424 33.612 19.1C33.672 18.764 33.756 18.41 33.864 18.038C33.984 17.654 34.128 17.252 34.296 16.832L35.592 17.336C35.472 17.672 35.364 17.99 35.268 18.29C35.184 18.59 35.118 18.872 35.07 19.136C35.034 19.4 35.016 19.652 35.016 19.892C35.016 20.36 35.112 20.768 35.304 21.116C35.508 21.464 35.79 21.752 36.15 21.98C36.51 22.22 36.93 22.4 37.41 22.52C37.89 22.64 38.406 22.7 38.958 22.7C39.822 22.7 40.578 22.604 41.226 22.412C41.874 22.232 42.414 21.998 42.846 21.71C43.278 21.422 43.596 21.122 43.8 20.81C44.016 20.498 44.124 20.222 44.124 19.982C44.124 19.814 44.022 19.664 43.818 19.532C43.614 19.4 43.35 19.274 43.026 19.154C42.702 19.034 42.36 18.908 42 18.776C41.64 18.632 41.298 18.464 40.974 18.272C40.65 18.08 40.386 17.852 40.182 17.588C39.978 17.312 39.876 16.988 39.876 16.616C39.876 16.124 39.996 15.638 40.236 15.158C40.488 14.666 40.824 14.216 41.244 13.808C41.676 13.4 42.156 13.076 42.684 12.836C43.212 12.584 43.758 12.458 44.322 12.458C44.826 12.458 45.258 12.53 45.618 12.674C45.978 12.806 46.236 12.932 46.392 13.052L45.798 14.33C45.594 14.234 45.366 14.144 45.114 14.06C44.862 13.976 44.598 13.934 44.322 13.934C43.974 13.934 43.62 14.006 43.26 14.15C42.912 14.294 42.588 14.486 42.288 14.726C42 14.966 41.766 15.23 41.586 15.518C41.406 15.806 41.316 16.094 41.316 16.382C41.316 16.586 41.418 16.772 41.622 16.94C41.838 17.108 42.114 17.264 42.45 17.408C42.786 17.552 43.14 17.702 43.512 17.858C43.896 18.002 44.256 18.164 44.592 18.344C44.928 18.512 45.198 18.71 45.402 18.938C45.618 19.166 45.726 19.436 45.726 19.748C45.726 20.192 45.576 20.672 45.276 21.188C44.976 21.704 44.532 22.184 43.944 22.628C43.356 23.084 42.636 23.456 41.784 23.744C40.944 24.032 39.972 24.176 38.868 24.176C38.112 24.176 37.41 24.092 36.762 23.924C36.126 23.756 35.562 23.498 35.07 23.15C34.59 22.814 34.212 22.382 33.936 21.854C33.672 21.338 33.54 20.726 33.54 20.018ZM50.5458 18.614C51.1458 18.614 51.6198 18.554 51.9678 18.434C52.3278 18.314 52.5858 18.14 52.7418 17.912C52.9098 17.672 52.9938 17.396 52.9938 17.084C52.9938 16.844 52.9278 16.556 52.7958 16.22C52.6758 15.884 52.5078 15.512 52.2918 15.104C52.0758 14.684 51.8238 14.246 51.5358 13.79C51.2598 13.322 50.9598 12.848 50.6358 12.368L51.8778 11.558C52.3458 12.266 52.7538 12.938 53.1018 13.574C53.4498 14.198 53.7438 14.786 53.9838 15.338C54.2238 15.878 54.4158 16.388 54.5598 16.868C54.7278 17.396 54.9138 17.786 55.1178 18.038C55.3338 18.29 55.5558 18.452 55.7838 18.524C56.0118 18.584 56.2218 18.614 56.4138 18.614C56.6658 18.614 56.8518 18.686 56.9718 18.83C57.0918 18.962 57.1518 19.124 57.1518 19.316C57.1518 19.508 57.0678 19.688 56.8998 19.856C56.7318 20.012 56.5158 20.09 56.2518 20.09C55.8558 20.09 55.4658 20.018 55.0818 19.874C54.7098 19.718 54.3858 19.472 54.1098 19.136C53.8338 18.788 53.6418 18.326 53.5338 17.75L54.2538 17.174C54.2538 17.654 54.1518 18.122 53.9478 18.578C53.7438 19.022 53.3718 19.388 52.8318 19.676C52.3038 19.964 51.5418 20.108 50.5458 20.108C50.1138 20.108 49.6938 20.072 49.2858 20C48.8898 19.928 48.5238 19.826 48.1878 19.694C47.8518 19.55 47.5578 19.382 47.3058 19.19L48.0258 17.948C48.2658 18.104 48.6018 18.254 49.0338 18.398C49.4658 18.542 49.9698 18.614 50.5458 18.614ZM56.2559 20.09L56.4359 18.614C56.7719 18.614 57.0539 18.542 57.2819 18.398C57.5099 18.254 57.7319 18.014 57.9479 17.678C58.1639 17.342 58.3979 16.892 58.6499 16.328C58.9979 15.56 59.3399 14.978 59.6759 14.582C60.0239 14.186 60.3659 13.916 60.7019 13.772C61.0499 13.628 61.3919 13.556 61.7279 13.556C62.1359 13.556 62.5139 13.664 62.8619 13.88C63.2099 14.084 63.5159 14.36 63.7799 14.708C64.0439 15.056 64.2479 15.44 64.3919 15.86C64.5479 16.268 64.6259 16.676 64.6259 17.084C64.6259 17.804 64.4999 18.38 64.2479 18.812C63.9959 19.232 63.6719 19.538 63.2759 19.73C62.8919 19.91 62.4899 20 62.0699 20C61.6979 20 61.2179 19.928 60.6299 19.784C60.0539 19.64 59.3219 19.274 58.4339 18.686L59.1359 17.552C59.7239 17.924 60.2519 18.182 60.7199 18.326C61.1999 18.458 61.5959 18.524 61.9079 18.524C62.2559 18.524 62.5319 18.476 62.7359 18.38C62.9399 18.272 63.0899 18.122 63.1859 17.93C63.2819 17.738 63.3299 17.522 63.3299 17.282C63.3299 16.934 63.2459 16.586 63.0779 16.238C62.9099 15.89 62.6939 15.602 62.4299 15.374C62.1779 15.146 61.9079 15.032 61.6199 15.032C61.4039 15.032 61.1939 15.092 60.9899 15.212C60.7859 15.332 60.5759 15.554 60.3599 15.878C60.1439 16.202 59.8979 16.67 59.6219 17.282C59.3339 17.93 59.0579 18.446 58.7939 18.83C58.5419 19.202 58.2839 19.478 58.0199 19.658C57.7559 19.838 57.4799 19.952 57.1919 20C56.9159 20.06 56.6039 20.09 56.2559 20.09Z" fill="white"/>
<rect y="10" width="28" height="21" fill="white"/>
<rect y="10" width="28" height="21" fill="white"/>
<rect y="22" width="28" height="9" fill="white"/>
<rect y="22" width="28" height="9" fill="#80BC04"/>
<rect y="10" width="28" height="9" fill="white"/>
<rect y="10" width="28" height="9" fill="#01A0E1"/>
</svg>
