<svg width="24" height="24" viewBox="0 0 24 24" fill="none" xmlns="http://www.w3.org/2000/svg">
    <path d="M20.4701 16.6838V19.2342C20.471 19.4709 20.4224 19.7053 20.3274 19.9222C20.2324 20.1391 20.093 20.3339 19.9182 20.4939C19.7434 20.654 19.537 20.7758 19.3123 20.8517C19.0875 20.9275 18.8494 20.9557 18.6132 20.9344C15.992 20.6502 13.4743 19.7563 11.2621 18.3246C9.20405 17.0194 7.45915 15.2779 6.15135 13.2239C4.71179 11.0061 3.81593 8.48113 3.53633 5.85344C3.51505 5.61836 3.54304 5.38143 3.61853 5.15774C3.69402 4.93404 3.81536 4.72848 3.97481 4.55415C4.13426 4.37982 4.32834 4.24054 4.54468 4.14517C4.76103 4.0498 4.9949 4.00043 5.23141 4.0002H7.7868C8.20019 3.99614 8.60094 4.14224 8.91438 4.41126C9.22782 4.68028 9.43254 5.05387 9.4904 5.46239C9.59826 6.27856 9.79828 7.07992 10.0867 7.8512C10.2013 8.15548 10.2261 8.48616 10.1581 8.80407C10.0902 9.12199 9.93237 9.4138 9.70335 9.64494L8.62157 10.7246C9.83415 12.8529 11.5998 14.6151 13.7324 15.8252L14.8141 14.7456C15.0457 14.517 15.3381 14.3595 15.6567 14.2917C15.9752 14.2239 16.3065 14.2487 16.6114 14.363C17.3842 14.6509 18.1872 14.8505 19.005 14.9581C19.4188 15.0164 19.7966 15.2244 20.0668 15.5426C20.3369 15.8608 20.4804 16.2669 20.4701 16.6838Z" stroke="#9A328A" stroke-width="1.5" stroke-linecap="round" stroke-linejoin="round"/>
    </svg>
    