<svg width="16" height="18" viewBox="0 0 16 18" fill="none" xmlns="http://www.w3.org/2000/svg">
<path d="M15.7963 8.23027V4.38902C15.7963 3.67152 15.2538 2.85777 14.58 2.58652L9.70625 0.591523C8.6125 0.145273 7.37875 0.145273 6.285 0.591523L1.41125 2.58652C0.746251 2.85777 0.203751 3.67152 0.203751 4.38902V8.23027C0.203751 12.509 3.31 16.5165 7.55375 17.689C7.8425 17.7678 8.1575 17.7678 8.44625 17.689C12.69 16.5165 15.7963 12.509 15.7963 8.23027ZM8.65625 9.76152V12.0628C8.65625 12.4215 8.35875 12.719 8 12.719C7.64125 12.719 7.34375 12.4215 7.34375 12.0628V9.76152C6.46 9.48152 5.8125 8.65902 5.8125 7.68777C5.8125 6.48027 6.7925 5.50027 8 5.50027C9.2075 5.50027 10.1875 6.48027 10.1875 7.68777C10.1875 8.66777 9.54 9.48152 8.65625 9.76152Z" fill="#AD6359"/>
</svg>
