<svg width="22" height="22" viewBox="0 0 22 22" fill="none" xmlns="http://www.w3.org/2000/svg">
<path d="M14.325 2.43417C13.9663 2.07542 13.345 2.32042 13.345 2.81917V5.87292C13.345 7.15042 14.43 8.20917 15.7513 8.20917C16.5825 8.21792 17.7375 8.21792 18.7263 8.21792C19.225 8.21792 19.4875 7.63167 19.1375 7.28167C17.8775 6.01292 15.62 3.72917 14.325 2.43417Z" fill="#60C61B"/>
<path d="M18.4375 9.41625H15.9088C13.835 9.41625 12.1463 7.7275 12.1463 5.65375V3.125C12.1463 2.64375 11.7525 2.25 11.2713 2.25H7.56125C4.86625 2.25 2.6875 4 2.6875 7.12375V14.8763C2.6875 18 4.86625 19.75 7.56125 19.75H14.4388C17.1337 19.75 19.3125 18 19.3125 14.8763V10.2912C19.3125 9.81 18.9188 9.41625 18.4375 9.41625ZM10.5625 16.0312H7.0625C6.70375 16.0312 6.40625 15.7338 6.40625 15.375C6.40625 15.0162 6.70375 14.7188 7.0625 14.7188H10.5625C10.9213 14.7188 11.2188 15.0162 11.2188 15.375C11.2188 15.7338 10.9213 16.0312 10.5625 16.0312ZM12.3125 12.5312H7.0625C6.70375 12.5312 6.40625 12.2338 6.40625 11.875C6.40625 11.5162 6.70375 11.2188 7.0625 11.2188H12.3125C12.6713 11.2188 12.9688 11.5162 12.9688 11.875C12.9688 12.2338 12.6713 12.5312 12.3125 12.5312Z" fill="#60C61B"/>
</svg>
