<svg width="28" height="23" viewBox="0 0 28 23" fill="none" xmlns="http://www.w3.org/2000/svg">
<path opacity="0.4" d="M24.2663 8.46517C23.7859 8.46517 23.3947 8.07206 23.3883 7.58283V6.29509C23.404 5.20201 22.9918 4.14756 22.2428 3.36456C21.4939 2.58155 20.4697 2.1344 19.3965 2.12185H18.46C17.9751 2.12185 17.5821 1.72147 17.5821 1.22758C17.5821 0.73369 17.9751 0.333313 18.46 0.333313H19.3965C22.6016 0.372491 25.1796 3.03023 25.1794 6.29509V7.57091C25.1857 7.80586 25.0985 8.03343 24.9375 8.20186C24.7766 8.37029 24.5556 8.46526 24.3248 8.46517H24.2663ZM3.78049 8.46525C3.54872 8.46836 3.32537 8.37681 3.16037 8.21099C2.99538 8.04518 2.90251 7.81892 2.90253 7.58283V6.29509C2.88375 4.72054 3.48471 3.20389 4.57125 2.08374C5.65779 0.963584 7.13942 0.333197 8.68538 0.333313H9.64528C10.1302 0.333313 10.5232 0.73369 10.5232 1.22758C10.5232 1.72147 10.1302 2.12185 9.64528 2.12185H8.69708C7.61477 2.11847 6.57668 2.55901 5.81689 3.34413C5.0571 4.12924 4.63957 5.19284 4.65845 6.29509V7.58283C4.65205 8.07206 4.26084 8.46525 3.78049 8.46525Z" fill="#B5B5B5"/>
<path d="M25.1442 13.7473V17.0978C25.1068 20.3211 22.5607 22.9303 19.3965 22.9881H18.4483C18.1126 23.0278 17.7843 22.8676 17.6042 22.5764C17.4241 22.2851 17.4241 21.9144 17.6042 21.6231C17.7843 21.3319 18.1126 21.1718 18.4483 21.2115H19.3965C21.6289 21.2049 23.4351 19.3597 23.4351 17.0859V13.7473H25.1442ZM10.5232 22.1057C10.5169 22.5969 10.1275 22.9936 9.64526 23H8.68536C5.48025 22.9608 2.90227 20.3031 2.90251 17.0382V13.7473H4.65843V17.0978C4.65839 19.367 6.45756 21.2103 8.68536 21.2234H9.64526C9.87703 21.2202 10.1004 21.3117 10.2654 21.4776C10.4304 21.6434 10.5232 21.8696 10.5232 22.1057ZM27.3333 12.8531C27.3333 13.3469 26.9402 13.7473 26.4553 13.7473H1.54459C1.0597 13.7473 0.666626 13.3469 0.666626 12.8531C0.666626 12.3592 1.0597 11.9588 1.54459 11.9588H26.4202C26.6591 11.949 26.8915 12.0389 27.0639 12.2077C27.2362 12.3765 27.3333 12.6095 27.3333 12.8531Z" fill="#B5B5B5"/>
<path opacity="0.4" d="M20.0988 9.80062V8.26248C20.0988 7.51934 19.809 6.80663 19.2931 6.28115C18.7772 5.75566 18.0775 5.46045 17.3479 5.46045H10.652C9.13264 5.46045 7.901 6.71496 7.901 8.26248V9.80062C7.90706 9.98239 8.05032 10.1283 8.22877 10.1345H19.7711C19.9495 10.1283 20.0928 9.98239 20.0988 9.80062Z" fill="#B5B5B5"/>
<path d="M20.0988 13.7473V15.0828C20.0988 16.6303 18.8672 17.8848 17.3479 17.8848H10.652C9.13264 17.8848 7.901 16.6303 7.901 15.0828V13.7473H20.0988Z" fill="#8A8A8A"/>
</svg>
