<svg width="22" height="22" viewBox="0 0 22 22" fill="none" xmlns="http://www.w3.org/2000/svg">
<path d="M3.12482 18.8752L6.92495 15.0751M6.92495 15.0751C6.27492 14.425 5.75929 13.6533 5.4075 12.804C5.05571 11.9547 4.87464 11.0445 4.87464 10.1252C4.87464 9.2059 5.0557 8.29563 5.4075 7.44633C5.75929 6.59703 6.27492 5.82533 6.92495 5.17531C7.57497 4.52528 8.34667 4.00965 9.19597 3.65786C10.0453 3.30607 10.9555 3.125 11.8748 3.125C12.7941 3.125 13.7044 3.30606 14.5537 3.65786C15.403 4.00965 16.1747 4.52528 16.8247 5.17531C18.1375 6.48809 18.875 8.26862 18.875 10.1252C18.875 11.9817 18.1375 13.7623 16.8247 15.0751C15.5119 16.3878 13.7314 17.1254 11.8748 17.1254C10.0183 17.1254 8.23773 16.3878 6.92495 15.0751Z" stroke="#9F9F9F" stroke-width="1.4" stroke-linecap="round" stroke-linejoin="round"/>
</svg>
