<svg width="20" height="20" viewBox="0 0 20 20" fill="none" xmlns="http://www.w3.org/2000/svg">
    <path d="M18.0892 9.41088L11.4225 2.74422C11.306 2.62767 11.1575 2.5483 10.9959 2.51614C10.8342 2.48398 10.6667 2.50048 10.5144 2.56354C10.3622 2.6266 10.232 2.73341 10.1405 2.87044C10.0489 3.00747 10 3.16858 10 3.33338V6.28748C7.7236 6.49819 5.60773 7.55077 4.06646 9.23925C2.52519 10.9277 1.66944 13.1306 1.66669 15.4167V16.6667C1.66667 16.8398 1.72054 17.0086 1.82081 17.1496C1.92109 17.2907 2.06279 17.397 2.22624 17.4539C2.3897 17.5107 2.5668 17.5153 2.73297 17.4669C2.89913 17.4185 3.04611 17.3196 3.1535 17.1839C3.96987 16.213 4.97154 15.4145 6.09999 14.8352C7.22844 14.2558 8.46104 13.9071 9.72577 13.8095C9.76727 13.8042 9.87144 13.796 10 13.7879V16.6667C10 16.8315 10.0489 16.9926 10.1405 17.1297C10.232 17.2667 10.3622 17.3735 10.5144 17.4366C10.6667 17.4996 10.8342 17.5161 10.9959 17.484C11.1575 17.4518 11.306 17.3724 11.4225 17.2559L18.0892 10.5892C18.1666 10.5119 18.228 10.42 18.2699 10.3189C18.3117 10.2178 18.3333 10.1095 18.3333 10.0001C18.3333 9.89063 18.3117 9.78227 18.2699 9.68118C18.228 9.58009 18.1666 9.48824 18.0892 9.41088ZM11.6667 14.655V12.9167C11.6667 12.8073 11.6452 12.6989 11.6033 12.5978C11.5614 12.4967 11.5001 12.4048 11.4227 12.3274C11.3453 12.25 11.2534 12.1886 11.1523 12.1468C11.0512 12.1049 10.9428 12.0834 10.8334 12.0834C10.621 12.0834 9.75344 12.1245 9.53209 12.1542C7.28591 12.3611 5.14782 13.2145 3.37649 14.6111C3.57743 12.773 4.44934 11.0736 5.82524 9.83844C7.20115 8.60323 8.98434 7.91898 10.8334 7.91672C10.9428 7.91675 11.0512 7.89521 11.1523 7.85334C11.2534 7.81147 11.3453 7.75009 11.4227 7.6727C11.5001 7.59532 11.5614 7.50344 11.6033 7.40232C11.6452 7.3012 11.6667 7.19283 11.6667 7.08338V5.3451L16.3216 10.0001L11.6667 14.655Z" fill="white"/>
    </svg>
    