<svg width="28" height="28" viewBox="0 0 28 28" fill="none" xmlns="http://www.w3.org/2000/svg">
<path d="M23.2983 2.04175H19.8683C18.3867 2.04175 17.5 2.92841 17.5 4.41008V7.84008C17.5 9.32175 18.3867 10.2084 19.8683 10.2084H23.2983C24.78 10.2084 25.6667 9.32175 25.6667 7.84008V4.41008C25.6667 2.92841 24.78 2.04175 23.2983 2.04175ZM23.555 5.90341C23.415 6.04341 23.2283 6.11341 23.0417 6.11341C22.855 6.11341 22.6683 6.04341 22.5283 5.90341L22.3183 5.69341V8.30675C22.3183 8.71508 21.9917 9.04175 21.5833 9.04175C21.175 9.04175 20.8483 8.71508 20.8483 8.30675V5.69341L20.6383 5.90341C20.3583 6.18341 19.8917 6.18341 19.6117 5.90341C19.3317 5.62341 19.3317 5.15675 19.6117 4.87675L21.07 3.41841C21.1283 3.36008 21.21 3.31341 21.2917 3.27841C21.315 3.26675 21.3383 3.26675 21.3617 3.25508C21.42 3.23175 21.4783 3.22008 21.5483 3.22008C21.5717 3.22008 21.595 3.22008 21.6183 3.22008C21.7 3.22008 21.77 3.23175 21.8517 3.26675C21.8633 3.26675 21.8633 3.26675 21.875 3.26675C21.9567 3.30175 22.0267 3.34841 22.085 3.40675C22.0967 3.41841 22.0967 3.41841 22.1083 3.41841L23.5667 4.87675C23.8467 5.15675 23.8467 5.62341 23.555 5.90341Z" fill="#E50B03"/>
<path d="M2.33333 13.3699V19.2033C2.33333 21.8749 4.49166 24.0333 7.16333 24.0333H20.825C23.4967 24.0333 25.6667 21.8633 25.6667 19.1916V13.3699C25.6667 12.5883 25.0367 11.9583 24.255 11.9583H3.74499C2.96333 11.9583 2.33333 12.5883 2.33333 13.3699ZM9.33333 20.1249H6.99999C6.52166 20.1249 6.12499 19.7283 6.12499 19.2499C6.12499 18.7716 6.52166 18.3749 6.99999 18.3749H9.33333C9.81166 18.3749 10.2083 18.7716 10.2083 19.2499C10.2083 19.7283 9.81166 20.1249 9.33333 20.1249ZM16.9167 20.1249H12.25C11.7717 20.1249 11.375 19.7283 11.375 19.2499C11.375 18.7716 11.7717 18.3749 12.25 18.3749H16.9167C17.395 18.3749 17.7917 18.7716 17.7917 19.2499C17.7917 19.7283 17.395 20.1249 16.9167 20.1249Z" fill="#E50B03"/>
<path d="M15.75 5.37822V8.79655C15.75 9.57822 15.12 10.2082 14.3383 10.2082H3.74499C2.95166 10.2082 2.33333 9.55489 2.33333 8.77322C2.34499 7.45489 2.86999 6.25322 3.74499 5.37822C4.62 4.50322 5.83333 3.96655 7.16333 3.96655H14.3383C15.12 3.96655 15.75 4.59655 15.75 5.37822Z" fill="#E50B03"/>
</svg>
