<svg width="28" height="28" viewBox="0 0 28 28" fill="none" xmlns="http://www.w3.org/2000/svg">
<path d="M16.7417 2.33325H11.2583C10.045 2.33325 9.05333 3.31325 9.05333 4.52659V5.62325C9.05333 6.83659 10.0333 7.81659 11.2467 7.81659H16.7417C17.955 7.81659 18.935 6.83659 18.935 5.62325V4.52659C18.9467 3.31325 17.955 2.33325 16.7417 2.33325Z" fill="#FF9000"/>
<path d="M20.1133 5.62331C20.1133 7.47831 18.5967 8.99498 16.7417 8.99498H11.2583C9.40333 8.99498 7.88667 7.47831 7.88667 5.62331C7.88667 4.96998 7.18667 4.56164 6.60333 4.86498C4.95833 5.73998 3.83833 7.47831 3.83833 9.47331V20.4516C3.83833 23.3216 6.18333 25.6666 9.05333 25.6666H18.9467C21.8167 25.6666 24.1617 23.3216 24.1617 20.4516V9.47331C24.1617 7.47831 23.0417 5.73998 21.3967 4.86498C20.8133 4.56164 20.1133 4.96998 20.1133 5.62331ZM17.8967 14.8516L13.23 19.5183C13.055 19.6933 12.8333 19.775 12.6117 19.775C12.39 19.775 12.1683 19.6933 11.9933 19.5183L10.2433 17.7683C9.905 17.43 9.905 16.87 10.2433 16.5316C10.5817 16.1933 11.1417 16.1933 11.48 16.5316L12.6117 17.6633L16.66 13.615C16.9983 13.2766 17.5583 13.2766 17.8967 13.615C18.235 13.9533 18.235 14.5133 17.8967 14.8516Z" fill="#FF9000"/>
</svg>
