<svg width="28" height="28" viewBox="0 0 28 28" fill="none" xmlns="http://www.w3.org/2000/svg">
<path d="M23.2983 10.2084H19.8683C18.3867 10.2084 17.5 9.32175 17.5 7.84008V4.41008C17.5 2.92841 18.3867 2.04175 19.8683 2.04175H23.2983C24.78 2.04175 25.6667 2.92841 25.6667 4.41008V7.84008C25.6667 9.32175 24.78 10.2084 23.2983 10.2084ZM23.555 6.34675C23.415 6.20675 23.2283 6.13675 23.0417 6.13675C22.855 6.13675 22.6683 6.20675 22.5283 6.34675L22.3183 6.55675V3.94341C22.3183 3.53508 21.9917 3.20841 21.5833 3.20841C21.175 3.20841 20.8483 3.53508 20.8483 3.94341V6.55675L20.6383 6.34675C20.3583 6.06675 19.8917 6.06675 19.6117 6.34675C19.3317 6.62675 19.3317 7.09341 19.6117 7.37341L21.07 8.83175C21.1283 8.89008 21.21 8.93675 21.2917 8.97175C21.315 8.98341 21.3383 8.98341 21.3617 8.99508C21.42 9.01841 21.4783 9.03008 21.5483 9.03008C21.5717 9.03008 21.595 9.03008 21.6183 9.03008C21.7 9.03008 21.77 9.01841 21.8517 8.98341C21.8633 8.98341 21.8633 8.98341 21.875 8.98341C21.9567 8.94841 22.0267 8.90175 22.085 8.84341C22.0967 8.83175 22.0967 8.83175 22.1083 8.83175L23.5667 7.37341C23.8467 7.09341 23.8467 6.62675 23.555 6.34675Z" fill="#51A717"/>
<path d="M2.33333 13.3699V19.2033C2.33333 21.8749 4.49167 24.0333 7.16333 24.0333H20.825C23.4967 24.0333 25.6667 21.8633 25.6667 19.1916V13.3699C25.6667 12.5883 25.0367 11.9583 24.255 11.9583H3.745C2.96333 11.9583 2.33333 12.5883 2.33333 13.3699ZM9.33333 20.1249H7C6.52167 20.1249 6.125 19.7283 6.125 19.2499C6.125 18.7716 6.52167 18.3749 7 18.3749H9.33333C9.81167 18.3749 10.2083 18.7716 10.2083 19.2499C10.2083 19.7283 9.81167 20.1249 9.33333 20.1249ZM16.9167 20.1249H12.25C11.7717 20.1249 11.375 19.7283 11.375 19.2499C11.375 18.7716 11.7717 18.3749 12.25 18.3749H16.9167C17.395 18.3749 17.7917 18.7716 17.7917 19.2499C17.7917 19.7283 17.395 20.1249 16.9167 20.1249Z" fill="#51A717"/>
<path d="M15.75 5.37822V8.79655C15.75 9.57822 15.12 10.2082 14.3383 10.2082H3.745C2.95167 10.2082 2.33333 9.55489 2.33333 8.77322C2.345 7.45489 2.87 6.25322 3.745 5.37822C4.62 4.50322 5.83333 3.96655 7.16333 3.96655H14.3383C15.12 3.96655 15.75 4.59655 15.75 5.37822Z" fill="#51A717"/>
</svg>
