<svg width="22" height="22" viewBox="0 0 22 22" fill="none" xmlns="http://www.w3.org/2000/svg">
<path d="M10.1329 4.44531H11.8526C12.5165 4.44531 12.7708 4.63575 12.8897 4.78516C12.9997 4.92339 13.0551 5.09573 13.0977 5.30859L13.1378 5.53516V5.53809L13.2755 6.34961V6.77148C11.7315 6.69707 10.1883 6.68099 8.64755 6.74902L8.71005 6.36914L8.84775 5.5293C8.90355 5.19098 8.95475 4.95082 9.09872 4.77344C9.21498 4.63022 9.46605 4.44538 10.1329 4.44531Z" stroke="#9F9F9F"/>
<path d="M15.7446 8.46688C15.5871 8.30281 15.3705 8.21094 15.1474 8.21094H6.8524C6.62927 8.21094 6.40615 8.30281 6.25521 8.46688C6.10427 8.63094 6.01896 8.85406 6.03208 9.08375L6.43896 15.8169C6.51115 16.8144 6.60302 18.0613 8.89333 18.0613H13.1065C15.3968 18.0613 15.4886 16.8209 15.5608 15.8169L15.9677 9.09031C15.9808 8.85406 15.8955 8.63094 15.7446 8.46688ZM12.0893 14.7734H9.90396C9.6349 14.7734 9.41177 14.5503 9.41177 14.2813C9.41177 14.0122 9.6349 13.7891 9.90396 13.7891H12.0893C12.3583 13.7891 12.5815 14.0122 12.5815 14.2813C12.5815 14.5503 12.3583 14.7734 12.0893 14.7734ZM12.6405 12.1484H9.35927C9.09021 12.1484 8.86708 11.9253 8.86708 11.6563C8.86708 11.3872 9.09021 11.1641 9.35927 11.1641H12.6405C12.9096 11.1641 13.1327 11.3872 13.1327 11.6563C13.1327 11.9253 12.9096 12.1484 12.6405 12.1484Z" fill="#9F9F9F"/>
</svg>
