<svg width="24" height="24" viewBox="0 0 24 24" fill="none" xmlns="http://www.w3.org/2000/svg">
    <g clip-path="url(#clip0_177_1761)">
    <path d="M16.2639 4.55532V4.55043C17.0074 4.70213 17.6525 5.18704 18 5.88196C18 5.88197 18 5.88197 18 5.88198L19.3854 8.6528L19.5933 9.06857L20.0231 8.89151C20.2759 8.78733 20.5268 8.67544 20.7737 8.55411L20.7766 8.55266C21.0236 8.42932 21.3237 8.52945 21.4472 8.77635L21.4472 8.77637C21.5693 9.0206 21.4728 9.31695 21.2319 9.44295C20.998 9.54703 20.7642 9.64809 20.5297 9.74565L20.0348 9.95151L20.2745 10.4309L21.2361 12.3541C21.4097 12.7013 21.5 13.084 21.5 13.4721V16C21.5 16.7404 21.1788 17.4051 20.6665 17.8635L20.5 18.0126V18.2361V19.5C20.5 20.0523 20.0523 20.5 19.5 20.5C18.9477 20.5 18.5 20.0523 18.5 19.5V19V18.5H18H6H5.5V19V19.5C5.5 20.0523 5.05228 20.5 4.5 20.5C3.94772 20.5 3.5 20.0523 3.5 19.5V18.2361V18.0126L3.33345 17.8635C2.8212 17.4051 2.5 16.7404 2.5 16V13.4721C2.5 13.084 2.59036 12.7013 2.76393 12.3541C2.76394 12.3541 2.76394 12.3541 2.76394 12.3541L3.70945 10.4631C3.82961 10.2603 3.9218 10.0786 3.96697 9.92263C3.98924 9.84572 4.01589 9.72384 3.99231 9.58793C3.9633 9.42068 3.85946 9.25409 3.67314 9.16754C3.525 9.09873 3.38464 9.11008 3.3163 9.11959C3.2378 9.1305 3.16589 9.15259 3.11156 9.17172C3.00834 9.20808 2.89618 9.26052 2.81118 9.30026L2.80041 9.30529C2.75227 9.32779 2.71009 9.34748 2.67043 9.36498C2.66811 9.366 2.66582 9.36701 2.66356 9.36799C2.50636 9.22004 2.45367 8.97461 2.5528 8.77636C2.67625 8.52944 2.97646 8.42931 3.22342 8.55266L3.22624 8.55406C3.47357 8.67565 3.72426 8.78754 3.97676 8.89161L4.4066 9.06878L4.61451 8.65295L6 5.88197L5.55279 5.65836L6 5.88197C6.34746 5.18704 6.9926 4.70213 7.73608 4.55043V4.55533C7.24171 4.6685 6.86434 4.94077 6.58825 5.23588C6.24079 5.60725 6.03745 6.03163 5.9358 6.24377L5.93117 6.25343C5.91548 6.28615 5.90404 6.30999 5.89445 6.32918C5.89445 6.32918 5.89445 6.32918 5.89445 6.32919L4.62542 8.86723L4.35955 9.39897L4.92898 9.56976C6.52992 10.0499 9.66431 10.5 12 10.5C14.3358 10.5 17.4702 10.05 19.0711 9.56976L19.6405 9.39896L19.3746 8.86724L18.1056 6.32919L18.1056 6.32917C18.096 6.30999 18.0846 6.28615 18.0689 6.25343L18.0643 6.24376C17.9626 6.03162 17.7592 5.60725 17.4118 5.23588C17.1357 4.94077 16.7583 4.66849 16.2639 4.55532ZM3.00644 9.64446C3.00638 9.64467 3.00631 9.64489 3.00625 9.64511L3.00644 9.64446ZM7.5 16.5C8.60458 16.5 9.5 15.6045 9.5 14.5C9.5 13.3955 8.60458 12.5 7.5 12.5C6.39542 12.5 5.5 13.3955 5.5 14.5C5.5 15.6045 6.39542 16.5 7.5 16.5ZM16.5 16.5C17.6045 16.5 18.5 15.6045 18.5 14.5C18.5 13.3955 17.6045 12.5 16.5 12.5C15.3955 12.5 14.5 13.3955 14.5 14.5C14.5 15.6045 15.3955 16.5 16.5 16.5Z" stroke="#CECECE"/>
    <path d="M8.00003 4.5L16 4.5" stroke="#CECECE"/>
    </g>
    <defs>
    <clipPath id="clip0_177_1761">
    <rect width="24" height="24" fill="white"/>
    </clipPath>
    </defs>
    </svg>
    