<svg width="23" height="24" viewBox="0 0 23 24" fill="none" xmlns="http://www.w3.org/2000/svg">
<path d="M15.3333 15.8334L11.5 12.0001M11.5 12.0001L7.66669 15.8334M11.5 12.0001V20.6251M19.5404 18.1238C20.4751 17.6143 21.2135 16.8079 21.6391 15.8321C22.0646 14.8563 22.153 13.7665 21.8905 12.7348C21.6279 11.7031 21.0292 10.7883 20.1889 10.1346C19.3486 9.481 18.3146 9.12579 17.25 9.12509H16.0425C15.7524 8.00311 15.2118 6.96149 14.4612 6.07854C13.7106 5.19559 12.7697 4.49428 11.709 4.02734C10.6484 3.56039 9.49571 3.33997 8.33763 3.38264C7.17955 3.42531 6.04621 3.72996 5.02281 4.27368C3.99942 4.81741 3.1126 5.58606 2.42903 6.52185C1.74547 7.45765 1.28293 8.53623 1.07621 9.67651C0.86949 10.8168 0.923957 11.9891 1.23552 13.1053C1.54708 14.2215 2.10763 15.2525 2.87502 16.1209" stroke="#8A8A8A" stroke-linecap="round" stroke-linejoin="round"/>
</svg>
