<svg width="24" height="24" viewBox="0 0 24 24" fill="none" xmlns="http://www.w3.org/2000/svg">
    <path fill-rule="evenodd" clip-rule="evenodd" d="M19.0714 19.0699C16.0152 22.1263 11.4898 22.7867 7.78642 21.074C7.23971 20.8539 6.79148 20.676 6.36537 20.676C5.17849 20.683 3.70117 21.8339 2.93336 21.067C2.16555 20.2991 3.31726 18.8206 3.31726 17.6266C3.31726 17.2004 3.14642 16.7602 2.92632 16.2124C1.21283 12.5096 1.87411 7.98269 4.93026 4.92721C8.8316 1.02443 15.17 1.02443 19.0714 4.9262C22.9797 8.83501 22.9727 15.1681 19.0714 19.0699Z" stroke="#9A328A" stroke-width="1.5" stroke-linecap="round" stroke-linejoin="round"/>
    <path d="M16.9997 14.4869V15.9923C17.0003 16.1321 16.9716 16.2704 16.9155 16.3985C16.8594 16.5265 16.7771 16.6414 16.6739 16.7359C16.5707 16.8304 16.4489 16.9023 16.3163 16.9471C16.1836 16.9919 16.0431 17.0085 15.9036 16.9959C14.3564 16.8281 12.8702 16.3005 11.5645 15.4554C10.3496 14.685 9.31963 13.657 8.54767 12.4446C7.69793 11.1355 7.16912 9.64504 7.00408 8.09397C6.99152 7.95521 7.00804 7.81536 7.0526 7.68331C7.09716 7.55127 7.16878 7.42994 7.2629 7.32703C7.35703 7.22413 7.47158 7.14191 7.59929 7.08562C7.72699 7.02932 7.86504 7.00018 8.00465 7.00005H9.51304C9.75705 6.99765 9.99361 7.08389 10.1786 7.24269C10.3636 7.40148 10.4845 7.622 10.5186 7.86315C10.5823 8.34491 10.7004 8.81794 10.8706 9.27321C10.9382 9.45281 10.9529 9.64801 10.9128 9.83567C10.8727 10.0233 10.7795 10.1956 10.6443 10.332L10.0058 10.9693C10.7215 12.2256 11.7638 13.2658 13.0226 13.9801L13.6611 13.3428C13.7978 13.2079 13.9704 13.1149 14.1584 13.0749C14.3465 13.0349 14.5421 13.0495 14.722 13.117C15.1782 13.2869 15.6522 13.4047 16.1349 13.4683C16.3791 13.5027 16.6022 13.6254 16.7616 13.8133C16.9211 14.0011 17.0058 14.2408 16.9997 14.4869Z" stroke="#9A328A" stroke-linecap="round" stroke-linejoin="round"/>
    </svg>
    