<svg width="24" height="25" viewBox="0 0 24 25" fill="none" xmlns="http://www.w3.org/2000/svg">
<g clip-path="url(#clip0_455_2386)">
<path d="M21.4245 16.2762C21.3118 16.1639 21.1591 16.1009 21 16.1009C20.8409 16.1009 20.6882 16.1639 20.5755 16.2762L19.7955 17.0562L16.5203 13.8687C16.5173 13.8687 16.5173 13.865 16.515 13.865C16.506 13.8567 16.497 13.8477 16.488 13.8425L16.4678 13.8245C16.4588 13.8185 16.4528 13.8125 16.4445 13.8065C16.4355 13.8005 16.4265 13.7952 16.4183 13.7915C16.4123 13.7892 16.4063 13.7832 16.3973 13.7802C16.389 13.7742 16.377 13.7682 16.368 13.763C16.359 13.76 16.353 13.757 16.3478 13.754C16.3373 13.7483 16.3266 13.7433 16.3155 13.739C16.3065 13.7337 16.2975 13.7337 16.2893 13.7307C16.2803 13.7277 16.2683 13.7217 16.2593 13.7217L16.2278 13.7127C16.2188 13.7127 16.2128 13.7097 16.2038 13.7067C16.1925 13.7067 16.1813 13.7037 16.1663 13.7037C16.1603 13.7015 16.1543 13.7015 16.1453 13.7015H16.0545C16.0463 13.7037 16.0373 13.7037 16.0283 13.7037C16.0193 13.7067 16.011 13.7067 16.002 13.7067C15.9912 13.7094 15.9804 13.7124 15.9698 13.7157H15.9608L11.2268 14.8587C11.0978 14.891 10.9868 14.876 10.9133 14.8175C10.8398 14.759 10.7985 14.6562 10.7985 14.525V12.5H15C15.1541 12.4923 15.2994 12.4256 15.4058 12.3138C15.5122 12.202 15.5715 12.0536 15.5715 11.8992C15.5715 11.7449 15.5122 11.5965 15.4058 11.4847C15.2994 11.3728 15.1541 11.3062 15 11.2985H10.7985V7.63999C11.2345 7.72857 11.6847 7.71914 12.1167 7.61238C12.5486 7.50563 12.9513 7.30421 13.2959 7.02271C13.6404 6.7412 13.918 6.38665 14.1087 5.98468C14.2994 5.58272 14.3984 5.14339 14.3985 4.69849C14.3993 3.04624 13.0545 1.69849 11.3993 1.69849C9.74701 1.69849 8.39926 3.04624 8.39926 4.69849C8.39926 5.67649 8.87176 6.54949 9.60076 7.09774V14.5242C9.60076 15.0222 9.80851 15.4737 10.1715 15.761C10.4325 15.9657 10.758 16.0745 11.1038 16.0745C11.235 16.0745 11.37 16.0595 11.508 16.0242L15.9203 14.9607L19.38 18.3297C19.497 18.4415 19.65 18.5 19.7985 18.5C19.9538 18.5 20.106 18.4415 20.2238 18.3245L21.4245 17.126C21.537 17.0132 21.6002 16.8604 21.6002 16.7011C21.6002 16.5418 21.537 16.389 21.4245 16.2762ZM11.4 2.89999C11.8778 2.90058 12.3359 3.09065 12.6737 3.42851C13.0116 3.76637 13.2017 4.22443 13.2023 4.70224C13.2007 5.17945 13.01 5.63659 12.6721 5.97354C12.3342 6.31049 11.8765 6.49979 11.3993 6.49999C10.9309 6.48646 10.4862 6.29089 10.1597 5.9548C9.83314 5.61871 9.65048 5.16858 9.65048 4.69999C9.65048 4.2314 9.83314 3.78126 10.1597 3.44517C10.4862 3.10908 10.9316 2.91351 11.4 2.89999Z" fill="white"/>
<path d="M9.00001 24.5C4.69951 24.5 1.20151 21.002 1.20151 16.7015C1.20123 14.8577 1.85401 13.0734 3.04406 11.665C4.2341 10.2567 5.8845 9.31537 7.70251 9.00801C7.78022 8.99496 7.85974 8.99735 7.93653 9.01503C8.01331 9.03271 8.08587 9.06534 8.15004 9.11106C8.21422 9.15678 8.26876 9.2147 8.31056 9.2815C8.35235 9.3483 8.38058 9.42268 8.39363 9.50039C8.40668 9.5781 8.4043 9.65762 8.38662 9.7344C8.36894 9.81119 8.3363 9.88375 8.29058 9.94792C8.24486 10.0121 8.18695 10.0666 8.12015 10.1084C8.05335 10.1502 7.97897 10.1785 7.90126 10.1915C6.36118 10.4463 4.96207 11.2409 3.95449 12.4332C2.94691 13.6255 2.39665 15.1375 2.40226 16.6985C2.40226 20.3398 5.36101 23.2985 9.00001 23.2985C10.5612 23.3036 12.0733 22.7533 13.266 21.7458C14.4586 20.7384 15.254 19.3396 15.51 17.7995C15.5231 17.7218 15.5514 17.6474 15.5932 17.5807C15.6351 17.5139 15.6897 17.456 15.7539 17.4103C15.8181 17.3646 15.8907 17.332 15.9675 17.3144C16.0443 17.2967 16.1238 17.2944 16.2015 17.3075C16.2792 17.3206 16.3536 17.3489 16.4204 17.3907C16.4872 17.4326 16.545 17.4872 16.5907 17.5514C16.6364 17.6156 16.669 17.6882 16.6866 17.765C16.7043 17.8418 16.7066 17.9213 16.6935 17.999C16.3863 19.8037 15.4564 21.4437 14.0655 22.634C12.6522 23.8378 10.8565 24.4992 9.00001 24.5Z" fill="white"/>
</g>
<defs>
<clipPath id="clip0_455_2386">
<rect width="24" height="24" fill="white" transform="translate(0 0.5)"/>
</clipPath>
</defs>
</svg>
